<?xml version="1.0" encoding="UTF-8" standalone="no"?>
<!DOCTYPE svg PUBLIC "-//W3C//DTD SVG 1.1//EN"
 "http://www.w3.org/Graphics/SVG/1.1/DTD/svg11.dtd">
<!-- Generated by graphviz version 10.0.1 (20240210.2158)
 -->
<!-- Title: Tree Pages: 1 -->
<svg width="2263pt" height="715pt"
 viewBox="0.00 0.00 2263.38 714.50" xmlns="http://www.w3.org/2000/svg" xmlns:xlink="http://www.w3.org/1999/xlink">
<g id="graph0" class="graph" transform="scale(1 1) rotate(0) translate(4 710.5)">
<title>Tree</title>
<polygon fill="white" stroke="none" points="-4,4 -4,-710.5 2259.38,-710.5 2259.38,4 -4,4"/>
<!-- 0 -->
<g id="node1" class="node">
<title>0</title>
<path fill="#d8ecfa" stroke="black" d="M1181.12,-706.5C1181.12,-706.5 1002.38,-706.5 1002.38,-706.5 996.38,-706.5 990.38,-700.5 990.38,-694.5 990.38,-694.5 990.38,-628 990.38,-628 990.38,-622 996.38,-616 1002.38,-616 1002.38,-616 1181.12,-616 1181.12,-616 1187.12,-616 1193.12,-622 1193.12,-628 1193.12,-628 1193.12,-694.5 1193.12,-694.5 1193.12,-700.5 1187.12,-706.5 1181.12,-706.5"/>
<text text-anchor="start" x="998.38" y="-689.2" font-family="Helvetica,sans-Serif" font-size="14.00">numeric__stem&#45;width ≤ 8.555</text>
<text text-anchor="start" x="1054.62" y="-672.7" font-family="Helvetica,sans-Serif" font-size="14.00">gini = 0.494</text>
<text text-anchor="start" x="1036.25" y="-656.2" font-family="Helvetica,sans-Serif" font-size="14.00">samples = 48855</text>
<text text-anchor="start" x="1018.62" y="-639.7" font-family="Helvetica,sans-Serif" font-size="14.00">value = [21745, 27110]</text>
<text text-anchor="start" x="1034.38" y="-623.2" font-family="Helvetica,sans-Serif" font-size="14.00">class = poisonous</text>
</g>
<!-- 1 -->
<g id="node2" class="node">
<title>1</title>
<path fill="#93c9f1" stroke="black" d="M1014,-580C1014,-580 813.5,-580 813.5,-580 807.5,-580 801.5,-574 801.5,-568 801.5,-568 801.5,-501.5 801.5,-501.5 801.5,-495.5 807.5,-489.5 813.5,-489.5 813.5,-489.5 1014,-489.5 1014,-489.5 1020,-489.5 1026,-495.5 1026,-501.5 1026,-501.5 1026,-568 1026,-568 1026,-574 1020,-580 1014,-580"/>
<text text-anchor="start" x="809.5" y="-562.7" font-family="Helvetica,sans-Serif" font-size="14.00">categorical__gill&#45;spacing_d ≤ 0.5</text>
<text text-anchor="start" x="876.62" y="-546.2" font-family="Helvetica,sans-Serif" font-size="14.00">gini = 0.429</text>
<text text-anchor="start" x="858.25" y="-529.7" font-family="Helvetica,sans-Serif" font-size="14.00">samples = 21370</text>
<text text-anchor="start" x="832.75" y="-513.2" font-family="Helvetica,sans-Serif" font-size="14.00">value = [6671.0, 14699.0]</text>
<text text-anchor="start" x="856.38" y="-496.7" font-family="Helvetica,sans-Serif" font-size="14.00">class = poisonous</text>
</g>
<!-- 0&#45;&gt;1 -->
<g id="edge1" class="edge">
<title>0&#45;&gt;1</title>
<path fill="none" stroke="black" d="M1027.99,-615.65C1014.7,-606.36 1000.59,-596.49 986.98,-586.97"/>
<polygon fill="black" stroke="black" points="989.1,-584.18 978.9,-581.32 985.09,-589.92 989.1,-584.18"/>
<text text-anchor="middle" x="982.02" y="-600.02" font-family="Helvetica,sans-Serif" font-size="14.00">True</text>
</g>
<!-- 18 -->
<g id="node19" class="node">
<title>18</title>
<path fill="#fae9dc" stroke="black" d="M1414.75,-580C1414.75,-580 1224.75,-580 1224.75,-580 1218.75,-580 1212.75,-574 1212.75,-568 1212.75,-568 1212.75,-501.5 1212.75,-501.5 1212.75,-495.5 1218.75,-489.5 1224.75,-489.5 1224.75,-489.5 1414.75,-489.5 1414.75,-489.5 1420.75,-489.5 1426.75,-495.5 1426.75,-501.5 1426.75,-501.5 1426.75,-568 1426.75,-568 1426.75,-574 1420.75,-580 1414.75,-580"/>
<text text-anchor="start" x="1220.75" y="-562.7" font-family="Helvetica,sans-Serif" font-size="14.00">categorical__stem&#45;root_b ≤ 0.5</text>
<text text-anchor="start" x="1282.62" y="-546.2" font-family="Helvetica,sans-Serif" font-size="14.00">gini = 0.495</text>
<text text-anchor="start" x="1264.25" y="-529.7" font-family="Helvetica,sans-Serif" font-size="14.00">samples = 27485</text>
<text text-anchor="start" x="1246.62" y="-513.2" font-family="Helvetica,sans-Serif" font-size="14.00">value = [15074, 12411]</text>
<text text-anchor="start" x="1275.88" y="-496.7" font-family="Helvetica,sans-Serif" font-size="14.00">class = edible</text>
</g>
<!-- 0&#45;&gt;18 -->
<g id="edge18" class="edge">
<title>0&#45;&gt;18</title>
<path fill="none" stroke="black" d="M1173.42,-615.65C1191.1,-606 1209.91,-595.73 1227.95,-585.88"/>
<polygon fill="black" stroke="black" points="1229.46,-589.04 1236.56,-581.18 1226.1,-582.9 1229.46,-589.04"/>
<text text-anchor="middle" x="1230.84" y="-599.39" font-family="Helvetica,sans-Serif" font-size="14.00">False</text>
</g>
<!-- 2 -->
<g id="node3" class="node">
<title>2</title>
<path fill="#79bded" stroke="black" d="M718.88,-453.5C718.88,-453.5 520.62,-453.5 520.62,-453.5 514.62,-453.5 508.62,-447.5 508.62,-441.5 508.62,-441.5 508.62,-375 508.62,-375 508.62,-369 514.62,-363 520.62,-363 520.62,-363 718.88,-363 718.88,-363 724.88,-363 730.88,-369 730.88,-375 730.88,-375 730.88,-441.5 730.88,-441.5 730.88,-447.5 724.88,-453.5 718.88,-453.5"/>
<text text-anchor="start" x="516.62" y="-436.2" font-family="Helvetica,sans-Serif" font-size="14.00">categorical__stem&#45;color_w ≤ 0.5</text>
<text text-anchor="start" x="582.62" y="-419.7" font-family="Helvetica,sans-Serif" font-size="14.00">gini = 0.369</text>
<text text-anchor="start" x="564.25" y="-403.2" font-family="Helvetica,sans-Serif" font-size="14.00">samples = 17960</text>
<text text-anchor="start" x="550.75" y="-386.7" font-family="Helvetica,sans-Serif" font-size="14.00">value = [4384, 13576]</text>
<text text-anchor="start" x="562.38" y="-370.2" font-family="Helvetica,sans-Serif" font-size="14.00">class = poisonous</text>
</g>
<!-- 1&#45;&gt;2 -->
<g id="edge2" class="edge">
<title>1&#45;&gt;2</title>
<path fill="none" stroke="black" d="M808.44,-489.15C784.9,-479.19 759.81,-468.56 735.86,-458.42"/>
<polygon fill="black" stroke="black" points="737.28,-455.22 726.71,-454.54 734.55,-461.67 737.28,-455.22"/>
</g>
<!-- 13 -->
<g id="node14" class="node">
<title>13</title>
<path fill="#f2bf9a" stroke="black" d="M1006.12,-453.5C1006.12,-453.5 821.38,-453.5 821.38,-453.5 815.38,-453.5 809.38,-447.5 809.38,-441.5 809.38,-441.5 809.38,-375 809.38,-375 809.38,-369 815.38,-363 821.38,-363 821.38,-363 1006.12,-363 1006.12,-363 1012.12,-363 1018.12,-369 1018.12,-375 1018.12,-375 1018.12,-441.5 1018.12,-441.5 1018.12,-447.5 1012.12,-453.5 1006.12,-453.5"/>
<text text-anchor="start" x="817.38" y="-436.2" font-family="Helvetica,sans-Serif" font-size="14.00">numeric__stem&#45;height ≤ 3.815</text>
<text text-anchor="start" x="876.62" y="-419.7" font-family="Helvetica,sans-Serif" font-size="14.00">gini = 0.442</text>
<text text-anchor="start" x="862.38" y="-403.2" font-family="Helvetica,sans-Serif" font-size="14.00">samples = 3410</text>
<text text-anchor="start" x="848.88" y="-386.7" font-family="Helvetica,sans-Serif" font-size="14.00">value = [2287, 1123]</text>
<text text-anchor="start" x="869.88" y="-370.2" font-family="Helvetica,sans-Serif" font-size="14.00">class = edible</text>
</g>
<!-- 1&#45;&gt;13 -->
<g id="edge13" class="edge">
<title>1&#45;&gt;13</title>
<path fill="none" stroke="black" d="M913.75,-489.15C913.75,-481.47 913.75,-473.39 913.75,-465.44"/>
<polygon fill="black" stroke="black" points="917.25,-465.47 913.75,-455.47 910.25,-465.47 917.25,-465.47"/>
</g>
<!-- 3 -->
<g id="node4" class="node">
<title>3</title>
<path fill="#63b2ea" stroke="black" d="M446.88,-327C446.88,-327 242.62,-327 242.62,-327 236.62,-327 230.62,-321 230.62,-315 230.62,-315 230.62,-248.5 230.62,-248.5 230.62,-242.5 236.62,-236.5 242.62,-236.5 242.62,-236.5 446.88,-236.5 446.88,-236.5 452.88,-236.5 458.88,-242.5 458.88,-248.5 458.88,-248.5 458.88,-315 458.88,-315 458.88,-321 452.88,-327 446.88,-327"/>
<text text-anchor="start" x="238.62" y="-309.7" font-family="Helvetica,sans-Serif" font-size="14.00">categorical__cap&#45;surface_g ≤ 0.5</text>
<text text-anchor="start" x="307.62" y="-293.2" font-family="Helvetica,sans-Serif" font-size="14.00">gini = 0.287</text>
<text text-anchor="start" x="289.25" y="-276.7" font-family="Helvetica,sans-Serif" font-size="14.00">samples = 13173</text>
<text text-anchor="start" x="275.75" y="-260.2" font-family="Helvetica,sans-Serif" font-size="14.00">value = [2284, 10889]</text>
<text text-anchor="start" x="287.38" y="-243.7" font-family="Helvetica,sans-Serif" font-size="14.00">class = poisonous</text>
</g>
<!-- 2&#45;&gt;3 -->
<g id="edge3" class="edge">
<title>2&#45;&gt;3</title>
<path fill="none" stroke="black" d="M521.25,-362.65C499.43,-352.78 476.18,-342.25 453.96,-332.19"/>
<polygon fill="black" stroke="black" points="455.42,-329.01 444.87,-328.08 452.54,-335.39 455.42,-329.01"/>
</g>
<!-- 8 -->
<g id="node9" class="node">
<title>8</title>
<path fill="#d4eaf9" stroke="black" d="M705,-327C705,-327 534.5,-327 534.5,-327 528.5,-327 522.5,-321 522.5,-315 522.5,-315 522.5,-248.5 522.5,-248.5 522.5,-242.5 528.5,-236.5 534.5,-236.5 534.5,-236.5 705,-236.5 705,-236.5 711,-236.5 717,-242.5 717,-248.5 717,-248.5 717,-315 717,-315 717,-321 711,-327 705,-327"/>
<text text-anchor="start" x="530.5" y="-309.7" font-family="Helvetica,sans-Serif" font-size="14.00">categorical__habitat_d ≤ 0.5</text>
<text text-anchor="start" x="582.62" y="-293.2" font-family="Helvetica,sans-Serif" font-size="14.00">gini = 0.492</text>
<text text-anchor="start" x="568.38" y="-276.7" font-family="Helvetica,sans-Serif" font-size="14.00">samples = 4787</text>
<text text-anchor="start" x="554.88" y="-260.2" font-family="Helvetica,sans-Serif" font-size="14.00">value = [2100, 2687]</text>
<text text-anchor="start" x="562.38" y="-243.7" font-family="Helvetica,sans-Serif" font-size="14.00">class = poisonous</text>
</g>
<!-- 2&#45;&gt;8 -->
<g id="edge8" class="edge">
<title>2&#45;&gt;8</title>
<path fill="none" stroke="black" d="M619.75,-362.65C619.75,-354.97 619.75,-346.89 619.75,-338.94"/>
<polygon fill="black" stroke="black" points="623.25,-338.97 619.75,-328.97 616.25,-338.97 623.25,-338.97"/>
</g>
<!-- 4 -->
<g id="node5" class="node">
<title>4</title>
<path fill="#59ade9" stroke="black" d="M238.12,-200.5C238.12,-200.5 59.38,-200.5 59.38,-200.5 53.38,-200.5 47.38,-194.5 47.38,-188.5 47.38,-188.5 47.38,-122 47.38,-122 47.38,-116 53.38,-110 59.38,-110 59.38,-110 238.12,-110 238.12,-110 244.12,-110 250.12,-116 250.12,-122 250.12,-122 250.12,-188.5 250.12,-188.5 250.12,-194.5 244.12,-200.5 238.12,-200.5"/>
<text text-anchor="start" x="55.38" y="-183.2" font-family="Helvetica,sans-Serif" font-size="14.00">numeric__stem&#45;width ≤ 5.225</text>
<text text-anchor="start" x="111.62" y="-166.7" font-family="Helvetica,sans-Serif" font-size="14.00">gini = 0.241</text>
<text text-anchor="start" x="93.25" y="-150.2" font-family="Helvetica,sans-Serif" font-size="14.00">samples = 11660</text>
<text text-anchor="start" x="79.75" y="-133.7" font-family="Helvetica,sans-Serif" font-size="14.00">value = [1631, 10029]</text>
<text text-anchor="start" x="91.38" y="-117.2" font-family="Helvetica,sans-Serif" font-size="14.00">class = poisonous</text>
</g>
<!-- 3&#45;&gt;4 -->
<g id="edge4" class="edge">
<title>3&#45;&gt;4</title>
<path fill="none" stroke="black" d="M274.54,-236.15C259.62,-226.68 243.77,-216.61 228.53,-206.92"/>
<polygon fill="black" stroke="black" points="230.72,-204.17 220.4,-201.76 226.97,-210.08 230.72,-204.17"/>
</g>
<!-- 7 -->
<g id="node8" class="node">
<title>7</title>
<path fill="#cfe7f9" stroke="black" d="M409.38,-192.25C409.38,-192.25 280.12,-192.25 280.12,-192.25 274.12,-192.25 268.12,-186.25 268.12,-180.25 268.12,-180.25 268.12,-130.25 268.12,-130.25 268.12,-124.25 274.12,-118.25 280.12,-118.25 280.12,-118.25 409.38,-118.25 409.38,-118.25 415.38,-118.25 421.38,-124.25 421.38,-130.25 421.38,-130.25 421.38,-180.25 421.38,-180.25 421.38,-186.25 415.38,-192.25 409.38,-192.25"/>
<text text-anchor="start" x="307.62" y="-174.95" font-family="Helvetica,sans-Serif" font-size="14.00">gini = 0.491</text>
<text text-anchor="start" x="293.38" y="-158.45" font-family="Helvetica,sans-Serif" font-size="14.00">samples = 1513</text>
<text text-anchor="start" x="276.12" y="-141.95" font-family="Helvetica,sans-Serif" font-size="14.00">value = [653.0, 860.0]</text>
<text text-anchor="start" x="287.38" y="-125.45" font-family="Helvetica,sans-Serif" font-size="14.00">class = poisonous</text>
</g>
<!-- 3&#45;&gt;7 -->
<g id="edge7" class="edge">
<title>3&#45;&gt;7</title>
<path fill="none" stroke="black" d="M344.75,-236.15C344.75,-225.6 344.75,-214.31 344.75,-203.63"/>
<polygon fill="black" stroke="black" points="348.25,-203.87 344.75,-193.87 341.25,-203.87 348.25,-203.87"/>
</g>
<!-- 5 -->
<g id="node6" class="node">
<title>5</title>
<path fill="#42a2e6" stroke="black" d="M125.5,-74C125.5,-74 12,-74 12,-74 6,-74 0,-68 0,-62 0,-62 0,-12 0,-12 0,-6 6,0 12,0 12,0 125.5,0 125.5,0 131.5,0 137.5,-6 137.5,-12 137.5,-12 137.5,-62 137.5,-62 137.5,-68 131.5,-74 125.5,-74"/>
<text text-anchor="start" x="31.62" y="-56.7" font-family="Helvetica,sans-Serif" font-size="14.00">gini = 0.085</text>
<text text-anchor="start" x="17.38" y="-40.2" font-family="Helvetica,sans-Serif" font-size="14.00">samples = 5744</text>
<text text-anchor="start" x="8" y="-23.7" font-family="Helvetica,sans-Serif" font-size="14.00">value = [254, 5490]</text>
<text text-anchor="start" x="11.38" y="-7.2" font-family="Helvetica,sans-Serif" font-size="14.00">class = poisonous</text>
</g>
<!-- 4&#45;&gt;5 -->
<g id="edge5" class="edge">
<title>4&#45;&gt;5</title>
<path fill="none" stroke="black" d="M118.05,-109.64C112.22,-101.17 106.12,-92.3 100.27,-83.8"/>
<polygon fill="black" stroke="black" points="103.21,-81.89 94.65,-75.64 97.44,-85.86 103.21,-81.89"/>
</g>
<!-- 6 -->
<g id="node7" class="node">
<title>6</title>
<path fill="#75bbed" stroke="black" d="M289.62,-74C289.62,-74 167.88,-74 167.88,-74 161.88,-74 155.88,-68 155.88,-62 155.88,-62 155.88,-12 155.88,-12 155.88,-6 161.88,0 167.88,0 167.88,0 289.62,0 289.62,0 295.62,0 301.62,-6 301.62,-12 301.62,-12 301.62,-62 301.62,-62 301.62,-68 295.62,-74 289.62,-74"/>
<text text-anchor="start" x="191.62" y="-56.7" font-family="Helvetica,sans-Serif" font-size="14.00">gini = 0.357</text>
<text text-anchor="start" x="177.38" y="-40.2" font-family="Helvetica,sans-Serif" font-size="14.00">samples = 5916</text>
<text text-anchor="start" x="163.88" y="-23.7" font-family="Helvetica,sans-Serif" font-size="14.00">value = [1377, 4539]</text>
<text text-anchor="start" x="171.38" y="-7.2" font-family="Helvetica,sans-Serif" font-size="14.00">class = poisonous</text>
</g>
<!-- 4&#45;&gt;6 -->
<g id="edge6" class="edge">
<title>4&#45;&gt;6</title>
<path fill="none" stroke="black" d="M179.45,-109.64C185.28,-101.17 191.38,-92.3 197.23,-83.8"/>
<polygon fill="black" stroke="black" points="200.06,-85.86 202.85,-75.64 194.29,-81.89 200.06,-85.86"/>
</g>
<!-- 9 -->
<g id="node10" class="node">
<title>9</title>
<path fill="#6ab5eb" stroke="black" d="M564.5,-192.25C564.5,-192.25 451,-192.25 451,-192.25 445,-192.25 439,-186.25 439,-180.25 439,-180.25 439,-130.25 439,-130.25 439,-124.25 445,-118.25 451,-118.25 451,-118.25 564.5,-118.25 564.5,-118.25 570.5,-118.25 576.5,-124.25 576.5,-130.25 576.5,-130.25 576.5,-180.25 576.5,-180.25 576.5,-186.25 570.5,-192.25 564.5,-192.25"/>
<text text-anchor="start" x="470.62" y="-174.95" font-family="Helvetica,sans-Serif" font-size="14.00">gini = 0.318</text>
<text text-anchor="start" x="456.38" y="-158.45" font-family="Helvetica,sans-Serif" font-size="14.00">samples = 1379</text>
<text text-anchor="start" x="447" y="-141.95" font-family="Helvetica,sans-Serif" font-size="14.00">value = [273, 1106]</text>
<text text-anchor="start" x="450.38" y="-125.45" font-family="Helvetica,sans-Serif" font-size="14.00">class = poisonous</text>
</g>
<!-- 8&#45;&gt;9 -->
<g id="edge9" class="edge">
<title>8&#45;&gt;9</title>
<path fill="none" stroke="black" d="M579.63,-236.15C569.23,-224.59 558.02,-212.14 547.63,-200.58"/>
<polygon fill="black" stroke="black" points="550.53,-198.57 541.24,-193.48 545.33,-203.26 550.53,-198.57"/>
</g>
<!-- 10 -->
<g id="node11" class="node">
<title>10</title>
<path fill="#fbeee4" stroke="black" d="M794.62,-200.5C794.62,-200.5 606.88,-200.5 606.88,-200.5 600.88,-200.5 594.88,-194.5 594.88,-188.5 594.88,-188.5 594.88,-122 594.88,-122 594.88,-116 600.88,-110 606.88,-110 606.88,-110 794.62,-110 794.62,-110 800.62,-110 806.62,-116 806.62,-122 806.62,-122 806.62,-188.5 806.62,-188.5 806.62,-194.5 800.62,-200.5 794.62,-200.5"/>
<text text-anchor="start" x="602.88" y="-183.2" font-family="Helvetica,sans-Serif" font-size="14.00">categorical__cap&#45;color_n ≤ 0.5</text>
<text text-anchor="start" x="663.62" y="-166.7" font-family="Helvetica,sans-Serif" font-size="14.00">gini = 0.497</text>
<text text-anchor="start" x="649.38" y="-150.2" font-family="Helvetica,sans-Serif" font-size="14.00">samples = 3408</text>
<text text-anchor="start" x="635.88" y="-133.7" font-family="Helvetica,sans-Serif" font-size="14.00">value = [1827, 1581]</text>
<text text-anchor="start" x="656.88" y="-117.2" font-family="Helvetica,sans-Serif" font-size="14.00">class = edible</text>
</g>
<!-- 8&#45;&gt;10 -->
<g id="edge10" class="edge">
<title>8&#45;&gt;10</title>
<path fill="none" stroke="black" d="M648.76,-236.15C654.17,-227.84 659.88,-219.07 665.45,-210.5"/>
<polygon fill="black" stroke="black" points="668.32,-212.51 670.84,-202.22 662.45,-208.69 668.32,-212.51"/>
</g>
<!-- 11 -->
<g id="node12" class="node">
<title>11</title>
<path fill="#d2e9f9" stroke="black" d="M673.5,-74C673.5,-74 560,-74 560,-74 554,-74 548,-68 548,-62 548,-62 548,-12 548,-12 548,-6 554,0 560,0 560,0 673.5,0 673.5,0 679.5,0 685.5,-6 685.5,-12 685.5,-12 685.5,-62 685.5,-62 685.5,-68 679.5,-74 673.5,-74"/>
<text text-anchor="start" x="579.62" y="-56.7" font-family="Helvetica,sans-Serif" font-size="14.00">gini = 0.492</text>
<text text-anchor="start" x="565.38" y="-40.2" font-family="Helvetica,sans-Serif" font-size="14.00">samples = 1885</text>
<text text-anchor="start" x="556" y="-23.7" font-family="Helvetica,sans-Serif" font-size="14.00">value = [821, 1064]</text>
<text text-anchor="start" x="559.38" y="-7.2" font-family="Helvetica,sans-Serif" font-size="14.00">class = poisonous</text>
</g>
<!-- 10&#45;&gt;11 -->
<g id="edge11" class="edge">
<title>10&#45;&gt;11</title>
<path fill="none" stroke="black" d="M668.51,-109.64C662.33,-101.08 655.85,-92.11 649.64,-83.52"/>
<polygon fill="black" stroke="black" points="652.63,-81.68 643.93,-75.62 646.95,-85.78 652.63,-81.68"/>
</g>
<!-- 12 -->
<g id="node13" class="node">
<title>12</title>
<path fill="#f2c29f" stroke="black" d="M853.5,-74C853.5,-74 716,-74 716,-74 710,-74 704,-68 704,-62 704,-62 704,-12 704,-12 704,-6 710,0 716,0 716,0 853.5,0 853.5,0 859.5,0 865.5,-6 865.5,-12 865.5,-12 865.5,-62 865.5,-62 865.5,-68 859.5,-74 853.5,-74"/>
<text text-anchor="start" x="747.62" y="-56.7" font-family="Helvetica,sans-Serif" font-size="14.00">gini = 0.448</text>
<text text-anchor="start" x="733.38" y="-40.2" font-family="Helvetica,sans-Serif" font-size="14.00">samples = 1523</text>
<text text-anchor="start" x="712" y="-23.7" font-family="Helvetica,sans-Serif" font-size="14.00">value = [1006.0, 517.0]</text>
<text text-anchor="start" x="740.88" y="-7.2" font-family="Helvetica,sans-Serif" font-size="14.00">class = edible</text>
</g>
<!-- 10&#45;&gt;12 -->
<g id="edge12" class="edge">
<title>10&#45;&gt;12</title>
<path fill="none" stroke="black" d="M732.99,-109.64C739.17,-101.08 745.65,-92.11 751.86,-83.52"/>
<polygon fill="black" stroke="black" points="754.55,-85.78 757.57,-75.62 748.87,-81.68 754.55,-85.78"/>
</g>
<!-- 14 -->
<g id="node15" class="node">
<title>14</title>
<path fill="#78bced" stroke="black" d="M864.12,-318.75C864.12,-318.75 757.38,-318.75 757.38,-318.75 751.38,-318.75 745.38,-312.75 745.38,-306.75 745.38,-306.75 745.38,-256.75 745.38,-256.75 745.38,-250.75 751.38,-244.75 757.38,-244.75 757.38,-244.75 864.12,-244.75 864.12,-244.75 870.12,-244.75 876.12,-250.75 876.12,-256.75 876.12,-256.75 876.12,-306.75 876.12,-306.75 876.12,-312.75 870.12,-318.75 864.12,-318.75"/>
<text text-anchor="start" x="773.62" y="-301.45" font-family="Helvetica,sans-Serif" font-size="14.00">gini = 0.367</text>
<text text-anchor="start" x="759.38" y="-284.95" font-family="Helvetica,sans-Serif" font-size="14.00">samples = 1002</text>
<text text-anchor="start" x="754.12" y="-268.45" font-family="Helvetica,sans-Serif" font-size="14.00">value = [243, 759]</text>
<text text-anchor="start" x="753.38" y="-251.95" font-family="Helvetica,sans-Serif" font-size="14.00">class = poisonous</text>
</g>
<!-- 13&#45;&gt;14 -->
<g id="edge14" class="edge">
<title>13&#45;&gt;14</title>
<path fill="none" stroke="black" d="M876.86,-362.65C867.38,-351.2 857.18,-338.88 847.71,-327.42"/>
<polygon fill="black" stroke="black" points="850.66,-325.5 841.59,-320.02 845.26,-329.96 850.66,-325.5"/>
</g>
<!-- 15 -->
<g id="node16" class="node">
<title>15</title>
<path fill="#ea975c" stroke="black" d="M1085.12,-327C1085.12,-327 906.38,-327 906.38,-327 900.38,-327 894.38,-321 894.38,-315 894.38,-315 894.38,-248.5 894.38,-248.5 894.38,-242.5 900.38,-236.5 906.38,-236.5 906.38,-236.5 1085.12,-236.5 1085.12,-236.5 1091.12,-236.5 1097.12,-242.5 1097.12,-248.5 1097.12,-248.5 1097.12,-315 1097.12,-315 1097.12,-321 1091.12,-327 1085.12,-327"/>
<text text-anchor="start" x="902.38" y="-309.7" font-family="Helvetica,sans-Serif" font-size="14.00">numeric__stem&#45;width ≤ 4.385</text>
<text text-anchor="start" x="958.62" y="-293.2" font-family="Helvetica,sans-Serif" font-size="14.00">gini = 0.257</text>
<text text-anchor="start" x="944.38" y="-276.7" font-family="Helvetica,sans-Serif" font-size="14.00">samples = 2408</text>
<text text-anchor="start" x="935" y="-260.2" font-family="Helvetica,sans-Serif" font-size="14.00">value = [2044, 364]</text>
<text text-anchor="start" x="951.88" y="-243.7" font-family="Helvetica,sans-Serif" font-size="14.00">class = edible</text>
</g>
<!-- 13&#45;&gt;15 -->
<g id="edge15" class="edge">
<title>13&#45;&gt;15</title>
<path fill="none" stroke="black" d="M943.12,-362.65C948.6,-354.34 954.38,-345.57 960.02,-337"/>
<polygon fill="black" stroke="black" points="962.9,-338.99 965.47,-328.72 957.05,-335.14 962.9,-338.99"/>
</g>
<!-- 16 -->
<g id="node17" class="node">
<title>16</title>
<path fill="#e78945" stroke="black" d="M942.38,-192.25C942.38,-192.25 837.12,-192.25 837.12,-192.25 831.12,-192.25 825.12,-186.25 825.12,-180.25 825.12,-180.25 825.12,-130.25 825.12,-130.25 825.12,-124.25 831.12,-118.25 837.12,-118.25 837.12,-118.25 942.38,-118.25 942.38,-118.25 948.38,-118.25 954.38,-124.25 954.38,-130.25 954.38,-130.25 954.38,-180.25 954.38,-180.25 954.38,-186.25 948.38,-192.25 942.38,-192.25"/>
<text text-anchor="start" x="856.75" y="-174.95" font-family="Helvetica,sans-Serif" font-size="14.00">gini = 0.11</text>
<text text-anchor="start" x="838.38" y="-158.45" font-family="Helvetica,sans-Serif" font-size="14.00">samples = 1335</text>
<text text-anchor="start" x="833.12" y="-141.95" font-family="Helvetica,sans-Serif" font-size="14.00">value = [1257, 78]</text>
<text text-anchor="start" x="845.88" y="-125.45" font-family="Helvetica,sans-Serif" font-size="14.00">class = edible</text>
</g>
<!-- 15&#45;&gt;16 -->
<g id="edge16" class="edge">
<title>15&#45;&gt;16</title>
<path fill="none" stroke="black" d="M957.78,-236.15C948.03,-224.7 937.54,-212.38 927.78,-200.92"/>
<polygon fill="black" stroke="black" points="930.62,-198.85 921.47,-193.51 925.29,-203.39 930.62,-198.85"/>
</g>
<!-- 17 -->
<g id="node18" class="node">
<title>17</title>
<path fill="#eeaf81" stroke="black" d="M1089.38,-192.25C1089.38,-192.25 984.12,-192.25 984.12,-192.25 978.12,-192.25 972.12,-186.25 972.12,-180.25 972.12,-180.25 972.12,-130.25 972.12,-130.25 972.12,-124.25 978.12,-118.25 984.12,-118.25 984.12,-118.25 1089.38,-118.25 1089.38,-118.25 1095.38,-118.25 1101.38,-124.25 1101.38,-130.25 1101.38,-130.25 1101.38,-180.25 1101.38,-180.25 1101.38,-186.25 1095.38,-192.25 1089.38,-192.25"/>
<text text-anchor="start" x="999.62" y="-174.95" font-family="Helvetica,sans-Serif" font-size="14.00">gini = 0.391</text>
<text text-anchor="start" x="985.38" y="-158.45" font-family="Helvetica,sans-Serif" font-size="14.00">samples = 1073</text>
<text text-anchor="start" x="980.12" y="-141.95" font-family="Helvetica,sans-Serif" font-size="14.00">value = [787, 286]</text>
<text text-anchor="start" x="992.88" y="-125.45" font-family="Helvetica,sans-Serif" font-size="14.00">class = edible</text>
</g>
<!-- 15&#45;&gt;17 -->
<g id="edge17" class="edge">
<title>15&#45;&gt;17</title>
<path fill="none" stroke="black" d="M1010.44,-236.15C1013.95,-225.49 1017.71,-214.06 1021.26,-203.29"/>
<polygon fill="black" stroke="black" points="1024.58,-204.39 1024.39,-193.79 1017.93,-202.2 1024.58,-204.39"/>
</g>
<!-- 19 -->
<g id="node20" class="node">
<title>19</title>
<path fill="#8ec7f0" stroke="black" d="M1420.75,-453.5C1420.75,-453.5 1218.75,-453.5 1218.75,-453.5 1212.75,-453.5 1206.75,-447.5 1206.75,-441.5 1206.75,-441.5 1206.75,-375 1206.75,-375 1206.75,-369 1212.75,-363 1218.75,-363 1218.75,-363 1420.75,-363 1420.75,-363 1426.75,-363 1432.75,-369 1432.75,-375 1432.75,-375 1432.75,-441.5 1432.75,-441.5 1432.75,-447.5 1426.75,-453.5 1420.75,-453.5"/>
<text text-anchor="start" x="1214.75" y="-436.2" font-family="Helvetica,sans-Serif" font-size="14.00">numeric__cap&#45;diameter ≤ 11.475</text>
<text text-anchor="start" x="1286.75" y="-419.7" font-family="Helvetica,sans-Serif" font-size="14.00">gini = 0.42</text>
<text text-anchor="start" x="1268.38" y="-403.2" font-family="Helvetica,sans-Serif" font-size="14.00">samples = 3712</text>
<text text-anchor="start" x="1254.88" y="-386.7" font-family="Helvetica,sans-Serif" font-size="14.00">value = [1115, 2597]</text>
<text text-anchor="start" x="1262.38" y="-370.2" font-family="Helvetica,sans-Serif" font-size="14.00">class = poisonous</text>
</g>
<!-- 18&#45;&gt;19 -->
<g id="edge19" class="edge">
<title>18&#45;&gt;19</title>
<path fill="none" stroke="black" d="M1319.75,-489.15C1319.75,-481.47 1319.75,-473.39 1319.75,-465.44"/>
<polygon fill="black" stroke="black" points="1323.25,-465.47 1319.75,-455.47 1316.25,-465.47 1323.25,-465.47"/>
</g>
<!-- 24 -->
<g id="node25" class="node">
<title>24</title>
<path fill="#f7dac4" stroke="black" d="M1777.75,-453.5C1777.75,-453.5 1557.75,-453.5 1557.75,-453.5 1551.75,-453.5 1545.75,-447.5 1545.75,-441.5 1545.75,-441.5 1545.75,-375 1545.75,-375 1545.75,-369 1551.75,-363 1557.75,-363 1557.75,-363 1777.75,-363 1777.75,-363 1783.75,-363 1789.75,-369 1789.75,-375 1789.75,-375 1789.75,-441.5 1789.75,-441.5 1789.75,-447.5 1783.75,-453.5 1777.75,-453.5"/>
<text text-anchor="start" x="1553.75" y="-436.2" font-family="Helvetica,sans-Serif" font-size="14.00">categorical__gill&#45;attachment_p ≤ 0.5</text>
<text text-anchor="start" x="1630.62" y="-419.7" font-family="Helvetica,sans-Serif" font-size="14.00">gini = 0.485</text>
<text text-anchor="start" x="1612.25" y="-403.2" font-family="Helvetica,sans-Serif" font-size="14.00">samples = 23773</text>
<text text-anchor="start" x="1598.75" y="-386.7" font-family="Helvetica,sans-Serif" font-size="14.00">value = [13959, 9814]</text>
<text text-anchor="start" x="1623.88" y="-370.2" font-family="Helvetica,sans-Serif" font-size="14.00">class = edible</text>
</g>
<!-- 18&#45;&gt;24 -->
<g id="edge24" class="edge">
<title>18&#45;&gt;24</title>
<path fill="none" stroke="black" d="M1427,-495.38C1461.08,-483.19 1499.19,-469.55 1534.85,-456.79"/>
<polygon fill="black" stroke="black" points="1535.68,-460.22 1543.91,-453.55 1533.32,-453.63 1535.68,-460.22"/>
</g>
<!-- 20 -->
<g id="node21" class="node">
<title>20</title>
<path fill="#46a3e7" stroke="black" d="M1319.25,-327C1319.25,-327 1132.25,-327 1132.25,-327 1126.25,-327 1120.25,-321 1120.25,-315 1120.25,-315 1120.25,-248.5 1120.25,-248.5 1120.25,-242.5 1126.25,-236.5 1132.25,-236.5 1132.25,-236.5 1319.25,-236.5 1319.25,-236.5 1325.25,-236.5 1331.25,-242.5 1331.25,-248.5 1331.25,-248.5 1331.25,-315 1331.25,-315 1331.25,-321 1325.25,-327 1319.25,-327"/>
<text text-anchor="start" x="1128.25" y="-309.7" font-family="Helvetica,sans-Serif" font-size="14.00">numeric__stem&#45;width ≤ 16.205</text>
<text text-anchor="start" x="1188.62" y="-293.2" font-family="Helvetica,sans-Serif" font-size="14.00">gini = 0.113</text>
<text text-anchor="start" x="1174.38" y="-276.7" font-family="Helvetica,sans-Serif" font-size="14.00">samples = 2094</text>
<text text-anchor="start" x="1165" y="-260.2" font-family="Helvetica,sans-Serif" font-size="14.00">value = [126, 1968]</text>
<text text-anchor="start" x="1168.38" y="-243.7" font-family="Helvetica,sans-Serif" font-size="14.00">class = poisonous</text>
</g>
<!-- 19&#45;&gt;20 -->
<g id="edge20" class="edge">
<title>19&#45;&gt;20</title>
<path fill="none" stroke="black" d="M1286.08,-362.65C1279.67,-354.16 1272.89,-345.19 1266.29,-336.45"/>
<polygon fill="black" stroke="black" points="1269.23,-334.53 1260.41,-328.66 1263.65,-338.75 1269.23,-334.53"/>
</g>
<!-- 23 -->
<g id="node24" class="node">
<title>23</title>
<path fill="#f6d1b7" stroke="black" d="M1466.38,-318.75C1466.38,-318.75 1361.12,-318.75 1361.12,-318.75 1355.12,-318.75 1349.12,-312.75 1349.12,-306.75 1349.12,-306.75 1349.12,-256.75 1349.12,-256.75 1349.12,-250.75 1355.12,-244.75 1361.12,-244.75 1361.12,-244.75 1466.38,-244.75 1466.38,-244.75 1472.38,-244.75 1478.38,-250.75 1478.38,-256.75 1478.38,-256.75 1478.38,-306.75 1478.38,-306.75 1478.38,-312.75 1472.38,-318.75 1466.38,-318.75"/>
<text text-anchor="start" x="1376.62" y="-301.45" font-family="Helvetica,sans-Serif" font-size="14.00">gini = 0.475</text>
<text text-anchor="start" x="1362.38" y="-284.95" font-family="Helvetica,sans-Serif" font-size="14.00">samples = 1618</text>
<text text-anchor="start" x="1357.12" y="-268.45" font-family="Helvetica,sans-Serif" font-size="14.00">value = [989, 629]</text>
<text text-anchor="start" x="1369.88" y="-251.95" font-family="Helvetica,sans-Serif" font-size="14.00">class = edible</text>
</g>
<!-- 19&#45;&gt;23 -->
<g id="edge23" class="edge">
<title>19&#45;&gt;23</title>
<path fill="none" stroke="black" d="M1353.42,-362.65C1361.98,-351.31 1371.19,-339.12 1379.77,-327.76"/>
<polygon fill="black" stroke="black" points="1382.34,-330.15 1385.58,-320.06 1376.76,-325.94 1382.34,-330.15"/>
</g>
<!-- 21 -->
<g id="node22" class="node">
<title>21</title>
<path fill="#3b9ee5" stroke="black" d="M1238.12,-192.25C1238.12,-192.25 1131.38,-192.25 1131.38,-192.25 1125.38,-192.25 1119.38,-186.25 1119.38,-180.25 1119.38,-180.25 1119.38,-130.25 1119.38,-130.25 1119.38,-124.25 1125.38,-118.25 1131.38,-118.25 1131.38,-118.25 1238.12,-118.25 1238.12,-118.25 1244.12,-118.25 1250.12,-124.25 1250.12,-130.25 1250.12,-130.25 1250.12,-180.25 1250.12,-180.25 1250.12,-186.25 1244.12,-192.25 1238.12,-192.25"/>
<text text-anchor="start" x="1147.62" y="-174.95" font-family="Helvetica,sans-Serif" font-size="14.00">gini = 0.017</text>
<text text-anchor="start" x="1133.38" y="-158.45" font-family="Helvetica,sans-Serif" font-size="14.00">samples = 1050</text>
<text text-anchor="start" x="1132.25" y="-141.95" font-family="Helvetica,sans-Serif" font-size="14.00">value = [9, 1041]</text>
<text text-anchor="start" x="1127.38" y="-125.45" font-family="Helvetica,sans-Serif" font-size="14.00">class = poisonous</text>
</g>
<!-- 20&#45;&gt;21 -->
<g id="edge21" class="edge">
<title>20&#45;&gt;21</title>
<path fill="none" stroke="black" d="M1211.06,-236.15C1207.55,-225.49 1203.79,-214.06 1200.24,-203.29"/>
<polygon fill="black" stroke="black" points="1203.57,-202.2 1197.11,-193.79 1196.92,-204.39 1203.57,-202.2"/>
</g>
<!-- 22 -->
<g id="node23" class="node">
<title>22</title>
<path fill="#52a9e8" stroke="black" d="M1387.12,-192.25C1387.12,-192.25 1280.38,-192.25 1280.38,-192.25 1274.38,-192.25 1268.38,-186.25 1268.38,-180.25 1268.38,-180.25 1268.38,-130.25 1268.38,-130.25 1268.38,-124.25 1274.38,-118.25 1280.38,-118.25 1280.38,-118.25 1387.12,-118.25 1387.12,-118.25 1393.12,-118.25 1399.12,-124.25 1399.12,-130.25 1399.12,-130.25 1399.12,-180.25 1399.12,-180.25 1399.12,-186.25 1393.12,-192.25 1387.12,-192.25"/>
<text text-anchor="start" x="1296.62" y="-174.95" font-family="Helvetica,sans-Serif" font-size="14.00">gini = 0.199</text>
<text text-anchor="start" x="1282.38" y="-158.45" font-family="Helvetica,sans-Serif" font-size="14.00">samples = 1044</text>
<text text-anchor="start" x="1277.12" y="-141.95" font-family="Helvetica,sans-Serif" font-size="14.00">value = [117, 927]</text>
<text text-anchor="start" x="1276.38" y="-125.45" font-family="Helvetica,sans-Serif" font-size="14.00">class = poisonous</text>
</g>
<!-- 20&#45;&gt;22 -->
<g id="edge22" class="edge">
<title>20&#45;&gt;22</title>
<path fill="none" stroke="black" d="M1264.44,-236.15C1274.37,-224.7 1285.06,-212.38 1295,-200.92"/>
<polygon fill="black" stroke="black" points="1297.53,-203.35 1301.44,-193.5 1292.24,-198.76 1297.53,-203.35"/>
</g>
<!-- 25 -->
<g id="node26" class="node">
<title>25</title>
<path fill="#fbece1" stroke="black" d="M1769.5,-327C1769.5,-327 1566,-327 1566,-327 1560,-327 1554,-321 1554,-315 1554,-315 1554,-248.5 1554,-248.5 1554,-242.5 1560,-236.5 1566,-236.5 1566,-236.5 1769.5,-236.5 1769.5,-236.5 1775.5,-236.5 1781.5,-242.5 1781.5,-248.5 1781.5,-248.5 1781.5,-315 1781.5,-315 1781.5,-321 1775.5,-327 1769.5,-327"/>
<text text-anchor="start" x="1562" y="-309.7" font-family="Helvetica,sans-Serif" font-size="14.00">categorical__cap&#45;surface_s ≤ 0.5</text>
<text text-anchor="start" x="1630.62" y="-293.2" font-family="Helvetica,sans-Serif" font-size="14.00">gini = 0.497</text>
<text text-anchor="start" x="1612.25" y="-276.7" font-family="Helvetica,sans-Serif" font-size="14.00">samples = 20140</text>
<text text-anchor="start" x="1598.75" y="-260.2" font-family="Helvetica,sans-Serif" font-size="14.00">value = [10884, 9256]</text>
<text text-anchor="start" x="1623.88" y="-243.7" font-family="Helvetica,sans-Serif" font-size="14.00">class = edible</text>
</g>
<!-- 24&#45;&gt;25 -->
<g id="edge25" class="edge">
<title>24&#45;&gt;25</title>
<path fill="none" stroke="black" d="M1667.75,-362.65C1667.75,-354.97 1667.75,-346.89 1667.75,-338.94"/>
<polygon fill="black" stroke="black" points="1671.25,-338.97 1667.75,-328.97 1664.25,-338.97 1671.25,-338.97"/>
</g>
<!-- 32 -->
<g id="node33" class="node">
<title>32</title>
<path fill="#ea985d" stroke="black" d="M2096.25,-327C2096.25,-327 1909.25,-327 1909.25,-327 1903.25,-327 1897.25,-321 1897.25,-315 1897.25,-315 1897.25,-248.5 1897.25,-248.5 1897.25,-242.5 1903.25,-236.5 1909.25,-236.5 1909.25,-236.5 2096.25,-236.5 2096.25,-236.5 2102.25,-236.5 2108.25,-242.5 2108.25,-248.5 2108.25,-248.5 2108.25,-315 2108.25,-315 2108.25,-321 2102.25,-327 2096.25,-327"/>
<text text-anchor="start" x="1905.25" y="-309.7" font-family="Helvetica,sans-Serif" font-size="14.00">numeric__stem&#45;width ≤ 24.405</text>
<text text-anchor="start" x="1969.75" y="-293.2" font-family="Helvetica,sans-Serif" font-size="14.00">gini = 0.26</text>
<text text-anchor="start" x="1951.38" y="-276.7" font-family="Helvetica,sans-Serif" font-size="14.00">samples = 3633</text>
<text text-anchor="start" x="1942" y="-260.2" font-family="Helvetica,sans-Serif" font-size="14.00">value = [3075, 558]</text>
<text text-anchor="start" x="1958.88" y="-243.7" font-family="Helvetica,sans-Serif" font-size="14.00">class = edible</text>
</g>
<!-- 24&#45;&gt;32 -->
<g id="edge32" class="edge">
<title>24&#45;&gt;32</title>
<path fill="none" stroke="black" d="M1787.75,-362.65C1819.79,-350.74 1854.37,-337.89 1886.23,-326.05"/>
<polygon fill="black" stroke="black" points="1887.35,-329.37 1895.5,-322.61 1884.91,-322.81 1887.35,-329.37"/>
</g>
<!-- 26 -->
<g id="node27" class="node">
<title>26</title>
<path fill="#f6fbfe" stroke="black" d="M1640.62,-200.5C1640.62,-200.5 1428.88,-200.5 1428.88,-200.5 1422.88,-200.5 1416.88,-194.5 1416.88,-188.5 1416.88,-188.5 1416.88,-122 1416.88,-122 1416.88,-116 1422.88,-110 1428.88,-110 1428.88,-110 1640.62,-110 1640.62,-110 1646.62,-110 1652.62,-116 1652.62,-122 1652.62,-122 1652.62,-188.5 1652.62,-188.5 1652.62,-194.5 1646.62,-200.5 1640.62,-200.5"/>
<text text-anchor="start" x="1424.88" y="-183.2" font-family="Helvetica,sans-Serif" font-size="14.00">categorical__stem&#45;surface_s ≤ 0.5</text>
<text text-anchor="start" x="1505.88" y="-166.7" font-family="Helvetica,sans-Serif" font-size="14.00">gini = 0.5</text>
<text text-anchor="start" x="1479.25" y="-150.2" font-family="Helvetica,sans-Serif" font-size="14.00">samples = 17214</text>
<text text-anchor="start" x="1469.88" y="-133.7" font-family="Helvetica,sans-Serif" font-size="14.00">value = [8415, 8799]</text>
<text text-anchor="start" x="1477.38" y="-117.2" font-family="Helvetica,sans-Serif" font-size="14.00">class = poisonous</text>
</g>
<!-- 25&#45;&gt;26 -->
<g id="edge26" class="edge">
<title>25&#45;&gt;26</title>
<path fill="none" stroke="black" d="M1620.11,-236.15C1610.56,-227.21 1600.44,-217.75 1590.64,-208.57"/>
<polygon fill="black" stroke="black" points="1593.3,-206.27 1583.61,-201.99 1588.52,-211.38 1593.3,-206.27"/>
</g>
<!-- 29 -->
<g id="node30" class="node">
<title>29</title>
<path fill="#ea985e" stroke="black" d="M1866.75,-200.5C1866.75,-200.5 1682.75,-200.5 1682.75,-200.5 1676.75,-200.5 1670.75,-194.5 1670.75,-188.5 1670.75,-188.5 1670.75,-122 1670.75,-122 1670.75,-116 1676.75,-110 1682.75,-110 1682.75,-110 1866.75,-110 1866.75,-110 1872.75,-110 1878.75,-116 1878.75,-122 1878.75,-122 1878.75,-188.5 1878.75,-188.5 1878.75,-194.5 1872.75,-200.5 1866.75,-200.5"/>
<text text-anchor="start" x="1678.75" y="-183.2" font-family="Helvetica,sans-Serif" font-size="14.00">categorical__gill&#45;color_w ≤ 0.5</text>
<text text-anchor="start" x="1737.62" y="-166.7" font-family="Helvetica,sans-Serif" font-size="14.00">gini = 0.264</text>
<text text-anchor="start" x="1723.38" y="-150.2" font-family="Helvetica,sans-Serif" font-size="14.00">samples = 2926</text>
<text text-anchor="start" x="1702" y="-133.7" font-family="Helvetica,sans-Serif" font-size="14.00">value = [2469.0, 457.0]</text>
<text text-anchor="start" x="1730.88" y="-117.2" font-family="Helvetica,sans-Serif" font-size="14.00">class = edible</text>
</g>
<!-- 25&#45;&gt;29 -->
<g id="edge29" class="edge">
<title>25&#45;&gt;29</title>
<path fill="none" stroke="black" d="M1706.08,-236.15C1713.45,-227.57 1721.25,-218.5 1728.84,-209.67"/>
<polygon fill="black" stroke="black" points="1731.48,-211.97 1735.34,-202.1 1726.17,-207.4 1731.48,-211.97"/>
</g>
<!-- 27 -->
<g id="node28" class="node">
<title>27</title>
<path fill="#6fb8ec" stroke="black" d="M1433.5,-74C1433.5,-74 1320,-74 1320,-74 1314,-74 1308,-68 1308,-62 1308,-62 1308,-12 1308,-12 1308,-6 1314,0 1320,0 1320,0 1433.5,0 1433.5,0 1439.5,0 1445.5,-6 1445.5,-12 1445.5,-12 1445.5,-62 1445.5,-62 1445.5,-68 1439.5,-74 1433.5,-74"/>
<text text-anchor="start" x="1339.62" y="-56.7" font-family="Helvetica,sans-Serif" font-size="14.00">gini = 0.338</text>
<text text-anchor="start" x="1325.38" y="-40.2" font-family="Helvetica,sans-Serif" font-size="14.00">samples = 3847</text>
<text text-anchor="start" x="1316" y="-23.7" font-family="Helvetica,sans-Serif" font-size="14.00">value = [827, 3020]</text>
<text text-anchor="start" x="1319.38" y="-7.2" font-family="Helvetica,sans-Serif" font-size="14.00">class = poisonous</text>
</g>
<!-- 26&#45;&gt;27 -->
<g id="edge27" class="edge">
<title>26&#45;&gt;27</title>
<path fill="none" stroke="black" d="M1474.11,-109.64C1461.37,-100.26 1447.95,-90.39 1435.28,-81.07"/>
<polygon fill="black" stroke="black" points="1437.56,-78.4 1427.43,-75.29 1433.41,-84.04 1437.56,-78.4"/>
</g>
<!-- 28 -->
<g id="node29" class="node">
<title>28</title>
<path fill="#f9e1d0" stroke="black" d="M1597.62,-74C1597.62,-74 1475.88,-74 1475.88,-74 1469.88,-74 1463.88,-68 1463.88,-62 1463.88,-62 1463.88,-12 1463.88,-12 1463.88,-6 1469.88,0 1475.88,0 1475.88,0 1597.62,0 1597.62,0 1603.62,0 1609.62,-6 1609.62,-12 1609.62,-12 1609.62,-62 1609.62,-62 1609.62,-68 1603.62,-74 1597.62,-74"/>
<text text-anchor="start" x="1499.62" y="-56.7" font-family="Helvetica,sans-Serif" font-size="14.00">gini = 0.491</text>
<text text-anchor="start" x="1481.25" y="-40.2" font-family="Helvetica,sans-Serif" font-size="14.00">samples = 13367</text>
<text text-anchor="start" x="1471.88" y="-23.7" font-family="Helvetica,sans-Serif" font-size="14.00">value = [7588, 5779]</text>
<text text-anchor="start" x="1492.88" y="-7.2" font-family="Helvetica,sans-Serif" font-size="14.00">class = edible</text>
</g>
<!-- 26&#45;&gt;28 -->
<g id="edge28" class="edge">
<title>26&#45;&gt;28</title>
<path fill="none" stroke="black" d="M1535.52,-109.64C1535.65,-101.81 1535.79,-93.63 1535.93,-85.72"/>
<polygon fill="black" stroke="black" points="1539.43,-85.97 1536.1,-75.91 1532.43,-85.85 1539.43,-85.97"/>
</g>
<!-- 30 -->
<g id="node31" class="node">
<title>30</title>
<path fill="#efb082" stroke="black" d="M1760.5,-74C1760.5,-74 1647,-74 1647,-74 1641,-74 1635,-68 1635,-62 1635,-62 1635,-12 1635,-12 1635,-6 1641,0 1647,0 1647,0 1760.5,0 1760.5,0 1766.5,0 1772.5,-6 1772.5,-12 1772.5,-12 1772.5,-62 1772.5,-62 1772.5,-68 1766.5,-74 1760.5,-74"/>
<text text-anchor="start" x="1666.62" y="-56.7" font-family="Helvetica,sans-Serif" font-size="14.00">gini = 0.395</text>
<text text-anchor="start" x="1652.38" y="-40.2" font-family="Helvetica,sans-Serif" font-size="14.00">samples = 1415</text>
<text text-anchor="start" x="1643" y="-23.7" font-family="Helvetica,sans-Serif" font-size="14.00">value = [1032, 383]</text>
<text text-anchor="start" x="1659.88" y="-7.2" font-family="Helvetica,sans-Serif" font-size="14.00">class = edible</text>
</g>
<!-- 29&#45;&gt;30 -->
<g id="edge30" class="edge">
<title>29&#45;&gt;30</title>
<path fill="none" stroke="black" d="M1747.5,-109.64C1742.39,-101.26 1737.03,-92.49 1731.89,-84.07"/>
<polygon fill="black" stroke="black" points="1734.97,-82.4 1726.77,-75.69 1728.99,-86.04 1734.97,-82.4"/>
</g>
<!-- 31 -->
<g id="node32" class="node">
<title>31</title>
<path fill="#e68743" stroke="black" d="M1907.38,-74C1907.38,-74 1802.12,-74 1802.12,-74 1796.12,-74 1790.12,-68 1790.12,-62 1790.12,-62 1790.12,-12 1790.12,-12 1790.12,-6 1796.12,0 1802.12,0 1802.12,0 1907.38,0 1907.38,0 1913.38,0 1919.38,-6 1919.38,-12 1919.38,-12 1919.38,-62 1919.38,-62 1919.38,-68 1913.38,-74 1907.38,-74"/>
<text text-anchor="start" x="1817.62" y="-56.7" font-family="Helvetica,sans-Serif" font-size="14.00">gini = 0.093</text>
<text text-anchor="start" x="1803.38" y="-40.2" font-family="Helvetica,sans-Serif" font-size="14.00">samples = 1511</text>
<text text-anchor="start" x="1798.12" y="-23.7" font-family="Helvetica,sans-Serif" font-size="14.00">value = [1437, 74]</text>
<text text-anchor="start" x="1810.88" y="-7.2" font-family="Helvetica,sans-Serif" font-size="14.00">class = edible</text>
</g>
<!-- 29&#45;&gt;31 -->
<g id="edge31" class="edge">
<title>29&#45;&gt;31</title>
<path fill="none" stroke="black" d="M1805.45,-109.64C1811.28,-101.17 1817.38,-92.3 1823.23,-83.8"/>
<polygon fill="black" stroke="black" points="1826.06,-85.86 1828.85,-75.64 1820.29,-81.89 1826.06,-85.86"/>
</g>
<!-- 33 -->
<g id="node34" class="node">
<title>33</title>
<path fill="#e6843e" stroke="black" d="M2096.25,-200.5C2096.25,-200.5 1909.25,-200.5 1909.25,-200.5 1903.25,-200.5 1897.25,-194.5 1897.25,-188.5 1897.25,-188.5 1897.25,-122 1897.25,-122 1897.25,-116 1903.25,-110 1909.25,-110 1909.25,-110 2096.25,-110 2096.25,-110 2102.25,-110 2108.25,-116 2108.25,-122 2108.25,-122 2108.25,-188.5 2108.25,-188.5 2108.25,-194.5 2102.25,-200.5 2096.25,-200.5"/>
<text text-anchor="start" x="1905.25" y="-183.2" font-family="Helvetica,sans-Serif" font-size="14.00">numeric__stem&#45;width ≤ 15.135</text>
<text text-anchor="start" x="1965.62" y="-166.7" font-family="Helvetica,sans-Serif" font-size="14.00">gini = 0.051</text>
<text text-anchor="start" x="1951.38" y="-150.2" font-family="Helvetica,sans-Serif" font-size="14.00">samples = 2436</text>
<text text-anchor="start" x="1946.12" y="-133.7" font-family="Helvetica,sans-Serif" font-size="14.00">value = [2372, 64]</text>
<text text-anchor="start" x="1958.88" y="-117.2" font-family="Helvetica,sans-Serif" font-size="14.00">class = edible</text>
</g>
<!-- 32&#45;&gt;33 -->
<g id="edge33" class="edge">
<title>32&#45;&gt;33</title>
<path fill="none" stroke="black" d="M2002.75,-236.15C2002.75,-228.47 2002.75,-220.39 2002.75,-212.44"/>
<polygon fill="black" stroke="black" points="2006.25,-212.47 2002.75,-202.47 1999.25,-212.47 2006.25,-212.47"/>
</g>
<!-- 36 -->
<g id="node37" class="node">
<title>36</title>
<path fill="#f7dac4" stroke="black" d="M2243.38,-192.25C2243.38,-192.25 2138.12,-192.25 2138.12,-192.25 2132.12,-192.25 2126.12,-186.25 2126.12,-180.25 2126.12,-180.25 2126.12,-130.25 2126.12,-130.25 2126.12,-124.25 2132.12,-118.25 2138.12,-118.25 2138.12,-118.25 2243.38,-118.25 2243.38,-118.25 2249.38,-118.25 2255.38,-124.25 2255.38,-130.25 2255.38,-130.25 2255.38,-180.25 2255.38,-180.25 2255.38,-186.25 2249.38,-192.25 2243.38,-192.25"/>
<text text-anchor="start" x="2153.62" y="-174.95" font-family="Helvetica,sans-Serif" font-size="14.00">gini = 0.485</text>
<text text-anchor="start" x="2139.38" y="-158.45" font-family="Helvetica,sans-Serif" font-size="14.00">samples = 1197</text>
<text text-anchor="start" x="2134.12" y="-141.95" font-family="Helvetica,sans-Serif" font-size="14.00">value = [703, 494]</text>
<text text-anchor="start" x="2146.88" y="-125.45" font-family="Helvetica,sans-Serif" font-size="14.00">class = edible</text>
</g>
<!-- 32&#45;&gt;36 -->
<g id="edge36" class="edge">
<title>32&#45;&gt;36</title>
<path fill="none" stroke="black" d="M2070.09,-236.15C2088.48,-223.97 2108.36,-210.81 2126.57,-198.75"/>
<polygon fill="black" stroke="black" points="2128.26,-201.83 2134.67,-193.39 2124.4,-195.99 2128.26,-201.83"/>
</g>
<!-- 34 -->
<g id="node35" class="node">
<title>34</title>
<path fill="#e58139" stroke="black" d="M2049.25,-74C2049.25,-74 1952.25,-74 1952.25,-74 1946.25,-74 1940.25,-68 1940.25,-62 1940.25,-62 1940.25,-12 1940.25,-12 1940.25,-6 1946.25,0 1952.25,0 1952.25,0 2049.25,0 2049.25,0 2055.25,0 2061.25,-6 2061.25,-12 2061.25,-12 2061.25,-62 2061.25,-62 2061.25,-68 2055.25,-74 2049.25,-74"/>
<text text-anchor="start" x="1971.88" y="-56.7" font-family="Helvetica,sans-Serif" font-size="14.00">gini = 0.0</text>
<text text-anchor="start" x="1949.38" y="-40.2" font-family="Helvetica,sans-Serif" font-size="14.00">samples = 1436</text>
<text text-anchor="start" x="1948.25" y="-23.7" font-family="Helvetica,sans-Serif" font-size="14.00">value = [1436, 0]</text>
<text text-anchor="start" x="1956.88" y="-7.2" font-family="Helvetica,sans-Serif" font-size="14.00">class = edible</text>
</g>
<!-- 33&#45;&gt;34 -->
<g id="edge34" class="edge">
<title>33&#45;&gt;34</title>
<path fill="none" stroke="black" d="M2001.98,-109.64C2001.85,-101.81 2001.71,-93.63 2001.57,-85.72"/>
<polygon fill="black" stroke="black" points="2005.07,-85.85 2001.4,-75.91 1998.07,-85.97 2005.07,-85.85"/>
</g>
<!-- 35 -->
<g id="node36" class="node">
<title>35</title>
<path fill="#e78a47" stroke="black" d="M2188.25,-74C2188.25,-74 2091.25,-74 2091.25,-74 2085.25,-74 2079.25,-68 2079.25,-62 2079.25,-62 2079.25,-12 2079.25,-12 2079.25,-6 2085.25,0 2091.25,0 2091.25,0 2188.25,0 2188.25,0 2194.25,0 2200.25,-6 2200.25,-12 2200.25,-12 2200.25,-62 2200.25,-62 2200.25,-68 2194.25,-74 2188.25,-74"/>
<text text-anchor="start" x="2106.75" y="-56.7" font-family="Helvetica,sans-Serif" font-size="14.00">gini = 0.12</text>
<text text-anchor="start" x="2088.38" y="-40.2" font-family="Helvetica,sans-Serif" font-size="14.00">samples = 1000</text>
<text text-anchor="start" x="2087.25" y="-23.7" font-family="Helvetica,sans-Serif" font-size="14.00">value = [936, 64]</text>
<text text-anchor="start" x="2095.88" y="-7.2" font-family="Helvetica,sans-Serif" font-size="14.00">class = edible</text>
</g>
<!-- 33&#45;&gt;35 -->
<g id="edge35" class="edge">
<title>33&#45;&gt;35</title>
<path fill="none" stroke="black" d="M2055.33,-109.64C2066.16,-100.44 2077.56,-90.77 2088.36,-81.61"/>
<polygon fill="black" stroke="black" points="2090.35,-84.51 2095.71,-75.37 2085.82,-79.17 2090.35,-84.51"/>
</g>
</g>
</svg>
