<?xml version="1.0" encoding="UTF-8" standalone="no"?>
<!DOCTYPE svg PUBLIC "-//W3C//DTD SVG 1.1//EN"
 "http://www.w3.org/Graphics/SVG/1.1/DTD/svg11.dtd">
<!-- Generated by graphviz version 10.0.1 (20240210.2158)
 -->
<!-- Title: Tree Pages: 1 -->
<svg width="1257pt" height="715pt"
 viewBox="0.00 0.00 1257.38 714.50" xmlns="http://www.w3.org/2000/svg" xmlns:xlink="http://www.w3.org/1999/xlink">
<g id="graph0" class="graph" transform="scale(1 1) rotate(0) translate(4 710.5)">
<title>Tree</title>
<polygon fill="white" stroke="none" points="-4,4 -4,-710.5 1253.38,-710.5 1253.38,4 -4,4"/>
<!-- 0 -->
<g id="node1" class="node">
<title>0</title>
<path fill="#d8ecfa" stroke="black" d="M717.38,-706.5C717.38,-706.5 538.62,-706.5 538.62,-706.5 532.62,-706.5 526.62,-700.5 526.62,-694.5 526.62,-694.5 526.62,-628 526.62,-628 526.62,-622 532.62,-616 538.62,-616 538.62,-616 717.38,-616 717.38,-616 723.38,-616 729.38,-622 729.38,-628 729.38,-628 729.38,-694.5 729.38,-694.5 729.38,-700.5 723.38,-706.5 717.38,-706.5"/>
<text text-anchor="start" x="534.62" y="-689.2" font-family="Helvetica,sans-Serif" font-size="14.00">numeric__stem&#45;width ≤ 8.555</text>
<text text-anchor="start" x="590.88" y="-672.7" font-family="Helvetica,sans-Serif" font-size="14.00">gini = 0.494</text>
<text text-anchor="start" x="572.5" y="-656.2" font-family="Helvetica,sans-Serif" font-size="14.00">samples = 48855</text>
<text text-anchor="start" x="554.88" y="-639.7" font-family="Helvetica,sans-Serif" font-size="14.00">value = [21745, 27110]</text>
<text text-anchor="start" x="570.62" y="-623.2" font-family="Helvetica,sans-Serif" font-size="14.00">class = poisonous</text>
</g>
<!-- 1 -->
<g id="node2" class="node">
<title>1</title>
<path fill="#93c9f1" stroke="black" d="M591.25,-580C591.25,-580 390.75,-580 390.75,-580 384.75,-580 378.75,-574 378.75,-568 378.75,-568 378.75,-501.5 378.75,-501.5 378.75,-495.5 384.75,-489.5 390.75,-489.5 390.75,-489.5 591.25,-489.5 591.25,-489.5 597.25,-489.5 603.25,-495.5 603.25,-501.5 603.25,-501.5 603.25,-568 603.25,-568 603.25,-574 597.25,-580 591.25,-580"/>
<text text-anchor="start" x="386.75" y="-562.7" font-family="Helvetica,sans-Serif" font-size="14.00">categorical__gill&#45;spacing_d ≤ 0.5</text>
<text text-anchor="start" x="453.88" y="-546.2" font-family="Helvetica,sans-Serif" font-size="14.00">gini = 0.429</text>
<text text-anchor="start" x="435.5" y="-529.7" font-family="Helvetica,sans-Serif" font-size="14.00">samples = 21370</text>
<text text-anchor="start" x="410" y="-513.2" font-family="Helvetica,sans-Serif" font-size="14.00">value = [6671.0, 14699.0]</text>
<text text-anchor="start" x="433.62" y="-496.7" font-family="Helvetica,sans-Serif" font-size="14.00">class = poisonous</text>
</g>
<!-- 0&#45;&gt;1 -->
<g id="edge1" class="edge">
<title>0&#45;&gt;1</title>
<path fill="none" stroke="black" d="M578.93,-615.65C569.09,-606.71 558.67,-597.25 548.57,-588.07"/>
<polygon fill="black" stroke="black" points="551.07,-585.61 541.31,-581.47 546.36,-590.79 551.07,-585.61"/>
<text text-anchor="middle" x="541.38" y="-600.37" font-family="Helvetica,sans-Serif" font-size="14.00">True</text>
</g>
<!-- 8 -->
<g id="node9" class="node">
<title>8</title>
<path fill="#fae9dc" stroke="black" d="M859.25,-580C859.25,-580 646.75,-580 646.75,-580 640.75,-580 634.75,-574 634.75,-568 634.75,-568 634.75,-501.5 634.75,-501.5 634.75,-495.5 640.75,-489.5 646.75,-489.5 646.75,-489.5 859.25,-489.5 859.25,-489.5 865.25,-489.5 871.25,-495.5 871.25,-501.5 871.25,-501.5 871.25,-568 871.25,-568 871.25,-574 865.25,-580 859.25,-580"/>
<text text-anchor="start" x="642.75" y="-562.7" font-family="Helvetica,sans-Serif" font-size="14.00">categorical__stem&#45;surface_g ≤ 0.5</text>
<text text-anchor="start" x="715.88" y="-546.2" font-family="Helvetica,sans-Serif" font-size="14.00">gini = 0.495</text>
<text text-anchor="start" x="697.5" y="-529.7" font-family="Helvetica,sans-Serif" font-size="14.00">samples = 27485</text>
<text text-anchor="start" x="679.88" y="-513.2" font-family="Helvetica,sans-Serif" font-size="14.00">value = [15074, 12411]</text>
<text text-anchor="start" x="709.12" y="-496.7" font-family="Helvetica,sans-Serif" font-size="14.00">class = edible</text>
</g>
<!-- 0&#45;&gt;8 -->
<g id="edge8" class="edge">
<title>0&#45;&gt;8</title>
<path fill="none" stroke="black" d="M672.77,-615.65C681.66,-606.8 691.07,-597.43 700.19,-588.35"/>
<polygon fill="black" stroke="black" points="702.43,-591.06 707.05,-581.52 697.49,-586.1 702.43,-591.06"/>
<text text-anchor="middle" x="708.07" y="-600.4" font-family="Helvetica,sans-Serif" font-size="14.00">False</text>
</g>
<!-- 2 -->
<g id="node3" class="node">
<title>2</title>
<path fill="#79bded" stroke="black" d="M344.12,-453.5C344.12,-453.5 145.88,-453.5 145.88,-453.5 139.88,-453.5 133.88,-447.5 133.88,-441.5 133.88,-441.5 133.88,-375 133.88,-375 133.88,-369 139.88,-363 145.88,-363 145.88,-363 344.12,-363 344.12,-363 350.12,-363 356.12,-369 356.12,-375 356.12,-375 356.12,-441.5 356.12,-441.5 356.12,-447.5 350.12,-453.5 344.12,-453.5"/>
<text text-anchor="start" x="141.88" y="-436.2" font-family="Helvetica,sans-Serif" font-size="14.00">categorical__stem&#45;color_w ≤ 0.5</text>
<text text-anchor="start" x="207.88" y="-419.7" font-family="Helvetica,sans-Serif" font-size="14.00">gini = 0.369</text>
<text text-anchor="start" x="189.5" y="-403.2" font-family="Helvetica,sans-Serif" font-size="14.00">samples = 17960</text>
<text text-anchor="start" x="176" y="-386.7" font-family="Helvetica,sans-Serif" font-size="14.00">value = [4384, 13576]</text>
<text text-anchor="start" x="187.62" y="-370.2" font-family="Helvetica,sans-Serif" font-size="14.00">class = poisonous</text>
</g>
<!-- 1&#45;&gt;2 -->
<g id="edge2" class="edge">
<title>1&#45;&gt;2</title>
<path fill="none" stroke="black" d="M402.88,-489.15C383.63,-479.41 363.13,-469.04 343.5,-459.1"/>
<polygon fill="black" stroke="black" points="345.18,-456.03 334.68,-454.64 342.02,-462.27 345.18,-456.03"/>
</g>
<!-- 5 -->
<g id="node6" class="node">
<title>5</title>
<path fill="#f2bf9a" stroke="black" d="M583.38,-453.5C583.38,-453.5 398.62,-453.5 398.62,-453.5 392.62,-453.5 386.62,-447.5 386.62,-441.5 386.62,-441.5 386.62,-375 386.62,-375 386.62,-369 392.62,-363 398.62,-363 398.62,-363 583.38,-363 583.38,-363 589.38,-363 595.38,-369 595.38,-375 595.38,-375 595.38,-441.5 595.38,-441.5 595.38,-447.5 589.38,-453.5 583.38,-453.5"/>
<text text-anchor="start" x="394.62" y="-436.2" font-family="Helvetica,sans-Serif" font-size="14.00">numeric__stem&#45;height ≤ 3.695</text>
<text text-anchor="start" x="453.88" y="-419.7" font-family="Helvetica,sans-Serif" font-size="14.00">gini = 0.442</text>
<text text-anchor="start" x="439.62" y="-403.2" font-family="Helvetica,sans-Serif" font-size="14.00">samples = 3410</text>
<text text-anchor="start" x="426.12" y="-386.7" font-family="Helvetica,sans-Serif" font-size="14.00">value = [2287, 1123]</text>
<text text-anchor="start" x="447.12" y="-370.2" font-family="Helvetica,sans-Serif" font-size="14.00">class = edible</text>
</g>
<!-- 1&#45;&gt;5 -->
<g id="edge5" class="edge">
<title>1&#45;&gt;5</title>
<path fill="none" stroke="black" d="M491,-489.15C491,-481.47 491,-473.39 491,-465.44"/>
<polygon fill="black" stroke="black" points="494.5,-465.47 491,-455.47 487.5,-465.47 494.5,-465.47"/>
</g>
<!-- 3 -->
<g id="node4" class="node">
<title>3</title>
<path fill="#63b2ea" stroke="black" d="M142,-318.75C142,-318.75 12,-318.75 12,-318.75 6,-318.75 0,-312.75 0,-306.75 0,-306.75 0,-256.75 0,-256.75 0,-250.75 6,-244.75 12,-244.75 12,-244.75 142,-244.75 142,-244.75 148,-244.75 154,-250.75 154,-256.75 154,-256.75 154,-306.75 154,-306.75 154,-312.75 148,-318.75 142,-318.75"/>
<text text-anchor="start" x="39.88" y="-301.45" font-family="Helvetica,sans-Serif" font-size="14.00">gini = 0.287</text>
<text text-anchor="start" x="21.5" y="-284.95" font-family="Helvetica,sans-Serif" font-size="14.00">samples = 13173</text>
<text text-anchor="start" x="8" y="-268.45" font-family="Helvetica,sans-Serif" font-size="14.00">value = [2284, 10889]</text>
<text text-anchor="start" x="19.62" y="-251.95" font-family="Helvetica,sans-Serif" font-size="14.00">class = poisonous</text>
</g>
<!-- 2&#45;&gt;3 -->
<g id="edge3" class="edge">
<title>2&#45;&gt;3</title>
<path fill="none" stroke="black" d="M184.82,-362.65C168.54,-350.59 150.95,-337.55 134.8,-325.58"/>
<polygon fill="black" stroke="black" points="137.32,-323.1 127.21,-319.96 133.16,-328.72 137.32,-323.1"/>
</g>
<!-- 4 -->
<g id="node5" class="node">
<title>4</title>
<path fill="#d4eaf9" stroke="black" d="M305.88,-318.75C305.88,-318.75 184.12,-318.75 184.12,-318.75 178.12,-318.75 172.12,-312.75 172.12,-306.75 172.12,-306.75 172.12,-256.75 172.12,-256.75 172.12,-250.75 178.12,-244.75 184.12,-244.75 184.12,-244.75 305.88,-244.75 305.88,-244.75 311.88,-244.75 317.88,-250.75 317.88,-256.75 317.88,-256.75 317.88,-306.75 317.88,-306.75 317.88,-312.75 311.88,-318.75 305.88,-318.75"/>
<text text-anchor="start" x="207.88" y="-301.45" font-family="Helvetica,sans-Serif" font-size="14.00">gini = 0.492</text>
<text text-anchor="start" x="193.62" y="-284.95" font-family="Helvetica,sans-Serif" font-size="14.00">samples = 4787</text>
<text text-anchor="start" x="180.12" y="-268.45" font-family="Helvetica,sans-Serif" font-size="14.00">value = [2100, 2687]</text>
<text text-anchor="start" x="187.62" y="-251.95" font-family="Helvetica,sans-Serif" font-size="14.00">class = poisonous</text>
</g>
<!-- 2&#45;&gt;4 -->
<g id="edge4" class="edge">
<title>2&#45;&gt;4</title>
<path fill="none" stroke="black" d="M245,-362.65C245,-352.1 245,-340.81 245,-330.13"/>
<polygon fill="black" stroke="black" points="248.5,-330.37 245,-320.37 241.5,-330.37 248.5,-330.37"/>
</g>
<!-- 6 -->
<g id="node7" class="node">
<title>6</title>
<path fill="#6fb8ec" stroke="black" d="M454.38,-318.75C454.38,-318.75 347.62,-318.75 347.62,-318.75 341.62,-318.75 335.62,-312.75 335.62,-306.75 335.62,-306.75 335.62,-256.75 335.62,-256.75 335.62,-250.75 341.62,-244.75 347.62,-244.75 347.62,-244.75 454.38,-244.75 454.38,-244.75 460.38,-244.75 466.38,-250.75 466.38,-256.75 466.38,-256.75 466.38,-306.75 466.38,-306.75 466.38,-312.75 460.38,-318.75 454.38,-318.75"/>
<text text-anchor="start" x="363.88" y="-301.45" font-family="Helvetica,sans-Serif" font-size="14.00">gini = 0.338</text>
<text text-anchor="start" x="353.75" y="-284.95" font-family="Helvetica,sans-Serif" font-size="14.00">samples = 939</text>
<text text-anchor="start" x="344.38" y="-268.45" font-family="Helvetica,sans-Serif" font-size="14.00">value = [202, 737]</text>
<text text-anchor="start" x="343.62" y="-251.95" font-family="Helvetica,sans-Serif" font-size="14.00">class = poisonous</text>
</g>
<!-- 5&#45;&gt;6 -->
<g id="edge6" class="edge">
<title>5&#45;&gt;6</title>
<path fill="none" stroke="black" d="M458.76,-362.65C450.64,-351.43 441.92,-339.36 433.78,-328.1"/>
<polygon fill="black" stroke="black" points="436.68,-326.14 427.99,-320.08 431.01,-330.24 436.68,-326.14"/>
</g>
<!-- 7 -->
<g id="node8" class="node">
<title>7</title>
<path fill="#ea985e" stroke="black" d="M609.75,-318.75C609.75,-318.75 496.25,-318.75 496.25,-318.75 490.25,-318.75 484.25,-312.75 484.25,-306.75 484.25,-306.75 484.25,-256.75 484.25,-256.75 484.25,-250.75 490.25,-244.75 496.25,-244.75 496.25,-244.75 609.75,-244.75 609.75,-244.75 615.75,-244.75 621.75,-250.75 621.75,-256.75 621.75,-256.75 621.75,-306.75 621.75,-306.75 621.75,-312.75 615.75,-318.75 609.75,-318.75"/>
<text text-anchor="start" x="515.88" y="-301.45" font-family="Helvetica,sans-Serif" font-size="14.00">gini = 0.264</text>
<text text-anchor="start" x="501.62" y="-284.95" font-family="Helvetica,sans-Serif" font-size="14.00">samples = 2471</text>
<text text-anchor="start" x="492.25" y="-268.45" font-family="Helvetica,sans-Serif" font-size="14.00">value = [2085, 386]</text>
<text text-anchor="start" x="509.12" y="-251.95" font-family="Helvetica,sans-Serif" font-size="14.00">class = edible</text>
</g>
<!-- 5&#45;&gt;7 -->
<g id="edge7" class="edge">
<title>5&#45;&gt;7</title>
<path fill="none" stroke="black" d="M513.21,-362.65C518.63,-351.76 524.45,-340.08 529.91,-329.11"/>
<polygon fill="black" stroke="black" points="533.02,-330.72 534.34,-320.21 526.75,-327.6 533.02,-330.72"/>
</g>
<!-- 9 -->
<g id="node10" class="node">
<title>9</title>
<path fill="#f9e1d0" stroke="black" d="M848,-453.5C848,-453.5 658,-453.5 658,-453.5 652,-453.5 646,-447.5 646,-441.5 646,-441.5 646,-375 646,-375 646,-369 652,-363 658,-363 658,-363 848,-363 848,-363 854,-363 860,-369 860,-375 860,-375 860,-441.5 860,-441.5 860,-447.5 854,-453.5 848,-453.5"/>
<text text-anchor="start" x="654" y="-436.2" font-family="Helvetica,sans-Serif" font-size="14.00">categorical__stem&#45;root_b ≤ 0.5</text>
<text text-anchor="start" x="715.88" y="-419.7" font-family="Helvetica,sans-Serif" font-size="14.00">gini = 0.491</text>
<text text-anchor="start" x="697.5" y="-403.2" font-family="Helvetica,sans-Serif" font-size="14.00">samples = 26566</text>
<text text-anchor="start" x="679.88" y="-386.7" font-family="Helvetica,sans-Serif" font-size="14.00">value = [15074, 11492]</text>
<text text-anchor="start" x="709.12" y="-370.2" font-family="Helvetica,sans-Serif" font-size="14.00">class = edible</text>
</g>
<!-- 8&#45;&gt;9 -->
<g id="edge9" class="edge">
<title>8&#45;&gt;9</title>
<path fill="none" stroke="black" d="M753,-489.15C753,-481.47 753,-473.39 753,-465.44"/>
<polygon fill="black" stroke="black" points="756.5,-465.47 753,-455.47 749.5,-465.47 756.5,-465.47"/>
</g>
<!-- 18 -->
<g id="node19" class="node">
<title>18</title>
<path fill="#399de5" stroke="black" d="M996.38,-445.25C996.38,-445.25 889.62,-445.25 889.62,-445.25 883.62,-445.25 877.62,-439.25 877.62,-433.25 877.62,-433.25 877.62,-383.25 877.62,-383.25 877.62,-377.25 883.62,-371.25 889.62,-371.25 889.62,-371.25 996.38,-371.25 996.38,-371.25 1002.38,-371.25 1008.38,-377.25 1008.38,-383.25 1008.38,-383.25 1008.38,-433.25 1008.38,-433.25 1008.38,-439.25 1002.38,-445.25 996.38,-445.25"/>
<text text-anchor="start" x="914.12" y="-427.95" font-family="Helvetica,sans-Serif" font-size="14.00">gini = 0.0</text>
<text text-anchor="start" x="895.75" y="-411.45" font-family="Helvetica,sans-Serif" font-size="14.00">samples = 919</text>
<text text-anchor="start" x="894.62" y="-394.95" font-family="Helvetica,sans-Serif" font-size="14.00">value = [0, 919]</text>
<text text-anchor="start" x="885.62" y="-378.45" font-family="Helvetica,sans-Serif" font-size="14.00">class = poisonous</text>
</g>
<!-- 8&#45;&gt;18 -->
<g id="edge18" class="edge">
<title>8&#45;&gt;18</title>
<path fill="none" stroke="black" d="M821.06,-489.15C839.65,-476.97 859.73,-463.81 878.14,-451.75"/>
<polygon fill="black" stroke="black" points="879.88,-454.79 886.33,-446.38 876.05,-448.94 879.88,-454.79"/>
</g>
<!-- 10 -->
<g id="node11" class="node">
<title>10</title>
<path fill="#8fc8f0" stroke="black" d="M854,-327C854,-327 652,-327 652,-327 646,-327 640,-321 640,-315 640,-315 640,-248.5 640,-248.5 640,-242.5 646,-236.5 652,-236.5 652,-236.5 854,-236.5 854,-236.5 860,-236.5 866,-242.5 866,-248.5 866,-248.5 866,-315 866,-315 866,-321 860,-327 854,-327"/>
<text text-anchor="start" x="648" y="-309.7" font-family="Helvetica,sans-Serif" font-size="14.00">numeric__cap&#45;diameter ≤ 11.475</text>
<text text-anchor="start" x="715.88" y="-293.2" font-family="Helvetica,sans-Serif" font-size="14.00">gini = 0.422</text>
<text text-anchor="start" x="701.62" y="-276.7" font-family="Helvetica,sans-Serif" font-size="14.00">samples = 3684</text>
<text text-anchor="start" x="688.12" y="-260.2" font-family="Helvetica,sans-Serif" font-size="14.00">value = [1115, 2569]</text>
<text text-anchor="start" x="695.62" y="-243.7" font-family="Helvetica,sans-Serif" font-size="14.00">class = poisonous</text>
</g>
<!-- 9&#45;&gt;10 -->
<g id="edge10" class="edge">
<title>9&#45;&gt;10</title>
<path fill="none" stroke="black" d="M753,-362.65C753,-354.97 753,-346.89 753,-338.94"/>
<polygon fill="black" stroke="black" points="756.5,-338.97 753,-328.97 749.5,-338.97 756.5,-338.97"/>
</g>
<!-- 13 -->
<g id="node14" class="node">
<title>13</title>
<path fill="#f6d2b8" stroke="black" d="M1078.25,-327C1078.25,-327 895.75,-327 895.75,-327 889.75,-327 883.75,-321 883.75,-315 883.75,-315 883.75,-248.5 883.75,-248.5 883.75,-242.5 889.75,-236.5 895.75,-236.5 895.75,-236.5 1078.25,-236.5 1078.25,-236.5 1084.25,-236.5 1090.25,-242.5 1090.25,-248.5 1090.25,-248.5 1090.25,-315 1090.25,-315 1090.25,-321 1084.25,-327 1078.25,-327"/>
<text text-anchor="start" x="891.75" y="-309.7" font-family="Helvetica,sans-Serif" font-size="14.00">categorical__ring&#45;type_z ≤ 0.5</text>
<text text-anchor="start" x="949.88" y="-293.2" font-family="Helvetica,sans-Serif" font-size="14.00">gini = 0.476</text>
<text text-anchor="start" x="931.5" y="-276.7" font-family="Helvetica,sans-Serif" font-size="14.00">samples = 22882</text>
<text text-anchor="start" x="906" y="-260.2" font-family="Helvetica,sans-Serif" font-size="14.00">value = [13959.0, 8923.0]</text>
<text text-anchor="start" x="943.12" y="-243.7" font-family="Helvetica,sans-Serif" font-size="14.00">class = edible</text>
</g>
<!-- 9&#45;&gt;13 -->
<g id="edge13" class="edge">
<title>9&#45;&gt;13</title>
<path fill="none" stroke="black" d="M836.82,-362.65C855.05,-352.95 874.45,-342.63 893.04,-332.74"/>
<polygon fill="black" stroke="black" points="894.46,-335.95 901.64,-328.16 891.17,-329.77 894.46,-335.95"/>
</g>
<!-- 11 -->
<g id="node12" class="node">
<title>11</title>
<path fill="#46a3e7" stroke="black" d="M665.75,-192.25C665.75,-192.25 552.25,-192.25 552.25,-192.25 546.25,-192.25 540.25,-186.25 540.25,-180.25 540.25,-180.25 540.25,-130.25 540.25,-130.25 540.25,-124.25 546.25,-118.25 552.25,-118.25 552.25,-118.25 665.75,-118.25 665.75,-118.25 671.75,-118.25 677.75,-124.25 677.75,-130.25 677.75,-130.25 677.75,-180.25 677.75,-180.25 677.75,-186.25 671.75,-192.25 665.75,-192.25"/>
<text text-anchor="start" x="571.88" y="-174.95" font-family="Helvetica,sans-Serif" font-size="14.00">gini = 0.115</text>
<text text-anchor="start" x="557.62" y="-158.45" font-family="Helvetica,sans-Serif" font-size="14.00">samples = 2066</text>
<text text-anchor="start" x="548.25" y="-141.95" font-family="Helvetica,sans-Serif" font-size="14.00">value = [126, 1940]</text>
<text text-anchor="start" x="551.62" y="-125.45" font-family="Helvetica,sans-Serif" font-size="14.00">class = poisonous</text>
</g>
<!-- 10&#45;&gt;11 -->
<g id="edge11" class="edge">
<title>10&#45;&gt;11</title>
<path fill="none" stroke="black" d="M701.42,-236.15C687.65,-224.25 672.8,-211.41 659.11,-199.58"/>
<polygon fill="black" stroke="black" points="661.76,-197.24 651.91,-193.35 657.18,-202.53 661.76,-197.24"/>
</g>
<!-- 12 -->
<g id="node13" class="node">
<title>12</title>
<path fill="#f6d1b7" stroke="black" d="M812.62,-192.25C812.62,-192.25 707.38,-192.25 707.38,-192.25 701.38,-192.25 695.38,-186.25 695.38,-180.25 695.38,-180.25 695.38,-130.25 695.38,-130.25 695.38,-124.25 701.38,-118.25 707.38,-118.25 707.38,-118.25 812.62,-118.25 812.62,-118.25 818.62,-118.25 824.62,-124.25 824.62,-130.25 824.62,-130.25 824.62,-180.25 824.62,-180.25 824.62,-186.25 818.62,-192.25 812.62,-192.25"/>
<text text-anchor="start" x="722.88" y="-174.95" font-family="Helvetica,sans-Serif" font-size="14.00">gini = 0.475</text>
<text text-anchor="start" x="708.62" y="-158.45" font-family="Helvetica,sans-Serif" font-size="14.00">samples = 1618</text>
<text text-anchor="start" x="703.38" y="-141.95" font-family="Helvetica,sans-Serif" font-size="14.00">value = [989, 629]</text>
<text text-anchor="start" x="716.12" y="-125.45" font-family="Helvetica,sans-Serif" font-size="14.00">class = edible</text>
</g>
<!-- 10&#45;&gt;12 -->
<g id="edge12" class="edge">
<title>10&#45;&gt;12</title>
<path fill="none" stroke="black" d="M755.51,-236.15C756.1,-225.6 756.74,-214.31 757.34,-203.63"/>
<polygon fill="black" stroke="black" points="760.82,-204.05 757.88,-193.87 753.83,-203.65 760.82,-204.05"/>
</g>
<!-- 14 -->
<g id="node15" class="node">
<title>14</title>
<path fill="#f4caac" stroke="black" d="M1089,-200.5C1089,-200.5 869,-200.5 869,-200.5 863,-200.5 857,-194.5 857,-188.5 857,-188.5 857,-122 857,-122 857,-116 863,-110 869,-110 869,-110 1089,-110 1089,-110 1095,-110 1101,-116 1101,-122 1101,-122 1101,-188.5 1101,-188.5 1101,-194.5 1095,-200.5 1089,-200.5"/>
<text text-anchor="start" x="865" y="-183.2" font-family="Helvetica,sans-Serif" font-size="14.00">categorical__gill&#45;attachment_d ≤ 0.5</text>
<text text-anchor="start" x="941.88" y="-166.7" font-family="Helvetica,sans-Serif" font-size="14.00">gini = 0.465</text>
<text text-anchor="start" x="923.5" y="-150.2" font-family="Helvetica,sans-Serif" font-size="14.00">samples = 22099</text>
<text text-anchor="start" x="910" y="-133.7" font-family="Helvetica,sans-Serif" font-size="14.00">value = [13959, 8140]</text>
<text text-anchor="start" x="935.12" y="-117.2" font-family="Helvetica,sans-Serif" font-size="14.00">class = edible</text>
</g>
<!-- 13&#45;&gt;14 -->
<g id="edge14" class="edge">
<title>13&#45;&gt;14</title>
<path fill="none" stroke="black" d="M984.13,-236.15C983.64,-228.47 983.12,-220.39 982.61,-212.44"/>
<polygon fill="black" stroke="black" points="986.1,-212.22 981.97,-202.46 979.12,-212.67 986.1,-212.22"/>
</g>
<!-- 17 -->
<g id="node18" class="node">
<title>17</title>
<path fill="#399de5" stroke="black" d="M1237.38,-192.25C1237.38,-192.25 1130.62,-192.25 1130.62,-192.25 1124.62,-192.25 1118.62,-186.25 1118.62,-180.25 1118.62,-180.25 1118.62,-130.25 1118.62,-130.25 1118.62,-124.25 1124.62,-118.25 1130.62,-118.25 1130.62,-118.25 1237.38,-118.25 1237.38,-118.25 1243.38,-118.25 1249.38,-124.25 1249.38,-130.25 1249.38,-130.25 1249.38,-180.25 1249.38,-180.25 1249.38,-186.25 1243.38,-192.25 1237.38,-192.25"/>
<text text-anchor="start" x="1155.12" y="-174.95" font-family="Helvetica,sans-Serif" font-size="14.00">gini = 0.0</text>
<text text-anchor="start" x="1136.75" y="-158.45" font-family="Helvetica,sans-Serif" font-size="14.00">samples = 783</text>
<text text-anchor="start" x="1135.62" y="-141.95" font-family="Helvetica,sans-Serif" font-size="14.00">value = [0, 783]</text>
<text text-anchor="start" x="1126.62" y="-125.45" font-family="Helvetica,sans-Serif" font-size="14.00">class = poisonous</text>
</g>
<!-- 13&#45;&gt;17 -->
<g id="edge17" class="edge">
<title>13&#45;&gt;17</title>
<path fill="none" stroke="black" d="M1057.57,-236.15C1076.93,-223.92 1097.86,-210.69 1117.01,-198.58"/>
<polygon fill="black" stroke="black" points="1118.69,-201.66 1125.27,-193.36 1114.95,-195.75 1118.69,-201.66"/>
</g>
<!-- 15 -->
<g id="node16" class="node">
<title>15</title>
<path fill="#f0b990" stroke="black" d="M960,-74C960,-74 830,-74 830,-74 824,-74 818,-68 818,-62 818,-62 818,-12 818,-12 818,-6 824,0 830,0 830,0 960,0 960,0 966,0 972,-6 972,-12 972,-12 972,-62 972,-62 972,-68 966,-74 960,-74"/>
<text text-anchor="start" x="857.88" y="-56.7" font-family="Helvetica,sans-Serif" font-size="14.00">gini = 0.425</text>
<text text-anchor="start" x="839.5" y="-40.2" font-family="Helvetica,sans-Serif" font-size="14.00">samples = 17836</text>
<text text-anchor="start" x="826" y="-23.7" font-family="Helvetica,sans-Serif" font-size="14.00">value = [12370, 5466]</text>
<text text-anchor="start" x="851.12" y="-7.2" font-family="Helvetica,sans-Serif" font-size="14.00">class = edible</text>
</g>
<!-- 14&#45;&gt;15 -->
<g id="edge15" class="edge">
<title>14&#45;&gt;15</title>
<path fill="none" stroke="black" d="M946.76,-109.64C940.58,-101.08 934.1,-92.11 927.89,-83.52"/>
<polygon fill="black" stroke="black" points="930.88,-81.68 922.18,-75.62 925.2,-85.78 930.88,-81.68"/>
</g>
<!-- 16 -->
<g id="node17" class="node">
<title>16</title>
<path fill="#afd7f4" stroke="black" d="M1123.88,-74C1123.88,-74 1002.12,-74 1002.12,-74 996.12,-74 990.12,-68 990.12,-62 990.12,-62 990.12,-12 990.12,-12 990.12,-6 996.12,0 1002.12,0 1002.12,0 1123.88,0 1123.88,0 1129.88,0 1135.88,-6 1135.88,-12 1135.88,-12 1135.88,-62 1135.88,-62 1135.88,-68 1129.88,-74 1123.88,-74"/>
<text text-anchor="start" x="1025.88" y="-56.7" font-family="Helvetica,sans-Serif" font-size="14.00">gini = 0.468</text>
<text text-anchor="start" x="1011.62" y="-40.2" font-family="Helvetica,sans-Serif" font-size="14.00">samples = 4263</text>
<text text-anchor="start" x="998.12" y="-23.7" font-family="Helvetica,sans-Serif" font-size="14.00">value = [1589, 2674]</text>
<text text-anchor="start" x="1005.62" y="-7.2" font-family="Helvetica,sans-Serif" font-size="14.00">class = poisonous</text>
</g>
<!-- 14&#45;&gt;16 -->
<g id="edge16" class="edge">
<title>14&#45;&gt;16</title>
<path fill="none" stroke="black" d="M1011.24,-109.64C1017.42,-101.08 1023.9,-92.11 1030.11,-83.52"/>
<polygon fill="black" stroke="black" points="1032.8,-85.78 1035.82,-75.62 1027.12,-81.68 1032.8,-85.78"/>
</g>
</g>
</svg>
