<?xml version="1.0" encoding="UTF-8" standalone="no"?>
<!DOCTYPE svg PUBLIC "-//W3C//DTD SVG 1.1//EN"
 "http://www.w3.org/Graphics/SVG/1.1/DTD/svg11.dtd">
<!-- Generated by graphviz version 10.0.1 (20240210.2158)
 -->
<!-- Title: Tree Pages: 1 -->
<svg width="2469pt" height="715pt"
 viewBox="0.00 0.00 2468.75 714.50" xmlns="http://www.w3.org/2000/svg" xmlns:xlink="http://www.w3.org/1999/xlink">
<g id="graph0" class="graph" transform="scale(1 1) rotate(0) translate(4 710.5)">
<title>Tree</title>
<polygon fill="white" stroke="none" points="-4,4 -4,-710.5 2464.75,-710.5 2464.75,4 -4,4"/>
<!-- 0 -->
<g id="node1" class="node">
<title>0</title>
<path fill="#d8ecfa" stroke="black" d="M2089.75,-706.5C2089.75,-706.5 1911,-706.5 1911,-706.5 1905,-706.5 1899,-700.5 1899,-694.5 1899,-694.5 1899,-628 1899,-628 1899,-622 1905,-616 1911,-616 1911,-616 2089.75,-616 2089.75,-616 2095.75,-616 2101.75,-622 2101.75,-628 2101.75,-628 2101.75,-694.5 2101.75,-694.5 2101.75,-700.5 2095.75,-706.5 2089.75,-706.5"/>
<text text-anchor="start" x="1907" y="-689.2" font-family="Helvetica,sans-Serif" font-size="14.00">numeric__stem&#45;width ≤ 8.555</text>
<text text-anchor="start" x="1950.5" y="-672.7" font-family="Helvetica,sans-Serif" font-size="14.00">entropy = 0.991</text>
<text text-anchor="start" x="1944.88" y="-656.2" font-family="Helvetica,sans-Serif" font-size="14.00">samples = 48855</text>
<text text-anchor="start" x="1927.25" y="-639.7" font-family="Helvetica,sans-Serif" font-size="14.00">value = [21745, 27110]</text>
<text text-anchor="start" x="1943" y="-623.2" font-family="Helvetica,sans-Serif" font-size="14.00">class = poisonous</text>
</g>
<!-- 1 -->
<g id="node2" class="node">
<title>1</title>
<path fill="#93c9f1" stroke="black" d="M1785.62,-580C1785.62,-580 1585.12,-580 1585.12,-580 1579.12,-580 1573.12,-574 1573.12,-568 1573.12,-568 1573.12,-501.5 1573.12,-501.5 1573.12,-495.5 1579.12,-489.5 1585.12,-489.5 1585.12,-489.5 1785.62,-489.5 1785.62,-489.5 1791.62,-489.5 1797.62,-495.5 1797.62,-501.5 1797.62,-501.5 1797.62,-568 1797.62,-568 1797.62,-574 1791.62,-580 1785.62,-580"/>
<text text-anchor="start" x="1581.12" y="-562.7" font-family="Helvetica,sans-Serif" font-size="14.00">categorical__gill&#45;spacing_d ≤ 0.5</text>
<text text-anchor="start" x="1635.5" y="-546.2" font-family="Helvetica,sans-Serif" font-size="14.00">entropy = 0.896</text>
<text text-anchor="start" x="1629.88" y="-529.7" font-family="Helvetica,sans-Serif" font-size="14.00">samples = 21370</text>
<text text-anchor="start" x="1604.38" y="-513.2" font-family="Helvetica,sans-Serif" font-size="14.00">value = [6671.0, 14699.0]</text>
<text text-anchor="start" x="1628" y="-496.7" font-family="Helvetica,sans-Serif" font-size="14.00">class = poisonous</text>
</g>
<!-- 0&#45;&gt;1 -->
<g id="edge1" class="edge">
<title>0&#45;&gt;1</title>
<path fill="none" stroke="black" d="M1898.54,-620C1869.84,-608.66 1838.31,-596.19 1808.5,-584.41"/>
<polygon fill="black" stroke="black" points="1810.03,-581.26 1799.45,-580.83 1807.46,-587.77 1810.03,-581.26"/>
<text text-anchor="middle" x="1807.98" y="-598.17" font-family="Helvetica,sans-Serif" font-size="14.00">True</text>
</g>
<!-- 30 -->
<g id="node31" class="node">
<title>30</title>
<path fill="#fae9dc" stroke="black" d="M2304.62,-580C2304.62,-580 2092.12,-580 2092.12,-580 2086.12,-580 2080.12,-574 2080.12,-568 2080.12,-568 2080.12,-501.5 2080.12,-501.5 2080.12,-495.5 2086.12,-489.5 2092.12,-489.5 2092.12,-489.5 2304.62,-489.5 2304.62,-489.5 2310.62,-489.5 2316.62,-495.5 2316.62,-501.5 2316.62,-501.5 2316.62,-568 2316.62,-568 2316.62,-574 2310.62,-580 2304.62,-580"/>
<text text-anchor="start" x="2088.12" y="-562.7" font-family="Helvetica,sans-Serif" font-size="14.00">categorical__stem&#45;surface_g ≤ 0.5</text>
<text text-anchor="start" x="2148.5" y="-546.2" font-family="Helvetica,sans-Serif" font-size="14.00">entropy = 0.993</text>
<text text-anchor="start" x="2142.88" y="-529.7" font-family="Helvetica,sans-Serif" font-size="14.00">samples = 27485</text>
<text text-anchor="start" x="2125.25" y="-513.2" font-family="Helvetica,sans-Serif" font-size="14.00">value = [15074, 12411]</text>
<text text-anchor="start" x="2154.5" y="-496.7" font-family="Helvetica,sans-Serif" font-size="14.00">class = edible</text>
</g>
<!-- 0&#45;&gt;30 -->
<g id="edge30" class="edge">
<title>0&#45;&gt;30</title>
<path fill="none" stroke="black" d="M2071.3,-615.65C2086.37,-606.18 2102.39,-596.11 2117.79,-586.42"/>
<polygon fill="black" stroke="black" points="2119.4,-589.54 2126,-581.26 2115.67,-583.62 2119.4,-589.54"/>
<text text-anchor="middle" x="2121.73" y="-599.78" font-family="Helvetica,sans-Serif" font-size="14.00">False</text>
</g>
<!-- 2 -->
<g id="node3" class="node">
<title>2</title>
<path fill="#79bded" stroke="black" d="M1007.5,-453.5C1007.5,-453.5 809.25,-453.5 809.25,-453.5 803.25,-453.5 797.25,-447.5 797.25,-441.5 797.25,-441.5 797.25,-375 797.25,-375 797.25,-369 803.25,-363 809.25,-363 809.25,-363 1007.5,-363 1007.5,-363 1013.5,-363 1019.5,-369 1019.5,-375 1019.5,-375 1019.5,-441.5 1019.5,-441.5 1019.5,-447.5 1013.5,-453.5 1007.5,-453.5"/>
<text text-anchor="start" x="805.25" y="-436.2" font-family="Helvetica,sans-Serif" font-size="14.00">categorical__stem&#45;color_w ≤ 0.5</text>
<text text-anchor="start" x="858.5" y="-419.7" font-family="Helvetica,sans-Serif" font-size="14.00">entropy = 0.802</text>
<text text-anchor="start" x="852.88" y="-403.2" font-family="Helvetica,sans-Serif" font-size="14.00">samples = 17960</text>
<text text-anchor="start" x="839.38" y="-386.7" font-family="Helvetica,sans-Serif" font-size="14.00">value = [4384, 13576]</text>
<text text-anchor="start" x="851" y="-370.2" font-family="Helvetica,sans-Serif" font-size="14.00">class = poisonous</text>
</g>
<!-- 1&#45;&gt;2 -->
<g id="edge2" class="edge">
<title>1&#45;&gt;2</title>
<path fill="none" stroke="black" d="M1572.81,-515.71C1428.58,-492.6 1179.5,-452.69 1030.71,-428.85"/>
<polygon fill="black" stroke="black" points="1031.66,-425.46 1021.23,-427.33 1030.55,-432.37 1031.66,-425.46"/>
</g>
<!-- 17 -->
<g id="node18" class="node">
<title>17</title>
<path fill="#f2bf9a" stroke="black" d="M1777.75,-453.5C1777.75,-453.5 1593,-453.5 1593,-453.5 1587,-453.5 1581,-447.5 1581,-441.5 1581,-441.5 1581,-375 1581,-375 1581,-369 1587,-363 1593,-363 1593,-363 1777.75,-363 1777.75,-363 1783.75,-363 1789.75,-369 1789.75,-375 1789.75,-375 1789.75,-441.5 1789.75,-441.5 1789.75,-447.5 1783.75,-453.5 1777.75,-453.5"/>
<text text-anchor="start" x="1589" y="-436.2" font-family="Helvetica,sans-Serif" font-size="14.00">numeric__stem&#45;height ≤ 3.695</text>
<text text-anchor="start" x="1635.5" y="-419.7" font-family="Helvetica,sans-Serif" font-size="14.00">entropy = 0.914</text>
<text text-anchor="start" x="1634" y="-403.2" font-family="Helvetica,sans-Serif" font-size="14.00">samples = 3410</text>
<text text-anchor="start" x="1620.5" y="-386.7" font-family="Helvetica,sans-Serif" font-size="14.00">value = [2287, 1123]</text>
<text text-anchor="start" x="1641.5" y="-370.2" font-family="Helvetica,sans-Serif" font-size="14.00">class = edible</text>
</g>
<!-- 1&#45;&gt;17 -->
<g id="edge17" class="edge">
<title>1&#45;&gt;17</title>
<path fill="none" stroke="black" d="M1685.38,-489.15C1685.38,-481.47 1685.38,-473.39 1685.38,-465.44"/>
<polygon fill="black" stroke="black" points="1688.88,-465.47 1685.38,-455.47 1681.88,-465.47 1688.88,-465.47"/>
</g>
<!-- 3 -->
<g id="node4" class="node">
<title>3</title>
<path fill="#63b2ea" stroke="black" d="M579.75,-327C579.75,-327 395,-327 395,-327 389,-327 383,-321 383,-315 383,-315 383,-248.5 383,-248.5 383,-242.5 389,-236.5 395,-236.5 395,-236.5 579.75,-236.5 579.75,-236.5 585.75,-236.5 591.75,-242.5 591.75,-248.5 591.75,-248.5 591.75,-315 591.75,-315 591.75,-321 585.75,-327 579.75,-327"/>
<text text-anchor="start" x="391" y="-309.7" font-family="Helvetica,sans-Serif" font-size="14.00">numeric__stem&#45;height ≤ 3.775</text>
<text text-anchor="start" x="437.5" y="-293.2" font-family="Helvetica,sans-Serif" font-size="14.00">entropy = 0.665</text>
<text text-anchor="start" x="431.88" y="-276.7" font-family="Helvetica,sans-Serif" font-size="14.00">samples = 13173</text>
<text text-anchor="start" x="418.38" y="-260.2" font-family="Helvetica,sans-Serif" font-size="14.00">value = [2284, 10889]</text>
<text text-anchor="start" x="430" y="-243.7" font-family="Helvetica,sans-Serif" font-size="14.00">class = poisonous</text>
</g>
<!-- 2&#45;&gt;3 -->
<g id="edge3" class="edge">
<title>2&#45;&gt;3</title>
<path fill="none" stroke="black" d="M796.94,-374.29C737.07,-356.59 663.36,-334.79 602.88,-316.91"/>
<polygon fill="black" stroke="black" points="604.17,-313.64 593.59,-314.16 602.19,-320.35 604.17,-313.64"/>
</g>
<!-- 10 -->
<g id="node11" class="node">
<title>10</title>
<path fill="#d4eaf9" stroke="black" d="M993.62,-327C993.62,-327 823.12,-327 823.12,-327 817.12,-327 811.12,-321 811.12,-315 811.12,-315 811.12,-248.5 811.12,-248.5 811.12,-242.5 817.12,-236.5 823.12,-236.5 823.12,-236.5 993.62,-236.5 993.62,-236.5 999.62,-236.5 1005.62,-242.5 1005.62,-248.5 1005.62,-248.5 1005.62,-315 1005.62,-315 1005.62,-321 999.62,-327 993.62,-327"/>
<text text-anchor="start" x="819.12" y="-309.7" font-family="Helvetica,sans-Serif" font-size="14.00">categorical__habitat_g ≤ 0.5</text>
<text text-anchor="start" x="858.5" y="-293.2" font-family="Helvetica,sans-Serif" font-size="14.00">entropy = 0.989</text>
<text text-anchor="start" x="857" y="-276.7" font-family="Helvetica,sans-Serif" font-size="14.00">samples = 4787</text>
<text text-anchor="start" x="843.5" y="-260.2" font-family="Helvetica,sans-Serif" font-size="14.00">value = [2100, 2687]</text>
<text text-anchor="start" x="851" y="-243.7" font-family="Helvetica,sans-Serif" font-size="14.00">class = poisonous</text>
</g>
<!-- 2&#45;&gt;10 -->
<g id="edge10" class="edge">
<title>2&#45;&gt;10</title>
<path fill="none" stroke="black" d="M908.38,-362.65C908.38,-354.97 908.38,-346.89 908.38,-338.94"/>
<polygon fill="black" stroke="black" points="911.88,-338.97 908.38,-328.97 904.88,-338.97 911.88,-338.97"/>
</g>
<!-- 4 -->
<g id="node5" class="node">
<title>4</title>
<path fill="#3d9fe5" stroke="black" d="M303.75,-200.5C303.75,-200.5 125,-200.5 125,-200.5 119,-200.5 113,-194.5 113,-188.5 113,-188.5 113,-122 113,-122 113,-116 119,-110 125,-110 125,-110 303.75,-110 303.75,-110 309.75,-110 315.75,-116 315.75,-122 315.75,-122 315.75,-188.5 315.75,-188.5 315.75,-194.5 309.75,-200.5 303.75,-200.5"/>
<text text-anchor="start" x="121" y="-183.2" font-family="Helvetica,sans-Serif" font-size="14.00">numeric__stem&#45;width ≤ 3.785</text>
<text text-anchor="start" x="164.5" y="-166.7" font-family="Helvetica,sans-Serif" font-size="14.00">entropy = 0.129</text>
<text text-anchor="start" x="163" y="-150.2" font-family="Helvetica,sans-Serif" font-size="14.00">samples = 2798</text>
<text text-anchor="start" x="157.75" y="-133.7" font-family="Helvetica,sans-Serif" font-size="14.00">value = [50, 2748]</text>
<text text-anchor="start" x="157" y="-117.2" font-family="Helvetica,sans-Serif" font-size="14.00">class = poisonous</text>
</g>
<!-- 3&#45;&gt;4 -->
<g id="edge4" class="edge">
<title>3&#45;&gt;4</title>
<path fill="none" stroke="black" d="M389.59,-236.15C367.93,-226.28 344.85,-215.75 322.79,-205.69"/>
<polygon fill="black" stroke="black" points="324.33,-202.55 313.78,-201.58 321.42,-208.91 324.33,-202.55"/>
</g>
<!-- 7 -->
<g id="node8" class="node">
<title>7</title>
<path fill="#6fb8ec" stroke="black" d="M589.5,-200.5C589.5,-200.5 385.25,-200.5 385.25,-200.5 379.25,-200.5 373.25,-194.5 373.25,-188.5 373.25,-188.5 373.25,-122 373.25,-122 373.25,-116 379.25,-110 385.25,-110 385.25,-110 589.5,-110 589.5,-110 595.5,-110 601.5,-116 601.5,-122 601.5,-122 601.5,-188.5 601.5,-188.5 601.5,-194.5 595.5,-200.5 589.5,-200.5"/>
<text text-anchor="start" x="381.25" y="-183.2" font-family="Helvetica,sans-Serif" font-size="14.00">categorical__cap&#45;surface_g ≤ 0.5</text>
<text text-anchor="start" x="437.5" y="-166.7" font-family="Helvetica,sans-Serif" font-size="14.00">entropy = 0.752</text>
<text text-anchor="start" x="431.88" y="-150.2" font-family="Helvetica,sans-Serif" font-size="14.00">samples = 10375</text>
<text text-anchor="start" x="422.5" y="-133.7" font-family="Helvetica,sans-Serif" font-size="14.00">value = [2234, 8141]</text>
<text text-anchor="start" x="430" y="-117.2" font-family="Helvetica,sans-Serif" font-size="14.00">class = poisonous</text>
</g>
<!-- 3&#45;&gt;7 -->
<g id="edge7" class="edge">
<title>3&#45;&gt;7</title>
<path fill="none" stroke="black" d="M487.38,-236.15C487.38,-228.47 487.38,-220.39 487.38,-212.44"/>
<polygon fill="black" stroke="black" points="490.88,-212.47 487.38,-202.47 483.88,-212.47 490.88,-212.47"/>
</g>
<!-- 5 -->
<g id="node6" class="node">
<title>5</title>
<path fill="#399de5" stroke="black" d="M118.75,-74C118.75,-74 12,-74 12,-74 6,-74 0,-68 0,-62 0,-62 0,-12 0,-12 0,-6 6,0 12,0 12,0 118.75,0 118.75,0 124.75,0 130.75,-6 130.75,-12 130.75,-12 130.75,-62 130.75,-62 130.75,-68 124.75,-74 118.75,-74"/>
<text text-anchor="start" x="23.75" y="-56.7" font-family="Helvetica,sans-Serif" font-size="14.00">entropy = 0.0</text>
<text text-anchor="start" x="14" y="-40.2" font-family="Helvetica,sans-Serif" font-size="14.00">samples = 1620</text>
<text text-anchor="start" x="12.88" y="-23.7" font-family="Helvetica,sans-Serif" font-size="14.00">value = [0, 1620]</text>
<text text-anchor="start" x="8" y="-7.2" font-family="Helvetica,sans-Serif" font-size="14.00">class = poisonous</text>
</g>
<!-- 4&#45;&gt;5 -->
<g id="edge5" class="edge">
<title>4&#45;&gt;5</title>
<path fill="none" stroke="black" d="M157.19,-109.64C145.29,-100.35 132.76,-90.58 120.92,-81.34"/>
<polygon fill="black" stroke="black" points="123.25,-78.72 113.21,-75.32 118.95,-84.24 123.25,-78.72"/>
</g>
<!-- 6 -->
<g id="node7" class="node">
<title>6</title>
<path fill="#42a1e6" stroke="black" d="M267.75,-74C267.75,-74 161,-74 161,-74 155,-74 149,-68 149,-62 149,-62 149,-12 149,-12 149,-6 155,0 161,0 161,0 267.75,0 267.75,0 273.75,0 279.75,-6 279.75,-12 279.75,-12 279.75,-62 279.75,-62 279.75,-68 273.75,-74 267.75,-74"/>
<text text-anchor="start" x="164.5" y="-56.7" font-family="Helvetica,sans-Serif" font-size="14.00">entropy = 0.253</text>
<text text-anchor="start" x="163" y="-40.2" font-family="Helvetica,sans-Serif" font-size="14.00">samples = 1178</text>
<text text-anchor="start" x="157.75" y="-23.7" font-family="Helvetica,sans-Serif" font-size="14.00">value = [50, 1128]</text>
<text text-anchor="start" x="157" y="-7.2" font-family="Helvetica,sans-Serif" font-size="14.00">class = poisonous</text>
</g>
<!-- 4&#45;&gt;6 -->
<g id="edge6" class="edge">
<title>4&#45;&gt;6</title>
<path fill="none" stroke="black" d="M214.38,-109.64C214.38,-101.81 214.38,-93.63 214.38,-85.72"/>
<polygon fill="black" stroke="black" points="217.88,-85.91 214.38,-75.91 210.88,-85.91 217.88,-85.91"/>
</g>
<!-- 8 -->
<g id="node9" class="node">
<title>8</title>
<path fill="#63b2ea" stroke="black" d="M431.25,-74C431.25,-74 309.5,-74 309.5,-74 303.5,-74 297.5,-68 297.5,-62 297.5,-62 297.5,-12 297.5,-12 297.5,-6 303.5,0 309.5,0 309.5,0 431.25,0 431.25,0 437.25,0 443.25,-6 443.25,-12 443.25,-12 443.25,-62 443.25,-62 443.25,-68 437.25,-74 431.25,-74"/>
<text text-anchor="start" x="320.5" y="-56.7" font-family="Helvetica,sans-Serif" font-size="14.00">entropy = 0.666</text>
<text text-anchor="start" x="319" y="-40.2" font-family="Helvetica,sans-Serif" font-size="14.00">samples = 9095</text>
<text text-anchor="start" x="305.5" y="-23.7" font-family="Helvetica,sans-Serif" font-size="14.00">value = [1581, 7514]</text>
<text text-anchor="start" x="313" y="-7.2" font-family="Helvetica,sans-Serif" font-size="14.00">class = poisonous</text>
</g>
<!-- 7&#45;&gt;8 -->
<g id="edge8" class="edge">
<title>7&#45;&gt;8</title>
<path fill="none" stroke="black" d="M442.47,-109.64C433.49,-100.72 424.06,-91.34 415.09,-82.43"/>
<polygon fill="black" stroke="black" points="417.64,-80.03 408.08,-75.46 412.7,-84.99 417.64,-80.03"/>
</g>
<!-- 9 -->
<g id="node10" class="node">
<title>9</title>
<path fill="#fefaf7" stroke="black" d="M579,-74C579,-74 473.75,-74 473.75,-74 467.75,-74 461.75,-68 461.75,-62 461.75,-62 461.75,-12 461.75,-12 461.75,-6 467.75,0 473.75,0 473.75,0 579,0 579,0 585,0 591,-6 591,-12 591,-12 591,-62 591,-62 591,-68 585,-74 579,-74"/>
<text text-anchor="start" x="484.75" y="-56.7" font-family="Helvetica,sans-Serif" font-size="14.00">entropy = 1.0</text>
<text text-anchor="start" x="475" y="-40.2" font-family="Helvetica,sans-Serif" font-size="14.00">samples = 1280</text>
<text text-anchor="start" x="469.75" y="-23.7" font-family="Helvetica,sans-Serif" font-size="14.00">value = [653, 627]</text>
<text text-anchor="start" x="482.5" y="-7.2" font-family="Helvetica,sans-Serif" font-size="14.00">class = edible</text>
</g>
<!-- 7&#45;&gt;9 -->
<g id="edge9" class="edge">
<title>7&#45;&gt;9</title>
<path fill="none" stroke="black" d="M502.34,-109.64C505.03,-101.63 507.84,-93.25 510.55,-85.17"/>
<polygon fill="black" stroke="black" points="513.82,-86.42 513.68,-75.83 507.19,-84.2 513.82,-86.42"/>
</g>
<!-- 11 -->
<g id="node12" class="node">
<title>11</title>
<path fill="#fcf2ea" stroke="black" d="M882.5,-200.5C882.5,-200.5 702.25,-200.5 702.25,-200.5 696.25,-200.5 690.25,-194.5 690.25,-188.5 690.25,-188.5 690.25,-122 690.25,-122 690.25,-116 696.25,-110 702.25,-110 702.25,-110 882.5,-110 882.5,-110 888.5,-110 894.5,-116 894.5,-122 894.5,-122 894.5,-188.5 894.5,-188.5 894.5,-194.5 888.5,-200.5 882.5,-200.5"/>
<text text-anchor="start" x="698.25" y="-183.2" font-family="Helvetica,sans-Serif" font-size="14.00">categorical__ring&#45;type_f ≤ 0.5</text>
<text text-anchor="start" x="742.5" y="-166.7" font-family="Helvetica,sans-Serif" font-size="14.00">entropy = 0.998</text>
<text text-anchor="start" x="741" y="-150.2" font-family="Helvetica,sans-Serif" font-size="14.00">samples = 3836</text>
<text text-anchor="start" x="727.5" y="-133.7" font-family="Helvetica,sans-Serif" font-size="14.00">value = [2024, 1812]</text>
<text text-anchor="start" x="748.5" y="-117.2" font-family="Helvetica,sans-Serif" font-size="14.00">class = edible</text>
</g>
<!-- 10&#45;&gt;11 -->
<g id="edge11" class="edge">
<title>10&#45;&gt;11</title>
<path fill="none" stroke="black" d="M866.82,-236.15C858.66,-227.39 850.02,-218.12 841.64,-209.12"/>
<polygon fill="black" stroke="black" points="844.44,-206.99 835.06,-202.06 839.31,-211.76 844.44,-206.99"/>
</g>
<!-- 14 -->
<g id="node15" class="node">
<title>14</title>
<path fill="#4aa6e7" stroke="black" d="M1123.88,-200.5C1123.88,-200.5 924.88,-200.5 924.88,-200.5 918.88,-200.5 912.88,-194.5 912.88,-188.5 912.88,-188.5 912.88,-122 912.88,-122 912.88,-116 918.88,-110 924.88,-110 924.88,-110 1123.88,-110 1123.88,-110 1129.88,-110 1135.88,-116 1135.88,-122 1135.88,-122 1135.88,-188.5 1135.88,-188.5 1135.88,-194.5 1129.88,-200.5 1123.88,-200.5"/>
<text text-anchor="start" x="920.88" y="-183.2" font-family="Helvetica,sans-Serif" font-size="14.00">categorical__cap&#45;surface_l ≤ 0.5</text>
<text text-anchor="start" x="974.5" y="-166.7" font-family="Helvetica,sans-Serif" font-size="14.00">entropy = 0.402</text>
<text text-anchor="start" x="977.12" y="-150.2" font-family="Helvetica,sans-Serif" font-size="14.00">samples = 951</text>
<text text-anchor="start" x="971.88" y="-133.7" font-family="Helvetica,sans-Serif" font-size="14.00">value = [76, 875]</text>
<text text-anchor="start" x="967" y="-117.2" font-family="Helvetica,sans-Serif" font-size="14.00">class = poisonous</text>
</g>
<!-- 10&#45;&gt;14 -->
<g id="edge14" class="edge">
<title>10&#45;&gt;14</title>
<path fill="none" stroke="black" d="M949.93,-236.15C958.09,-227.39 966.73,-218.12 975.11,-209.12"/>
<polygon fill="black" stroke="black" points="977.44,-211.76 981.69,-202.06 972.31,-206.99 977.44,-211.76"/>
</g>
<!-- 12 -->
<g id="node13" class="node">
<title>12</title>
<path fill="#399de5" stroke="black" d="M727.75,-74C727.75,-74 621,-74 621,-74 615,-74 609,-68 609,-62 609,-62 609,-12 609,-12 609,-6 615,0 621,0 621,0 727.75,0 727.75,0 733.75,0 739.75,-6 739.75,-12 739.75,-12 739.75,-62 739.75,-62 739.75,-68 733.75,-74 727.75,-74"/>
<text text-anchor="start" x="632.75" y="-56.7" font-family="Helvetica,sans-Serif" font-size="14.00">entropy = 0.0</text>
<text text-anchor="start" x="627.12" y="-40.2" font-family="Helvetica,sans-Serif" font-size="14.00">samples = 460</text>
<text text-anchor="start" x="626" y="-23.7" font-family="Helvetica,sans-Serif" font-size="14.00">value = [0, 460]</text>
<text text-anchor="start" x="617" y="-7.2" font-family="Helvetica,sans-Serif" font-size="14.00">class = poisonous</text>
</g>
<!-- 11&#45;&gt;12 -->
<g id="edge12" class="edge">
<title>11&#45;&gt;12</title>
<path fill="none" stroke="black" d="M747.09,-109.64C738.03,-100.72 728.52,-91.34 719.47,-82.43"/>
<polygon fill="black" stroke="black" points="721.97,-79.98 712.39,-75.46 717.06,-84.97 721.97,-79.98"/>
</g>
<!-- 13 -->
<g id="node14" class="node">
<title>13</title>
<path fill="#f6d5bd" stroke="black" d="M891.25,-74C891.25,-74 769.5,-74 769.5,-74 763.5,-74 757.5,-68 757.5,-62 757.5,-62 757.5,-12 757.5,-12 757.5,-6 763.5,0 769.5,0 769.5,0 891.25,0 891.25,0 897.25,0 903.25,-6 903.25,-12 903.25,-12 903.25,-62 903.25,-62 903.25,-68 897.25,-74 891.25,-74"/>
<text text-anchor="start" x="780.5" y="-56.7" font-family="Helvetica,sans-Serif" font-size="14.00">entropy = 0.971</text>
<text text-anchor="start" x="779" y="-40.2" font-family="Helvetica,sans-Serif" font-size="14.00">samples = 3376</text>
<text text-anchor="start" x="765.5" y="-23.7" font-family="Helvetica,sans-Serif" font-size="14.00">value = [2024, 1352]</text>
<text text-anchor="start" x="786.5" y="-7.2" font-family="Helvetica,sans-Serif" font-size="14.00">class = edible</text>
</g>
<!-- 11&#45;&gt;13 -->
<g id="edge13" class="edge">
<title>11&#45;&gt;13</title>
<path fill="none" stroke="black" d="M806.96,-109.64C809.58,-101.63 812.31,-93.25 814.96,-85.17"/>
<polygon fill="black" stroke="black" points="818.23,-86.42 818.01,-75.83 811.57,-84.25 818.23,-86.42"/>
</g>
<!-- 15 -->
<g id="node16" class="node">
<title>15</title>
<path fill="#3fa0e6" stroke="black" d="M1039.75,-74C1039.75,-74 933,-74 933,-74 927,-74 921,-68 921,-62 921,-62 921,-12 921,-12 921,-6 927,0 933,0 933,0 1039.75,0 1039.75,0 1045.75,0 1051.75,-6 1051.75,-12 1051.75,-12 1051.75,-62 1051.75,-62 1051.75,-68 1045.75,-74 1039.75,-74"/>
<text text-anchor="start" x="936.5" y="-56.7" font-family="Helvetica,sans-Serif" font-size="14.00">entropy = 0.183</text>
<text text-anchor="start" x="939.12" y="-40.2" font-family="Helvetica,sans-Serif" font-size="14.00">samples = 900</text>
<text text-anchor="start" x="933.88" y="-23.7" font-family="Helvetica,sans-Serif" font-size="14.00">value = [25, 875]</text>
<text text-anchor="start" x="929" y="-7.2" font-family="Helvetica,sans-Serif" font-size="14.00">class = poisonous</text>
</g>
<!-- 14&#45;&gt;15 -->
<g id="edge15" class="edge">
<title>14&#45;&gt;15</title>
<path fill="none" stroke="black" d="M1009.79,-109.64C1007.17,-101.63 1004.44,-93.25 1001.79,-85.17"/>
<polygon fill="black" stroke="black" points="1005.18,-84.25 998.74,-75.83 998.52,-86.42 1005.18,-84.25"/>
</g>
<!-- 16 -->
<g id="node17" class="node">
<title>16</title>
<path fill="#e58139" stroke="black" d="M1162.62,-74C1162.62,-74 1082.12,-74 1082.12,-74 1076.12,-74 1070.12,-68 1070.12,-62 1070.12,-62 1070.12,-12 1070.12,-12 1070.12,-6 1076.12,0 1082.12,0 1082.12,0 1162.62,0 1162.62,0 1168.62,0 1174.62,-6 1174.62,-12 1174.62,-12 1174.62,-62 1174.62,-62 1174.62,-68 1168.62,-74 1162.62,-74"/>
<text text-anchor="start" x="1080.75" y="-56.7" font-family="Helvetica,sans-Serif" font-size="14.00">entropy = 0.0</text>
<text text-anchor="start" x="1079.25" y="-40.2" font-family="Helvetica,sans-Serif" font-size="14.00">samples = 51</text>
<text text-anchor="start" x="1078.12" y="-23.7" font-family="Helvetica,sans-Serif" font-size="14.00">value = [51, 0]</text>
<text text-anchor="start" x="1078.5" y="-7.2" font-family="Helvetica,sans-Serif" font-size="14.00">class = edible</text>
</g>
<!-- 14&#45;&gt;16 -->
<g id="edge16" class="edge">
<title>14&#45;&gt;16</title>
<path fill="none" stroke="black" d="M1061.98,-109.64C1069.35,-100.9 1077.08,-91.73 1084.46,-82.97"/>
<polygon fill="black" stroke="black" points="1086.95,-85.45 1090.72,-75.55 1081.6,-80.94 1086.95,-85.45"/>
</g>
<!-- 18 -->
<g id="node19" class="node">
<title>18</title>
<path fill="#6fb8ec" stroke="black" d="M1657.75,-327C1657.75,-327 1479,-327 1479,-327 1473,-327 1467,-321 1467,-315 1467,-315 1467,-248.5 1467,-248.5 1467,-242.5 1473,-236.5 1479,-236.5 1479,-236.5 1657.75,-236.5 1657.75,-236.5 1663.75,-236.5 1669.75,-242.5 1669.75,-248.5 1669.75,-248.5 1669.75,-315 1669.75,-315 1669.75,-321 1663.75,-327 1657.75,-327"/>
<text text-anchor="start" x="1475" y="-309.7" font-family="Helvetica,sans-Serif" font-size="14.00">numeric__stem&#45;width ≤ 3.015</text>
<text text-anchor="start" x="1518.5" y="-293.2" font-family="Helvetica,sans-Serif" font-size="14.00">entropy = 0.751</text>
<text text-anchor="start" x="1521.12" y="-276.7" font-family="Helvetica,sans-Serif" font-size="14.00">samples = 939</text>
<text text-anchor="start" x="1511.75" y="-260.2" font-family="Helvetica,sans-Serif" font-size="14.00">value = [202, 737]</text>
<text text-anchor="start" x="1511" y="-243.7" font-family="Helvetica,sans-Serif" font-size="14.00">class = poisonous</text>
</g>
<!-- 17&#45;&gt;18 -->
<g id="edge18" class="edge">
<title>17&#45;&gt;18</title>
<path fill="none" stroke="black" d="M1643.47,-362.65C1635.23,-353.89 1626.52,-344.62 1618.06,-335.62"/>
<polygon fill="black" stroke="black" points="1620.82,-333.45 1611.42,-328.56 1615.72,-338.24 1620.82,-333.45"/>
</g>
<!-- 25 -->
<g id="node26" class="node">
<title>25</title>
<path fill="#ea985e" stroke="black" d="M1902.88,-327C1902.88,-327 1703.88,-327 1703.88,-327 1697.88,-327 1691.88,-321 1691.88,-315 1691.88,-315 1691.88,-248.5 1691.88,-248.5 1691.88,-242.5 1697.88,-236.5 1703.88,-236.5 1703.88,-236.5 1902.88,-236.5 1902.88,-236.5 1908.88,-236.5 1914.88,-242.5 1914.88,-248.5 1914.88,-248.5 1914.88,-315 1914.88,-315 1914.88,-321 1908.88,-327 1902.88,-327"/>
<text text-anchor="start" x="1699.88" y="-309.7" font-family="Helvetica,sans-Serif" font-size="14.00">categorical__cap&#45;surface_l ≤ 0.5</text>
<text text-anchor="start" x="1753.5" y="-293.2" font-family="Helvetica,sans-Serif" font-size="14.00">entropy = 0.625</text>
<text text-anchor="start" x="1752" y="-276.7" font-family="Helvetica,sans-Serif" font-size="14.00">samples = 2471</text>
<text text-anchor="start" x="1742.62" y="-260.2" font-family="Helvetica,sans-Serif" font-size="14.00">value = [2085, 386]</text>
<text text-anchor="start" x="1759.5" y="-243.7" font-family="Helvetica,sans-Serif" font-size="14.00">class = edible</text>
</g>
<!-- 17&#45;&gt;25 -->
<g id="edge25" class="edge">
<title>17&#45;&gt;25</title>
<path fill="none" stroke="black" d="M1727.64,-362.65C1735.95,-353.89 1744.73,-344.62 1753.26,-335.62"/>
<polygon fill="black" stroke="black" points="1755.63,-338.22 1759.96,-328.55 1750.55,-333.4 1755.63,-338.22"/>
</g>
<!-- 19 -->
<g id="node20" class="node">
<title>19</title>
<path fill="#3c9ee5" stroke="black" d="M1435,-200.5C1435,-200.5 1239.75,-200.5 1239.75,-200.5 1233.75,-200.5 1227.75,-194.5 1227.75,-188.5 1227.75,-188.5 1227.75,-122 1227.75,-122 1227.75,-116 1233.75,-110 1239.75,-110 1239.75,-110 1435,-110 1435,-110 1441,-110 1447,-116 1447,-122 1447,-122 1447,-188.5 1447,-188.5 1447,-194.5 1441,-200.5 1435,-200.5"/>
<text text-anchor="start" x="1235.75" y="-183.2" font-family="Helvetica,sans-Serif" font-size="14.00">categorical__stem&#45;color_y ≤ 0.5</text>
<text text-anchor="start" x="1287.5" y="-166.7" font-family="Helvetica,sans-Serif" font-size="14.00">entropy = 0.103</text>
<text text-anchor="start" x="1290.12" y="-150.2" font-family="Helvetica,sans-Serif" font-size="14.00">samples = 746</text>
<text text-anchor="start" x="1284.88" y="-133.7" font-family="Helvetica,sans-Serif" font-size="14.00">value = [10, 736]</text>
<text text-anchor="start" x="1280" y="-117.2" font-family="Helvetica,sans-Serif" font-size="14.00">class = poisonous</text>
</g>
<!-- 18&#45;&gt;19 -->
<g id="edge19" class="edge">
<title>18&#45;&gt;19</title>
<path fill="none" stroke="black" d="M1485.63,-236.15C1467.72,-226.5 1448.66,-216.23 1430.38,-206.38"/>
<polygon fill="black" stroke="black" points="1432.11,-203.33 1421.65,-201.67 1428.79,-209.5 1432.11,-203.33"/>
</g>
<!-- 22 -->
<g id="node23" class="node">
<title>22</title>
<path fill="#e5823a" stroke="black" d="M1659.25,-200.5C1659.25,-200.5 1477.5,-200.5 1477.5,-200.5 1471.5,-200.5 1465.5,-194.5 1465.5,-188.5 1465.5,-188.5 1465.5,-122 1465.5,-122 1465.5,-116 1471.5,-110 1477.5,-110 1477.5,-110 1659.25,-110 1659.25,-110 1665.25,-110 1671.25,-116 1671.25,-122 1671.25,-122 1671.25,-188.5 1671.25,-188.5 1671.25,-194.5 1665.25,-200.5 1659.25,-200.5"/>
<text text-anchor="start" x="1473.5" y="-183.2" font-family="Helvetica,sans-Serif" font-size="14.00">categorical__gill&#45;color_n ≤ 0.5</text>
<text text-anchor="start" x="1518.5" y="-166.7" font-family="Helvetica,sans-Serif" font-size="14.00">entropy = 0.047</text>
<text text-anchor="start" x="1521.12" y="-150.2" font-family="Helvetica,sans-Serif" font-size="14.00">samples = 193</text>
<text text-anchor="start" x="1520" y="-133.7" font-family="Helvetica,sans-Serif" font-size="14.00">value = [192, 1]</text>
<text text-anchor="start" x="1524.5" y="-117.2" font-family="Helvetica,sans-Serif" font-size="14.00">class = edible</text>
</g>
<!-- 18&#45;&gt;22 -->
<g id="edge22" class="edge">
<title>18&#45;&gt;22</title>
<path fill="none" stroke="black" d="M1568.38,-236.15C1568.38,-228.47 1568.38,-220.39 1568.38,-212.44"/>
<polygon fill="black" stroke="black" points="1571.88,-212.47 1568.38,-202.47 1564.88,-212.47 1571.88,-212.47"/>
</g>
<!-- 20 -->
<g id="node21" class="node">
<title>20</title>
<path fill="#3a9ee5" stroke="black" d="M1311.75,-74C1311.75,-74 1205,-74 1205,-74 1199,-74 1193,-68 1193,-62 1193,-62 1193,-12 1193,-12 1193,-6 1199,0 1205,0 1205,0 1311.75,0 1311.75,0 1317.75,0 1323.75,-6 1323.75,-12 1323.75,-12 1323.75,-62 1323.75,-62 1323.75,-68 1317.75,-74 1311.75,-74"/>
<text text-anchor="start" x="1208.5" y="-56.7" font-family="Helvetica,sans-Serif" font-size="14.00">entropy = 0.058</text>
<text text-anchor="start" x="1211.12" y="-40.2" font-family="Helvetica,sans-Serif" font-size="14.00">samples = 741</text>
<text text-anchor="start" x="1210" y="-23.7" font-family="Helvetica,sans-Serif" font-size="14.00">value = [5, 736]</text>
<text text-anchor="start" x="1201" y="-7.2" font-family="Helvetica,sans-Serif" font-size="14.00">class = poisonous</text>
</g>
<!-- 19&#45;&gt;20 -->
<g id="edge20" class="edge">
<title>19&#45;&gt;20</title>
<path fill="none" stroke="black" d="M1307.06,-109.64C1301.3,-101.17 1295.27,-92.3 1289.5,-83.8"/>
<polygon fill="black" stroke="black" points="1292.47,-81.95 1283.96,-75.65 1286.68,-85.88 1292.47,-81.95"/>
</g>
<!-- 21 -->
<g id="node22" class="node">
<title>21</title>
<path fill="#e58139" stroke="black" d="M1433.25,-74C1433.25,-74 1353.5,-74 1353.5,-74 1347.5,-74 1341.5,-68 1341.5,-62 1341.5,-62 1341.5,-12 1341.5,-12 1341.5,-6 1347.5,0 1353.5,0 1353.5,0 1433.25,0 1433.25,0 1439.25,0 1445.25,-6 1445.25,-12 1445.25,-12 1445.25,-62 1445.25,-62 1445.25,-68 1439.25,-74 1433.25,-74"/>
<text text-anchor="start" x="1351.75" y="-56.7" font-family="Helvetica,sans-Serif" font-size="14.00">entropy = 0.0</text>
<text text-anchor="start" x="1354.38" y="-40.2" font-family="Helvetica,sans-Serif" font-size="14.00">samples = 5</text>
<text text-anchor="start" x="1353.25" y="-23.7" font-family="Helvetica,sans-Serif" font-size="14.00">value = [5, 0]</text>
<text text-anchor="start" x="1349.5" y="-7.2" font-family="Helvetica,sans-Serif" font-size="14.00">class = edible</text>
</g>
<!-- 19&#45;&gt;21 -->
<g id="edge21" class="edge">
<title>19&#45;&gt;21</title>
<path fill="none" stroke="black" d="M1358.87,-109.64C1362.81,-101.44 1366.94,-92.87 1370.92,-84.62"/>
<polygon fill="black" stroke="black" points="1374,-86.29 1375.19,-75.76 1367.69,-83.25 1374,-86.29"/>
</g>
<!-- 23 -->
<g id="node24" class="node">
<title>23</title>
<path fill="#e58139" stroke="black" d="M1563.75,-74C1563.75,-74 1475,-74 1475,-74 1469,-74 1463,-68 1463,-62 1463,-62 1463,-12 1463,-12 1463,-6 1469,0 1475,0 1475,0 1563.75,0 1563.75,0 1569.75,0 1575.75,-6 1575.75,-12 1575.75,-12 1575.75,-62 1575.75,-62 1575.75,-68 1569.75,-74 1563.75,-74"/>
<text text-anchor="start" x="1477.75" y="-56.7" font-family="Helvetica,sans-Serif" font-size="14.00">entropy = 0.0</text>
<text text-anchor="start" x="1472.12" y="-40.2" font-family="Helvetica,sans-Serif" font-size="14.00">samples = 192</text>
<text text-anchor="start" x="1471" y="-23.7" font-family="Helvetica,sans-Serif" font-size="14.00">value = [192, 0]</text>
<text text-anchor="start" x="1475.5" y="-7.2" font-family="Helvetica,sans-Serif" font-size="14.00">class = edible</text>
</g>
<!-- 22&#45;&gt;23 -->
<g id="edge23" class="edge">
<title>22&#45;&gt;23</title>
<path fill="none" stroke="black" d="M1549.57,-109.64C1546.16,-101.53 1542.58,-93.06 1539.14,-84.89"/>
<polygon fill="black" stroke="black" points="1542.41,-83.64 1535.3,-75.79 1535.96,-86.36 1542.41,-83.64"/>
</g>
<!-- 24 -->
<g id="node25" class="node">
<title>24</title>
<path fill="#399de5" stroke="black" d="M1712.75,-74C1712.75,-74 1606,-74 1606,-74 1600,-74 1594,-68 1594,-62 1594,-62 1594,-12 1594,-12 1594,-6 1600,0 1606,0 1606,0 1712.75,0 1712.75,0 1718.75,0 1724.75,-6 1724.75,-12 1724.75,-12 1724.75,-62 1724.75,-62 1724.75,-68 1718.75,-74 1712.75,-74"/>
<text text-anchor="start" x="1617.75" y="-56.7" font-family="Helvetica,sans-Serif" font-size="14.00">entropy = 0.0</text>
<text text-anchor="start" x="1620.38" y="-40.2" font-family="Helvetica,sans-Serif" font-size="14.00">samples = 1</text>
<text text-anchor="start" x="1619.25" y="-23.7" font-family="Helvetica,sans-Serif" font-size="14.00">value = [0, 1]</text>
<text text-anchor="start" x="1602" y="-7.2" font-family="Helvetica,sans-Serif" font-size="14.00">class = poisonous</text>
</g>
<!-- 22&#45;&gt;24 -->
<g id="edge24" class="edge">
<title>22&#45;&gt;24</title>
<path fill="none" stroke="black" d="M1603.3,-109.64C1610.07,-100.99 1617.17,-91.92 1623.96,-83.25"/>
<polygon fill="black" stroke="black" points="1626.55,-85.62 1629.95,-75.59 1621.03,-81.3 1626.55,-85.62"/>
</g>
<!-- 26 -->
<g id="node27" class="node">
<title>26</title>
<path fill="#e68742" stroke="black" d="M1905.5,-200.5C1905.5,-200.5 1701.25,-200.5 1701.25,-200.5 1695.25,-200.5 1689.25,-194.5 1689.25,-188.5 1689.25,-188.5 1689.25,-122 1689.25,-122 1689.25,-116 1695.25,-110 1701.25,-110 1701.25,-110 1905.5,-110 1905.5,-110 1911.5,-110 1917.5,-116 1917.5,-122 1917.5,-122 1917.5,-188.5 1917.5,-188.5 1917.5,-194.5 1911.5,-200.5 1905.5,-200.5"/>
<text text-anchor="start" x="1697.25" y="-183.2" font-family="Helvetica,sans-Serif" font-size="14.00">categorical__cap&#45;surface_d ≤ 0.5</text>
<text text-anchor="start" x="1753.5" y="-166.7" font-family="Helvetica,sans-Serif" font-size="14.00">entropy = 0.264</text>
<text text-anchor="start" x="1752" y="-150.2" font-family="Helvetica,sans-Serif" font-size="14.00">samples = 2183</text>
<text text-anchor="start" x="1746.75" y="-133.7" font-family="Helvetica,sans-Serif" font-size="14.00">value = [2085, 98]</text>
<text text-anchor="start" x="1759.5" y="-117.2" font-family="Helvetica,sans-Serif" font-size="14.00">class = edible</text>
</g>
<!-- 25&#45;&gt;26 -->
<g id="edge26" class="edge">
<title>25&#45;&gt;26</title>
<path fill="none" stroke="black" d="M1803.38,-236.15C1803.38,-228.47 1803.38,-220.39 1803.38,-212.44"/>
<polygon fill="black" stroke="black" points="1806.88,-212.47 1803.38,-202.47 1799.88,-212.47 1806.88,-212.47"/>
</g>
<!-- 29 -->
<g id="node30" class="node">
<title>29</title>
<path fill="#399de5" stroke="black" d="M2054.75,-192.25C2054.75,-192.25 1948,-192.25 1948,-192.25 1942,-192.25 1936,-186.25 1936,-180.25 1936,-180.25 1936,-130.25 1936,-130.25 1936,-124.25 1942,-118.25 1948,-118.25 1948,-118.25 2054.75,-118.25 2054.75,-118.25 2060.75,-118.25 2066.75,-124.25 2066.75,-130.25 2066.75,-130.25 2066.75,-180.25 2066.75,-180.25 2066.75,-186.25 2060.75,-192.25 2054.75,-192.25"/>
<text text-anchor="start" x="1959.75" y="-174.95" font-family="Helvetica,sans-Serif" font-size="14.00">entropy = 0.0</text>
<text text-anchor="start" x="1954.12" y="-158.45" font-family="Helvetica,sans-Serif" font-size="14.00">samples = 288</text>
<text text-anchor="start" x="1953" y="-141.95" font-family="Helvetica,sans-Serif" font-size="14.00">value = [0, 288]</text>
<text text-anchor="start" x="1944" y="-125.45" font-family="Helvetica,sans-Serif" font-size="14.00">class = poisonous</text>
</g>
<!-- 25&#45;&gt;29 -->
<g id="edge29" class="edge">
<title>25&#45;&gt;29</title>
<path fill="none" stroke="black" d="M1874.3,-236.15C1893.76,-223.92 1914.8,-210.69 1934.05,-198.58"/>
<polygon fill="black" stroke="black" points="1935.75,-201.65 1942.36,-193.36 1932.03,-195.72 1935.75,-201.65"/>
</g>
<!-- 27 -->
<g id="node28" class="node">
<title>27</title>
<path fill="#e58139" stroke="black" d="M1851.88,-74C1851.88,-74 1754.88,-74 1754.88,-74 1748.88,-74 1742.88,-68 1742.88,-62 1742.88,-62 1742.88,-12 1742.88,-12 1742.88,-6 1748.88,0 1754.88,0 1754.88,0 1851.88,0 1851.88,0 1857.88,0 1863.88,-6 1863.88,-12 1863.88,-12 1863.88,-62 1863.88,-62 1863.88,-68 1857.88,-74 1851.88,-74"/>
<text text-anchor="start" x="1753.5" y="-56.7" font-family="Helvetica,sans-Serif" font-size="14.00">entropy = 0.024</text>
<text text-anchor="start" x="1752" y="-40.2" font-family="Helvetica,sans-Serif" font-size="14.00">samples = 2090</text>
<text text-anchor="start" x="1750.88" y="-23.7" font-family="Helvetica,sans-Serif" font-size="14.00">value = [2085, 5]</text>
<text text-anchor="start" x="1759.5" y="-7.2" font-family="Helvetica,sans-Serif" font-size="14.00">class = edible</text>
</g>
<!-- 26&#45;&gt;27 -->
<g id="edge27" class="edge">
<title>26&#45;&gt;27</title>
<path fill="none" stroke="black" d="M1803.38,-109.64C1803.38,-101.81 1803.38,-93.63 1803.38,-85.72"/>
<polygon fill="black" stroke="black" points="1806.88,-85.91 1803.38,-75.91 1799.88,-85.91 1806.88,-85.91"/>
</g>
<!-- 28 -->
<g id="node29" class="node">
<title>28</title>
<path fill="#399de5" stroke="black" d="M2000.75,-74C2000.75,-74 1894,-74 1894,-74 1888,-74 1882,-68 1882,-62 1882,-62 1882,-12 1882,-12 1882,-6 1888,0 1894,0 1894,0 2000.75,0 2000.75,0 2006.75,0 2012.75,-6 2012.75,-12 2012.75,-12 2012.75,-62 2012.75,-62 2012.75,-68 2006.75,-74 2000.75,-74"/>
<text text-anchor="start" x="1905.75" y="-56.7" font-family="Helvetica,sans-Serif" font-size="14.00">entropy = 0.0</text>
<text text-anchor="start" x="1904.25" y="-40.2" font-family="Helvetica,sans-Serif" font-size="14.00">samples = 93</text>
<text text-anchor="start" x="1903.12" y="-23.7" font-family="Helvetica,sans-Serif" font-size="14.00">value = [0, 93]</text>
<text text-anchor="start" x="1890" y="-7.2" font-family="Helvetica,sans-Serif" font-size="14.00">class = poisonous</text>
</g>
<!-- 26&#45;&gt;28 -->
<g id="edge28" class="edge">
<title>26&#45;&gt;28</title>
<path fill="none" stroke="black" d="M1858.64,-109.64C1870.03,-100.44 1882.01,-90.77 1893.35,-81.61"/>
<polygon fill="black" stroke="black" points="1895.53,-84.35 1901.12,-75.34 1891.14,-78.9 1895.53,-84.35"/>
</g>
<!-- 31 -->
<g id="node32" class="node">
<title>31</title>
<path fill="#f9e1d0" stroke="black" d="M2291.5,-453.5C2291.5,-453.5 2105.25,-453.5 2105.25,-453.5 2099.25,-453.5 2093.25,-447.5 2093.25,-441.5 2093.25,-441.5 2093.25,-375 2093.25,-375 2093.25,-369 2099.25,-363 2105.25,-363 2105.25,-363 2291.5,-363 2291.5,-363 2297.5,-363 2303.5,-369 2303.5,-375 2303.5,-375 2303.5,-441.5 2303.5,-441.5 2303.5,-447.5 2297.5,-453.5 2291.5,-453.5"/>
<text text-anchor="start" x="2101.25" y="-436.2" font-family="Helvetica,sans-Serif" font-size="14.00">categorical__stem&#45;root_r ≤ 0.5</text>
<text text-anchor="start" x="2148.5" y="-419.7" font-family="Helvetica,sans-Serif" font-size="14.00">entropy = 0.987</text>
<text text-anchor="start" x="2142.88" y="-403.2" font-family="Helvetica,sans-Serif" font-size="14.00">samples = 26566</text>
<text text-anchor="start" x="2125.25" y="-386.7" font-family="Helvetica,sans-Serif" font-size="14.00">value = [15074, 11492]</text>
<text text-anchor="start" x="2154.5" y="-370.2" font-family="Helvetica,sans-Serif" font-size="14.00">class = edible</text>
</g>
<!-- 30&#45;&gt;31 -->
<g id="edge31" class="edge">
<title>30&#45;&gt;31</title>
<path fill="none" stroke="black" d="M2198.38,-489.15C2198.38,-481.47 2198.38,-473.39 2198.38,-465.44"/>
<polygon fill="black" stroke="black" points="2201.88,-465.47 2198.38,-455.47 2194.88,-465.47 2201.88,-465.47"/>
</g>
<!-- 38 -->
<g id="node39" class="node">
<title>38</title>
<path fill="#399de5" stroke="black" d="M2440.75,-445.25C2440.75,-445.25 2334,-445.25 2334,-445.25 2328,-445.25 2322,-439.25 2322,-433.25 2322,-433.25 2322,-383.25 2322,-383.25 2322,-377.25 2328,-371.25 2334,-371.25 2334,-371.25 2440.75,-371.25 2440.75,-371.25 2446.75,-371.25 2452.75,-377.25 2452.75,-383.25 2452.75,-383.25 2452.75,-433.25 2452.75,-433.25 2452.75,-439.25 2446.75,-445.25 2440.75,-445.25"/>
<text text-anchor="start" x="2345.75" y="-427.95" font-family="Helvetica,sans-Serif" font-size="14.00">entropy = 0.0</text>
<text text-anchor="start" x="2340.12" y="-411.45" font-family="Helvetica,sans-Serif" font-size="14.00">samples = 919</text>
<text text-anchor="start" x="2339" y="-394.95" font-family="Helvetica,sans-Serif" font-size="14.00">value = [0, 919]</text>
<text text-anchor="start" x="2330" y="-378.45" font-family="Helvetica,sans-Serif" font-size="14.00">class = poisonous</text>
</g>
<!-- 30&#45;&gt;38 -->
<g id="edge38" class="edge">
<title>30&#45;&gt;38</title>
<path fill="none" stroke="black" d="M2266.07,-489.15C2284.57,-476.97 2304.55,-463.81 2322.86,-451.75"/>
<polygon fill="black" stroke="black" points="2324.57,-454.81 2331,-446.39 2320.72,-448.97 2324.57,-454.81"/>
</g>
<!-- 32 -->
<g id="node33" class="node">
<title>32</title>
<path fill="#f7dac5" stroke="black" d="M2289.62,-327C2289.62,-327 2107.12,-327 2107.12,-327 2101.12,-327 2095.12,-321 2095.12,-315 2095.12,-315 2095.12,-248.5 2095.12,-248.5 2095.12,-242.5 2101.12,-236.5 2107.12,-236.5 2107.12,-236.5 2289.62,-236.5 2289.62,-236.5 2295.62,-236.5 2301.62,-242.5 2301.62,-248.5 2301.62,-248.5 2301.62,-315 2301.62,-315 2301.62,-321 2295.62,-327 2289.62,-327"/>
<text text-anchor="start" x="2103.12" y="-309.7" font-family="Helvetica,sans-Serif" font-size="14.00">categorical__ring&#45;type_z ≤ 0.5</text>
<text text-anchor="start" x="2148.5" y="-293.2" font-family="Helvetica,sans-Serif" font-size="14.00">entropy = 0.978</text>
<text text-anchor="start" x="2142.88" y="-276.7" font-family="Helvetica,sans-Serif" font-size="14.00">samples = 25706</text>
<text text-anchor="start" x="2113.25" y="-260.2" font-family="Helvetica,sans-Serif" font-size="14.00">value = [15074.0, 10632.0]</text>
<text text-anchor="start" x="2154.5" y="-243.7" font-family="Helvetica,sans-Serif" font-size="14.00">class = edible</text>
</g>
<!-- 31&#45;&gt;32 -->
<g id="edge32" class="edge">
<title>31&#45;&gt;32</title>
<path fill="none" stroke="black" d="M2198.38,-362.65C2198.38,-354.97 2198.38,-346.89 2198.38,-338.94"/>
<polygon fill="black" stroke="black" points="2201.88,-338.97 2198.38,-328.97 2194.88,-338.97 2201.88,-338.97"/>
</g>
<!-- 37 -->
<g id="node38" class="node">
<title>37</title>
<path fill="#399de5" stroke="black" d="M2438.75,-318.75C2438.75,-318.75 2332,-318.75 2332,-318.75 2326,-318.75 2320,-312.75 2320,-306.75 2320,-306.75 2320,-256.75 2320,-256.75 2320,-250.75 2326,-244.75 2332,-244.75 2332,-244.75 2438.75,-244.75 2438.75,-244.75 2444.75,-244.75 2450.75,-250.75 2450.75,-256.75 2450.75,-256.75 2450.75,-306.75 2450.75,-306.75 2450.75,-312.75 2444.75,-318.75 2438.75,-318.75"/>
<text text-anchor="start" x="2343.75" y="-301.45" font-family="Helvetica,sans-Serif" font-size="14.00">entropy = 0.0</text>
<text text-anchor="start" x="2338.12" y="-284.95" font-family="Helvetica,sans-Serif" font-size="14.00">samples = 860</text>
<text text-anchor="start" x="2337" y="-268.45" font-family="Helvetica,sans-Serif" font-size="14.00">value = [0, 860]</text>
<text text-anchor="start" x="2328" y="-251.95" font-family="Helvetica,sans-Serif" font-size="14.00">class = poisonous</text>
</g>
<!-- 31&#45;&gt;37 -->
<g id="edge37" class="edge">
<title>31&#45;&gt;37</title>
<path fill="none" stroke="black" d="M2265.36,-362.65C2283.65,-350.47 2303.42,-337.31 2321.54,-325.25"/>
<polygon fill="black" stroke="black" points="2323.2,-328.35 2329.58,-319.89 2319.32,-322.52 2323.2,-328.35"/>
</g>
<!-- 33 -->
<g id="node34" class="node">
<title>33</title>
<path fill="#f6d3ba" stroke="black" d="M2300.12,-200.5C2300.12,-200.5 2096.62,-200.5 2096.62,-200.5 2090.62,-200.5 2084.62,-194.5 2084.62,-188.5 2084.62,-188.5 2084.62,-122 2084.62,-122 2084.62,-116 2090.62,-110 2096.62,-110 2096.62,-110 2300.12,-110 2300.12,-110 2306.12,-110 2312.12,-116 2312.12,-122 2312.12,-122 2312.12,-188.5 2312.12,-188.5 2312.12,-194.5 2306.12,-200.5 2300.12,-200.5"/>
<text text-anchor="start" x="2092.62" y="-183.2" font-family="Helvetica,sans-Serif" font-size="14.00">categorical__cap&#45;surface_s ≤ 0.5</text>
<text text-anchor="start" x="2148.5" y="-166.7" font-family="Helvetica,sans-Serif" font-size="14.00">entropy = 0.968</text>
<text text-anchor="start" x="2142.88" y="-150.2" font-family="Helvetica,sans-Serif" font-size="14.00">samples = 24923</text>
<text text-anchor="start" x="2117.38" y="-133.7" font-family="Helvetica,sans-Serif" font-size="14.00">value = [15074.0, 9849.0]</text>
<text text-anchor="start" x="2154.5" y="-117.2" font-family="Helvetica,sans-Serif" font-size="14.00">class = edible</text>
</g>
<!-- 32&#45;&gt;33 -->
<g id="edge33" class="edge">
<title>32&#45;&gt;33</title>
<path fill="none" stroke="black" d="M2198.38,-236.15C2198.38,-228.47 2198.38,-220.39 2198.38,-212.44"/>
<polygon fill="black" stroke="black" points="2201.88,-212.47 2198.38,-202.47 2194.88,-212.47 2201.88,-212.47"/>
</g>
<!-- 36 -->
<g id="node37" class="node">
<title>36</title>
<path fill="#399de5" stroke="black" d="M2448.75,-192.25C2448.75,-192.25 2342,-192.25 2342,-192.25 2336,-192.25 2330,-186.25 2330,-180.25 2330,-180.25 2330,-130.25 2330,-130.25 2330,-124.25 2336,-118.25 2342,-118.25 2342,-118.25 2448.75,-118.25 2448.75,-118.25 2454.75,-118.25 2460.75,-124.25 2460.75,-130.25 2460.75,-130.25 2460.75,-180.25 2460.75,-180.25 2460.75,-186.25 2454.75,-192.25 2448.75,-192.25"/>
<text text-anchor="start" x="2353.75" y="-174.95" font-family="Helvetica,sans-Serif" font-size="14.00">entropy = 0.0</text>
<text text-anchor="start" x="2348.12" y="-158.45" font-family="Helvetica,sans-Serif" font-size="14.00">samples = 783</text>
<text text-anchor="start" x="2347" y="-141.95" font-family="Helvetica,sans-Serif" font-size="14.00">value = [0, 783]</text>
<text text-anchor="start" x="2338" y="-125.45" font-family="Helvetica,sans-Serif" font-size="14.00">class = poisonous</text>
</g>
<!-- 32&#45;&gt;36 -->
<g id="edge36" class="edge">
<title>32&#45;&gt;36</title>
<path fill="none" stroke="black" d="M2268.94,-236.15C2288.3,-223.92 2309.23,-210.69 2328.39,-198.58"/>
<polygon fill="black" stroke="black" points="2330.07,-201.66 2336.65,-193.36 2326.33,-195.75 2330.07,-201.66"/>
</g>
<!-- 34 -->
<g id="node35" class="node">
<title>34</title>
<path fill="#f9e3d3" stroke="black" d="M2236.38,-74C2236.38,-74 2082.38,-74 2082.38,-74 2076.38,-74 2070.38,-68 2070.38,-62 2070.38,-62 2070.38,-12 2070.38,-12 2070.38,-6 2076.38,0 2082.38,0 2082.38,0 2236.38,0 2236.38,0 2242.38,0 2248.38,-6 2248.38,-12 2248.38,-12 2248.38,-62 2248.38,-62 2248.38,-68 2242.38,-74 2236.38,-74"/>
<text text-anchor="start" x="2109.5" y="-56.7" font-family="Helvetica,sans-Serif" font-size="14.00">entropy = 0.989</text>
<text text-anchor="start" x="2103.88" y="-40.2" font-family="Helvetica,sans-Serif" font-size="14.00">samples = 21469</text>
<text text-anchor="start" x="2078.38" y="-23.7" font-family="Helvetica,sans-Serif" font-size="14.00">value = [12079.0, 9390.0]</text>
<text text-anchor="start" x="2115.5" y="-7.2" font-family="Helvetica,sans-Serif" font-size="14.00">class = edible</text>
</g>
<!-- 33&#45;&gt;34 -->
<g id="edge34" class="edge">
<title>33&#45;&gt;34</title>
<path fill="none" stroke="black" d="M2183.41,-109.64C2180.72,-101.63 2177.91,-93.25 2175.2,-85.17"/>
<polygon fill="black" stroke="black" points="2178.56,-84.2 2172.07,-75.83 2171.93,-86.42 2178.56,-84.2"/>
</g>
<!-- 35 -->
<g id="node36" class="node">
<title>35</title>
<path fill="#e99457" stroke="black" d="M2392.12,-74C2392.12,-74 2278.62,-74 2278.62,-74 2272.62,-74 2266.62,-68 2266.62,-62 2266.62,-62 2266.62,-12 2266.62,-12 2266.62,-6 2272.62,0 2278.62,0 2278.62,0 2392.12,0 2392.12,0 2398.12,0 2404.12,-6 2404.12,-12 2404.12,-12 2404.12,-62 2404.12,-62 2404.12,-68 2398.12,-74 2392.12,-74"/>
<text text-anchor="start" x="2285.5" y="-56.7" font-family="Helvetica,sans-Serif" font-size="14.00">entropy = 0.565</text>
<text text-anchor="start" x="2284" y="-40.2" font-family="Helvetica,sans-Serif" font-size="14.00">samples = 3454</text>
<text text-anchor="start" x="2274.62" y="-23.7" font-family="Helvetica,sans-Serif" font-size="14.00">value = [2995, 459]</text>
<text text-anchor="start" x="2291.5" y="-7.2" font-family="Helvetica,sans-Serif" font-size="14.00">class = edible</text>
</g>
<!-- 33&#45;&gt;35 -->
<g id="edge35" class="edge">
<title>33&#45;&gt;35</title>
<path fill="none" stroke="black" d="M2250.95,-109.64C2261.79,-100.44 2273.19,-90.77 2283.98,-81.61"/>
<polygon fill="black" stroke="black" points="2285.97,-84.51 2291.33,-75.37 2281.44,-79.17 2285.97,-84.51"/>
</g>
</g>
</svg>
