<?xml version="1.0" encoding="UTF-8" standalone="no"?>
<!DOCTYPE svg PUBLIC "-//W3C//DTD SVG 1.1//EN"
 "http://www.w3.org/Graphics/SVG/1.1/DTD/svg11.dtd">
<!-- Generated by graphviz version 10.0.1 (20240210.2158)
 -->
<!-- Title: Tree Pages: 1 -->
<svg width="2470pt" height="1347pt"
 viewBox="0.00 0.00 2470.00 1347.00" xmlns="http://www.w3.org/2000/svg" xmlns:xlink="http://www.w3.org/1999/xlink">
<g id="graph0" class="graph" transform="scale(1 1) rotate(0) translate(4 1343)">
<title>Tree</title>
<polygon fill="white" stroke="none" points="-4,4 -4,-1343 2466,-1343 2466,4 -4,4"/>
<!-- 0 -->
<g id="node1" class="node">
<title>0</title>
<path fill="#d8ecfa" stroke="black" d="M1353.75,-1339C1353.75,-1339 1175,-1339 1175,-1339 1169,-1339 1163,-1333 1163,-1327 1163,-1327 1163,-1260.5 1163,-1260.5 1163,-1254.5 1169,-1248.5 1175,-1248.5 1175,-1248.5 1353.75,-1248.5 1353.75,-1248.5 1359.75,-1248.5 1365.75,-1254.5 1365.75,-1260.5 1365.75,-1260.5 1365.75,-1327 1365.75,-1327 1365.75,-1333 1359.75,-1339 1353.75,-1339"/>
<text text-anchor="start" x="1171" y="-1321.7" font-family="Helvetica,sans-Serif" font-size="14.00">numeric__stem&#45;width ≤ 8.555</text>
<text text-anchor="start" x="1227.25" y="-1305.2" font-family="Helvetica,sans-Serif" font-size="14.00">gini = 0.494</text>
<text text-anchor="start" x="1208.88" y="-1288.7" font-family="Helvetica,sans-Serif" font-size="14.00">samples = 48855</text>
<text text-anchor="start" x="1191.25" y="-1272.2" font-family="Helvetica,sans-Serif" font-size="14.00">value = [21745, 27110]</text>
<text text-anchor="start" x="1207" y="-1255.7" font-family="Helvetica,sans-Serif" font-size="14.00">class = poisonous</text>
</g>
<!-- 1 -->
<g id="node2" class="node">
<title>1</title>
<path fill="#93c9f1" stroke="black" d="M1246.62,-1212.5C1246.62,-1212.5 1046.12,-1212.5 1046.12,-1212.5 1040.12,-1212.5 1034.12,-1206.5 1034.12,-1200.5 1034.12,-1200.5 1034.12,-1134 1034.12,-1134 1034.12,-1128 1040.12,-1122 1046.12,-1122 1046.12,-1122 1246.62,-1122 1246.62,-1122 1252.62,-1122 1258.62,-1128 1258.62,-1134 1258.62,-1134 1258.62,-1200.5 1258.62,-1200.5 1258.62,-1206.5 1252.62,-1212.5 1246.62,-1212.5"/>
<text text-anchor="start" x="1042.12" y="-1195.2" font-family="Helvetica,sans-Serif" font-size="14.00">categorical__gill&#45;spacing_d ≤ 0.5</text>
<text text-anchor="start" x="1109.25" y="-1178.7" font-family="Helvetica,sans-Serif" font-size="14.00">gini = 0.429</text>
<text text-anchor="start" x="1090.88" y="-1162.2" font-family="Helvetica,sans-Serif" font-size="14.00">samples = 21370</text>
<text text-anchor="start" x="1065.38" y="-1145.7" font-family="Helvetica,sans-Serif" font-size="14.00">value = [6671.0, 14699.0]</text>
<text text-anchor="start" x="1089" y="-1129.2" font-family="Helvetica,sans-Serif" font-size="14.00">class = poisonous</text>
</g>
<!-- 0&#45;&gt;1 -->
<g id="edge1" class="edge">
<title>0&#45;&gt;1</title>
<path fill="none" stroke="black" d="M1222.11,-1248.15C1213.8,-1239.39 1205.02,-1230.12 1196.49,-1221.12"/>
<polygon fill="black" stroke="black" points="1199.2,-1218.9 1189.79,-1214.05 1194.12,-1223.72 1199.2,-1218.9"/>
<text text-anchor="middle" x="1188.07" y="-1232.89" font-family="Helvetica,sans-Serif" font-size="14.00">True</text>
</g>
<!-- 28 -->
<g id="node29" class="node">
<title>28</title>
<path fill="#fae9dc" stroke="black" d="M1538.38,-1212.5C1538.38,-1212.5 1348.38,-1212.5 1348.38,-1212.5 1342.38,-1212.5 1336.38,-1206.5 1336.38,-1200.5 1336.38,-1200.5 1336.38,-1134 1336.38,-1134 1336.38,-1128 1342.38,-1122 1348.38,-1122 1348.38,-1122 1538.38,-1122 1538.38,-1122 1544.38,-1122 1550.38,-1128 1550.38,-1134 1550.38,-1134 1550.38,-1200.5 1550.38,-1200.5 1550.38,-1206.5 1544.38,-1212.5 1538.38,-1212.5"/>
<text text-anchor="start" x="1344.38" y="-1195.2" font-family="Helvetica,sans-Serif" font-size="14.00">categorical__stem&#45;root_b ≤ 0.5</text>
<text text-anchor="start" x="1406.25" y="-1178.7" font-family="Helvetica,sans-Serif" font-size="14.00">gini = 0.495</text>
<text text-anchor="start" x="1387.88" y="-1162.2" font-family="Helvetica,sans-Serif" font-size="14.00">samples = 27485</text>
<text text-anchor="start" x="1370.25" y="-1145.7" font-family="Helvetica,sans-Serif" font-size="14.00">value = [15074, 12411]</text>
<text text-anchor="start" x="1399.5" y="-1129.2" font-family="Helvetica,sans-Serif" font-size="14.00">class = edible</text>
</g>
<!-- 0&#45;&gt;28 -->
<g id="edge28" class="edge">
<title>0&#45;&gt;28</title>
<path fill="none" stroke="black" d="M1328.49,-1248.15C1341.86,-1238.86 1356.05,-1228.99 1369.73,-1219.47"/>
<polygon fill="black" stroke="black" points="1371.65,-1222.4 1377.86,-1213.82 1367.65,-1216.65 1371.65,-1222.4"/>
<text text-anchor="middle" x="1374.68" y="-1232.51" font-family="Helvetica,sans-Serif" font-size="14.00">False</text>
</g>
<!-- 2 -->
<g id="node3" class="node">
<title>2</title>
<path fill="#79bded" stroke="black" d="M905.5,-1086C905.5,-1086 707.25,-1086 707.25,-1086 701.25,-1086 695.25,-1080 695.25,-1074 695.25,-1074 695.25,-1007.5 695.25,-1007.5 695.25,-1001.5 701.25,-995.5 707.25,-995.5 707.25,-995.5 905.5,-995.5 905.5,-995.5 911.5,-995.5 917.5,-1001.5 917.5,-1007.5 917.5,-1007.5 917.5,-1074 917.5,-1074 917.5,-1080 911.5,-1086 905.5,-1086"/>
<text text-anchor="start" x="703.25" y="-1068.7" font-family="Helvetica,sans-Serif" font-size="14.00">categorical__stem&#45;color_w ≤ 0.5</text>
<text text-anchor="start" x="769.25" y="-1052.2" font-family="Helvetica,sans-Serif" font-size="14.00">gini = 0.369</text>
<text text-anchor="start" x="750.88" y="-1035.7" font-family="Helvetica,sans-Serif" font-size="14.00">samples = 17960</text>
<text text-anchor="start" x="737.38" y="-1019.2" font-family="Helvetica,sans-Serif" font-size="14.00">value = [4384, 13576]</text>
<text text-anchor="start" x="749" y="-1002.7" font-family="Helvetica,sans-Serif" font-size="14.00">class = poisonous</text>
</g>
<!-- 1&#45;&gt;2 -->
<g id="edge2" class="edge">
<title>1&#45;&gt;2</title>
<path fill="none" stroke="black" d="M1033.63,-1124.97C999.91,-1112.62 962.78,-1099.02 928.49,-1086.47"/>
<polygon fill="black" stroke="black" points="929.96,-1083.28 919.37,-1083.12 927.55,-1089.85 929.96,-1083.28"/>
</g>
<!-- 23 -->
<g id="node24" class="node">
<title>23</title>
<path fill="#f2bf9a" stroke="black" d="M1238.75,-1086C1238.75,-1086 1054,-1086 1054,-1086 1048,-1086 1042,-1080 1042,-1074 1042,-1074 1042,-1007.5 1042,-1007.5 1042,-1001.5 1048,-995.5 1054,-995.5 1054,-995.5 1238.75,-995.5 1238.75,-995.5 1244.75,-995.5 1250.75,-1001.5 1250.75,-1007.5 1250.75,-1007.5 1250.75,-1074 1250.75,-1074 1250.75,-1080 1244.75,-1086 1238.75,-1086"/>
<text text-anchor="start" x="1050" y="-1068.7" font-family="Helvetica,sans-Serif" font-size="14.00">numeric__stem&#45;height ≤ 3.815</text>
<text text-anchor="start" x="1109.25" y="-1052.2" font-family="Helvetica,sans-Serif" font-size="14.00">gini = 0.442</text>
<text text-anchor="start" x="1095" y="-1035.7" font-family="Helvetica,sans-Serif" font-size="14.00">samples = 3410</text>
<text text-anchor="start" x="1081.5" y="-1019.2" font-family="Helvetica,sans-Serif" font-size="14.00">value = [2287, 1123]</text>
<text text-anchor="start" x="1102.5" y="-1002.7" font-family="Helvetica,sans-Serif" font-size="14.00">class = edible</text>
</g>
<!-- 1&#45;&gt;23 -->
<g id="edge23" class="edge">
<title>1&#45;&gt;23</title>
<path fill="none" stroke="black" d="M1146.38,-1121.65C1146.38,-1113.97 1146.38,-1105.89 1146.38,-1097.94"/>
<polygon fill="black" stroke="black" points="1149.88,-1097.97 1146.38,-1087.97 1142.88,-1097.97 1149.88,-1097.97"/>
</g>
<!-- 3 -->
<g id="node4" class="node">
<title>3</title>
<path fill="#63b2ea" stroke="black" d="M631.5,-959.5C631.5,-959.5 427.25,-959.5 427.25,-959.5 421.25,-959.5 415.25,-953.5 415.25,-947.5 415.25,-947.5 415.25,-881 415.25,-881 415.25,-875 421.25,-869 427.25,-869 427.25,-869 631.5,-869 631.5,-869 637.5,-869 643.5,-875 643.5,-881 643.5,-881 643.5,-947.5 643.5,-947.5 643.5,-953.5 637.5,-959.5 631.5,-959.5"/>
<text text-anchor="start" x="423.25" y="-942.2" font-family="Helvetica,sans-Serif" font-size="14.00">categorical__cap&#45;surface_g ≤ 0.5</text>
<text text-anchor="start" x="492.25" y="-925.7" font-family="Helvetica,sans-Serif" font-size="14.00">gini = 0.287</text>
<text text-anchor="start" x="473.88" y="-909.2" font-family="Helvetica,sans-Serif" font-size="14.00">samples = 13173</text>
<text text-anchor="start" x="460.38" y="-892.7" font-family="Helvetica,sans-Serif" font-size="14.00">value = [2284, 10889]</text>
<text text-anchor="start" x="472" y="-876.2" font-family="Helvetica,sans-Serif" font-size="14.00">class = poisonous</text>
</g>
<!-- 2&#45;&gt;3 -->
<g id="edge3" class="edge">
<title>2&#45;&gt;3</title>
<path fill="none" stroke="black" d="M707.15,-995.15C685.08,-985.23 661.55,-974.66 639.08,-964.56"/>
<polygon fill="black" stroke="black" points="640.77,-961.48 630.21,-960.57 637.9,-967.87 640.77,-961.48"/>
</g>
<!-- 18 -->
<g id="node19" class="node">
<title>18</title>
<path fill="#d4eaf9" stroke="black" d="M891.62,-959.5C891.62,-959.5 721.12,-959.5 721.12,-959.5 715.12,-959.5 709.12,-953.5 709.12,-947.5 709.12,-947.5 709.12,-881 709.12,-881 709.12,-875 715.12,-869 721.12,-869 721.12,-869 891.62,-869 891.62,-869 897.62,-869 903.62,-875 903.62,-881 903.62,-881 903.62,-947.5 903.62,-947.5 903.62,-953.5 897.62,-959.5 891.62,-959.5"/>
<text text-anchor="start" x="717.12" y="-942.2" font-family="Helvetica,sans-Serif" font-size="14.00">categorical__habitat_d ≤ 0.5</text>
<text text-anchor="start" x="769.25" y="-925.7" font-family="Helvetica,sans-Serif" font-size="14.00">gini = 0.492</text>
<text text-anchor="start" x="755" y="-909.2" font-family="Helvetica,sans-Serif" font-size="14.00">samples = 4787</text>
<text text-anchor="start" x="741.5" y="-892.7" font-family="Helvetica,sans-Serif" font-size="14.00">value = [2100, 2687]</text>
<text text-anchor="start" x="749" y="-876.2" font-family="Helvetica,sans-Serif" font-size="14.00">class = poisonous</text>
</g>
<!-- 2&#45;&gt;18 -->
<g id="edge18" class="edge">
<title>2&#45;&gt;18</title>
<path fill="none" stroke="black" d="M806.38,-995.15C806.38,-987.47 806.38,-979.39 806.38,-971.44"/>
<polygon fill="black" stroke="black" points="809.88,-971.47 806.38,-961.47 802.88,-971.47 809.88,-971.47"/>
</g>
<!-- 4 -->
<g id="node5" class="node">
<title>4</title>
<path fill="#59ade9" stroke="black" d="M422.75,-833C422.75,-833 244,-833 244,-833 238,-833 232,-827 232,-821 232,-821 232,-754.5 232,-754.5 232,-748.5 238,-742.5 244,-742.5 244,-742.5 422.75,-742.5 422.75,-742.5 428.75,-742.5 434.75,-748.5 434.75,-754.5 434.75,-754.5 434.75,-821 434.75,-821 434.75,-827 428.75,-833 422.75,-833"/>
<text text-anchor="start" x="240" y="-815.7" font-family="Helvetica,sans-Serif" font-size="14.00">numeric__stem&#45;width ≤ 5.225</text>
<text text-anchor="start" x="296.25" y="-799.2" font-family="Helvetica,sans-Serif" font-size="14.00">gini = 0.241</text>
<text text-anchor="start" x="277.88" y="-782.7" font-family="Helvetica,sans-Serif" font-size="14.00">samples = 11660</text>
<text text-anchor="start" x="264.38" y="-766.2" font-family="Helvetica,sans-Serif" font-size="14.00">value = [1631, 10029]</text>
<text text-anchor="start" x="276" y="-749.7" font-family="Helvetica,sans-Serif" font-size="14.00">class = poisonous</text>
</g>
<!-- 3&#45;&gt;4 -->
<g id="edge4" class="edge">
<title>3&#45;&gt;4</title>
<path fill="none" stroke="black" d="M459.17,-868.65C444.25,-859.18 428.4,-849.11 413.15,-839.42"/>
<polygon fill="black" stroke="black" points="415.35,-836.67 405.03,-834.26 411.59,-842.58 415.35,-836.67"/>
</g>
<!-- 17 -->
<g id="node18" class="node">
<title>17</title>
<path fill="#cfe7f9" stroke="black" d="M594,-824.75C594,-824.75 464.75,-824.75 464.75,-824.75 458.75,-824.75 452.75,-818.75 452.75,-812.75 452.75,-812.75 452.75,-762.75 452.75,-762.75 452.75,-756.75 458.75,-750.75 464.75,-750.75 464.75,-750.75 594,-750.75 594,-750.75 600,-750.75 606,-756.75 606,-762.75 606,-762.75 606,-812.75 606,-812.75 606,-818.75 600,-824.75 594,-824.75"/>
<text text-anchor="start" x="492.25" y="-807.45" font-family="Helvetica,sans-Serif" font-size="14.00">gini = 0.491</text>
<text text-anchor="start" x="478" y="-790.95" font-family="Helvetica,sans-Serif" font-size="14.00">samples = 1513</text>
<text text-anchor="start" x="460.75" y="-774.45" font-family="Helvetica,sans-Serif" font-size="14.00">value = [653.0, 860.0]</text>
<text text-anchor="start" x="472" y="-757.95" font-family="Helvetica,sans-Serif" font-size="14.00">class = poisonous</text>
</g>
<!-- 3&#45;&gt;17 -->
<g id="edge17" class="edge">
<title>3&#45;&gt;17</title>
<path fill="none" stroke="black" d="M529.38,-868.65C529.38,-858.1 529.38,-846.81 529.38,-836.13"/>
<polygon fill="black" stroke="black" points="532.88,-836.37 529.38,-826.37 525.88,-836.37 532.88,-836.37"/>
</g>
<!-- 5 -->
<g id="node6" class="node">
<title>5</title>
<path fill="#42a2e6" stroke="black" d="M414,-706.5C414,-706.5 218.75,-706.5 218.75,-706.5 212.75,-706.5 206.75,-700.5 206.75,-694.5 206.75,-694.5 206.75,-628 206.75,-628 206.75,-622 212.75,-616 218.75,-616 218.75,-616 414,-616 414,-616 420,-616 426,-622 426,-628 426,-628 426,-694.5 426,-694.5 426,-700.5 420,-706.5 414,-706.5"/>
<text text-anchor="start" x="214.75" y="-689.2" font-family="Helvetica,sans-Serif" font-size="14.00">categorical__stem&#45;color_y ≤ 0.5</text>
<text text-anchor="start" x="279.25" y="-672.7" font-family="Helvetica,sans-Serif" font-size="14.00">gini = 0.085</text>
<text text-anchor="start" x="265" y="-656.2" font-family="Helvetica,sans-Serif" font-size="14.00">samples = 5744</text>
<text text-anchor="start" x="255.62" y="-639.7" font-family="Helvetica,sans-Serif" font-size="14.00">value = [254, 5490]</text>
<text text-anchor="start" x="259" y="-623.2" font-family="Helvetica,sans-Serif" font-size="14.00">class = poisonous</text>
</g>
<!-- 4&#45;&gt;5 -->
<g id="edge5" class="edge">
<title>4&#45;&gt;5</title>
<path fill="none" stroke="black" d="M327.29,-742.15C326.22,-734.38 325.11,-726.2 324.01,-718.16"/>
<polygon fill="black" stroke="black" points="327.5,-717.89 322.68,-708.45 320.57,-718.83 327.5,-717.89"/>
</g>
<!-- 10 -->
<g id="node11" class="node">
<title>10</title>
<path fill="#75bbed" stroke="black" d="M636.88,-706.5C636.88,-706.5 455.88,-706.5 455.88,-706.5 449.88,-706.5 443.88,-700.5 443.88,-694.5 443.88,-694.5 443.88,-628 443.88,-628 443.88,-622 449.88,-616 455.88,-616 455.88,-616 636.88,-616 636.88,-616 642.88,-616 648.88,-622 648.88,-628 648.88,-628 648.88,-694.5 648.88,-694.5 648.88,-700.5 642.88,-706.5 636.88,-706.5"/>
<text text-anchor="start" x="451.88" y="-689.2" font-family="Helvetica,sans-Serif" font-size="14.00">categorical__gill&#45;color_y ≤ 0.5</text>
<text text-anchor="start" x="509.25" y="-672.7" font-family="Helvetica,sans-Serif" font-size="14.00">gini = 0.357</text>
<text text-anchor="start" x="495" y="-656.2" font-family="Helvetica,sans-Serif" font-size="14.00">samples = 5916</text>
<text text-anchor="start" x="481.5" y="-639.7" font-family="Helvetica,sans-Serif" font-size="14.00">value = [1377, 4539]</text>
<text text-anchor="start" x="489" y="-623.2" font-family="Helvetica,sans-Serif" font-size="14.00">class = poisonous</text>
</g>
<!-- 4&#45;&gt;10 -->
<g id="edge10" class="edge">
<title>4&#45;&gt;10</title>
<path fill="none" stroke="black" d="M409.67,-742.15C426.04,-732.59 443.44,-722.42 460.15,-712.65"/>
<polygon fill="black" stroke="black" points="461.72,-715.78 468.59,-707.72 458.19,-709.74 461.72,-715.78"/>
</g>
<!-- 6 -->
<g id="node7" class="node">
<title>6</title>
<path fill="#3c9ee5" stroke="black" d="M228.75,-580C228.75,-580 50,-580 50,-580 44,-580 38,-574 38,-568 38,-568 38,-501.5 38,-501.5 38,-495.5 44,-489.5 50,-489.5 50,-489.5 228.75,-489.5 228.75,-489.5 234.75,-489.5 240.75,-495.5 240.75,-501.5 240.75,-501.5 240.75,-568 240.75,-568 240.75,-574 234.75,-580 228.75,-580"/>
<text text-anchor="start" x="46" y="-562.7" font-family="Helvetica,sans-Serif" font-size="14.00">numeric__stem&#45;width ≤ 3.785</text>
<text text-anchor="start" x="102.25" y="-546.2" font-family="Helvetica,sans-Serif" font-size="14.00">gini = 0.026</text>
<text text-anchor="start" x="88" y="-529.7" font-family="Helvetica,sans-Serif" font-size="14.00">samples = 4567</text>
<text text-anchor="start" x="82.75" y="-513.2" font-family="Helvetica,sans-Serif" font-size="14.00">value = [60, 4507]</text>
<text text-anchor="start" x="82" y="-496.7" font-family="Helvetica,sans-Serif" font-size="14.00">class = poisonous</text>
</g>
<!-- 5&#45;&gt;6 -->
<g id="edge6" class="edge">
<title>5&#45;&gt;6</title>
<path fill="none" stroke="black" d="M252.97,-615.65C239.76,-606.36 225.72,-596.49 212.2,-586.97"/>
<polygon fill="black" stroke="black" points="214.36,-584.21 204.17,-581.32 210.33,-589.94 214.36,-584.21"/>
</g>
<!-- 9 -->
<g id="node10" class="node">
<title>9</title>
<path fill="#60b0ea" stroke="black" d="M377.75,-571.75C377.75,-571.75 271,-571.75 271,-571.75 265,-571.75 259,-565.75 259,-559.75 259,-559.75 259,-509.75 259,-509.75 259,-503.75 265,-497.75 271,-497.75 271,-497.75 377.75,-497.75 377.75,-497.75 383.75,-497.75 389.75,-503.75 389.75,-509.75 389.75,-509.75 389.75,-559.75 389.75,-559.75 389.75,-565.75 383.75,-571.75 377.75,-571.75"/>
<text text-anchor="start" x="287.25" y="-554.45" font-family="Helvetica,sans-Serif" font-size="14.00">gini = 0.275</text>
<text text-anchor="start" x="273" y="-537.95" font-family="Helvetica,sans-Serif" font-size="14.00">samples = 1177</text>
<text text-anchor="start" x="267.75" y="-521.45" font-family="Helvetica,sans-Serif" font-size="14.00">value = [194, 983]</text>
<text text-anchor="start" x="267" y="-504.95" font-family="Helvetica,sans-Serif" font-size="14.00">class = poisonous</text>
</g>
<!-- 5&#45;&gt;9 -->
<g id="edge9" class="edge">
<title>5&#45;&gt;9</title>
<path fill="none" stroke="black" d="M319.24,-615.65C319.92,-605.1 320.64,-593.81 321.33,-583.13"/>
<polygon fill="black" stroke="black" points="324.81,-583.57 321.96,-573.37 317.82,-583.12 324.81,-583.57"/>
</g>
<!-- 7 -->
<g id="node8" class="node">
<title>7</title>
<path fill="#399de5" stroke="black" d="M118.75,-445.25C118.75,-445.25 12,-445.25 12,-445.25 6,-445.25 0,-439.25 0,-433.25 0,-433.25 0,-383.25 0,-383.25 0,-377.25 6,-371.25 12,-371.25 12,-371.25 118.75,-371.25 118.75,-371.25 124.75,-371.25 130.75,-377.25 130.75,-383.25 130.75,-383.25 130.75,-433.25 130.75,-433.25 130.75,-439.25 124.75,-445.25 118.75,-445.25"/>
<text text-anchor="start" x="36.5" y="-427.95" font-family="Helvetica,sans-Serif" font-size="14.00">gini = 0.0</text>
<text text-anchor="start" x="14" y="-411.45" font-family="Helvetica,sans-Serif" font-size="14.00">samples = 3556</text>
<text text-anchor="start" x="12.88" y="-394.95" font-family="Helvetica,sans-Serif" font-size="14.00">value = [0, 3556]</text>
<text text-anchor="start" x="8" y="-378.45" font-family="Helvetica,sans-Serif" font-size="14.00">class = poisonous</text>
</g>
<!-- 6&#45;&gt;7 -->
<g id="edge7" class="edge">
<title>6&#45;&gt;7</title>
<path fill="none" stroke="black" d="M112.87,-489.15C106.26,-478.04 99.17,-466.1 92.53,-454.93"/>
<polygon fill="black" stroke="black" points="95.73,-453.46 87.61,-446.66 89.71,-457.04 95.73,-453.46"/>
</g>
<!-- 8 -->
<g id="node9" class="node">
<title>8</title>
<path fill="#45a3e7" stroke="black" d="M267.75,-445.25C267.75,-445.25 161,-445.25 161,-445.25 155,-445.25 149,-439.25 149,-433.25 149,-433.25 149,-383.25 149,-383.25 149,-377.25 155,-371.25 161,-371.25 161,-371.25 267.75,-371.25 267.75,-371.25 273.75,-371.25 279.75,-377.25 279.75,-383.25 279.75,-383.25 279.75,-433.25 279.75,-433.25 279.75,-439.25 273.75,-445.25 267.75,-445.25"/>
<text text-anchor="start" x="177.25" y="-427.95" font-family="Helvetica,sans-Serif" font-size="14.00">gini = 0.112</text>
<text text-anchor="start" x="163" y="-411.45" font-family="Helvetica,sans-Serif" font-size="14.00">samples = 1011</text>
<text text-anchor="start" x="161.88" y="-394.95" font-family="Helvetica,sans-Serif" font-size="14.00">value = [60, 951]</text>
<text text-anchor="start" x="157" y="-378.45" font-family="Helvetica,sans-Serif" font-size="14.00">class = poisonous</text>
</g>
<!-- 6&#45;&gt;8 -->
<g id="edge8" class="edge">
<title>6&#45;&gt;8</title>
<path fill="none" stroke="black" d="M166.24,-489.15C172.94,-478.04 180.13,-466.1 186.85,-454.93"/>
<polygon fill="black" stroke="black" points="189.68,-457.02 191.84,-446.65 183.69,-453.41 189.68,-457.02"/>
</g>
<!-- 11 -->
<g id="node12" class="node">
<title>11</title>
<path fill="#89c5f0" stroke="black" d="M645.25,-580C645.25,-580 433.5,-580 433.5,-580 427.5,-580 421.5,-574 421.5,-568 421.5,-568 421.5,-501.5 421.5,-501.5 421.5,-495.5 427.5,-489.5 433.5,-489.5 433.5,-489.5 645.25,-489.5 645.25,-489.5 651.25,-489.5 657.25,-495.5 657.25,-501.5 657.25,-501.5 657.25,-568 657.25,-568 657.25,-574 651.25,-580 645.25,-580"/>
<text text-anchor="start" x="429.5" y="-562.7" font-family="Helvetica,sans-Serif" font-size="14.00">categorical__stem&#45;surface_s ≤ 0.5</text>
<text text-anchor="start" x="502.25" y="-546.2" font-family="Helvetica,sans-Serif" font-size="14.00">gini = 0.411</text>
<text text-anchor="start" x="488" y="-529.7" font-family="Helvetica,sans-Serif" font-size="14.00">samples = 4764</text>
<text text-anchor="start" x="462.5" y="-513.2" font-family="Helvetica,sans-Serif" font-size="14.00">value = [1375.0, 3389.0]</text>
<text text-anchor="start" x="482" y="-496.7" font-family="Helvetica,sans-Serif" font-size="14.00">class = poisonous</text>
</g>
<!-- 10&#45;&gt;11 -->
<g id="edge11" class="edge">
<title>10&#45;&gt;11</title>
<path fill="none" stroke="black" d="M543.87,-615.65C543.44,-607.97 542.98,-599.89 542.53,-591.94"/>
<polygon fill="black" stroke="black" points="546.03,-591.75 541.97,-581.96 539.04,-592.14 546.03,-591.75"/>
</g>
<!-- 16 -->
<g id="node17" class="node">
<title>16</title>
<path fill="#399de5" stroke="black" d="M793.75,-571.75C793.75,-571.75 687,-571.75 687,-571.75 681,-571.75 675,-565.75 675,-559.75 675,-559.75 675,-509.75 675,-509.75 675,-503.75 681,-497.75 687,-497.75 687,-497.75 793.75,-497.75 793.75,-497.75 799.75,-497.75 805.75,-503.75 805.75,-509.75 805.75,-509.75 805.75,-559.75 805.75,-559.75 805.75,-565.75 799.75,-571.75 793.75,-571.75"/>
<text text-anchor="start" x="703.25" y="-554.45" font-family="Helvetica,sans-Serif" font-size="14.00">gini = 0.003</text>
<text text-anchor="start" x="689" y="-537.95" font-family="Helvetica,sans-Serif" font-size="14.00">samples = 1152</text>
<text text-anchor="start" x="687.88" y="-521.45" font-family="Helvetica,sans-Serif" font-size="14.00">value = [2, 1150]</text>
<text text-anchor="start" x="683" y="-504.95" font-family="Helvetica,sans-Serif" font-size="14.00">class = poisonous</text>
</g>
<!-- 10&#45;&gt;16 -->
<g id="edge16" class="edge">
<title>10&#45;&gt;16</title>
<path fill="none" stroke="black" d="M615.87,-615.65C634.85,-603.47 655.36,-590.31 674.15,-578.25"/>
<polygon fill="black" stroke="black" points="676,-581.22 682.53,-572.87 672.22,-575.33 676,-581.22"/>
</g>
<!-- 12 -->
<g id="node13" class="node">
<title>12</title>
<path fill="#56abe9" stroke="black" d="M517.12,-445.25C517.12,-445.25 403.62,-445.25 403.62,-445.25 397.62,-445.25 391.62,-439.25 391.62,-433.25 391.62,-433.25 391.62,-383.25 391.62,-383.25 391.62,-377.25 397.62,-371.25 403.62,-371.25 403.62,-371.25 517.12,-371.25 517.12,-371.25 523.12,-371.25 529.12,-377.25 529.12,-383.25 529.12,-383.25 529.12,-433.25 529.12,-433.25 529.12,-439.25 523.12,-445.25 517.12,-445.25"/>
<text text-anchor="start" x="423.25" y="-427.95" font-family="Helvetica,sans-Serif" font-size="14.00">gini = 0.223</text>
<text text-anchor="start" x="409" y="-411.45" font-family="Helvetica,sans-Serif" font-size="14.00">samples = 1831</text>
<text text-anchor="start" x="399.62" y="-394.95" font-family="Helvetica,sans-Serif" font-size="14.00">value = [234, 1597]</text>
<text text-anchor="start" x="403" y="-378.45" font-family="Helvetica,sans-Serif" font-size="14.00">class = poisonous</text>
</g>
<!-- 11&#45;&gt;12 -->
<g id="edge12" class="edge">
<title>11&#45;&gt;12</title>
<path fill="none" stroke="black" d="M511.08,-489.15C504.02,-478.04 496.45,-466.1 489.36,-454.93"/>
<polygon fill="black" stroke="black" points="492.41,-453.2 484.1,-446.63 486.5,-456.95 492.41,-453.2"/>
</g>
<!-- 13 -->
<g id="node14" class="node">
<title>13</title>
<path fill="#b7dbf6" stroke="black" d="M753.25,-453.5C753.25,-453.5 559.5,-453.5 559.5,-453.5 553.5,-453.5 547.5,-447.5 547.5,-441.5 547.5,-441.5 547.5,-375 547.5,-375 547.5,-369 553.5,-363 559.5,-363 559.5,-363 753.25,-363 753.25,-363 759.25,-363 765.25,-369 765.25,-375 765.25,-375 765.25,-441.5 765.25,-441.5 765.25,-447.5 759.25,-453.5 753.25,-453.5"/>
<text text-anchor="start" x="555.5" y="-436.2" font-family="Helvetica,sans-Serif" font-size="14.00">numeric__cap&#45;diameter ≤ 4.425</text>
<text text-anchor="start" x="619.25" y="-419.7" font-family="Helvetica,sans-Serif" font-size="14.00">gini = 0.475</text>
<text text-anchor="start" x="605" y="-403.2" font-family="Helvetica,sans-Serif" font-size="14.00">samples = 2933</text>
<text text-anchor="start" x="591.5" y="-386.7" font-family="Helvetica,sans-Serif" font-size="14.00">value = [1141, 1792]</text>
<text text-anchor="start" x="599" y="-370.2" font-family="Helvetica,sans-Serif" font-size="14.00">class = poisonous</text>
</g>
<!-- 11&#45;&gt;13 -->
<g id="edge13" class="edge">
<title>11&#45;&gt;13</title>
<path fill="none" stroke="black" d="M581.28,-489.15C589.52,-480.39 598.23,-471.12 606.69,-462.12"/>
<polygon fill="black" stroke="black" points="609.03,-464.74 613.33,-455.06 603.93,-459.95 609.03,-464.74"/>
</g>
<!-- 14 -->
<g id="node15" class="node">
<title>14</title>
<path fill="#deeffb" stroke="black" d="M637.12,-318.75C637.12,-318.75 523.62,-318.75 523.62,-318.75 517.62,-318.75 511.62,-312.75 511.62,-306.75 511.62,-306.75 511.62,-256.75 511.62,-256.75 511.62,-250.75 517.62,-244.75 523.62,-244.75 523.62,-244.75 637.12,-244.75 637.12,-244.75 643.12,-244.75 649.12,-250.75 649.12,-256.75 649.12,-256.75 649.12,-306.75 649.12,-306.75 649.12,-312.75 643.12,-318.75 637.12,-318.75"/>
<text text-anchor="start" x="543.25" y="-301.45" font-family="Helvetica,sans-Serif" font-size="14.00">gini = 0.496</text>
<text text-anchor="start" x="529" y="-284.95" font-family="Helvetica,sans-Serif" font-size="14.00">samples = 1927</text>
<text text-anchor="start" x="519.62" y="-268.45" font-family="Helvetica,sans-Serif" font-size="14.00">value = [876, 1051]</text>
<text text-anchor="start" x="523" y="-251.95" font-family="Helvetica,sans-Serif" font-size="14.00">class = poisonous</text>
</g>
<!-- 13&#45;&gt;14 -->
<g id="edge14" class="edge">
<title>13&#45;&gt;14</title>
<path fill="none" stroke="black" d="M629.15,-362.65C622.37,-351.54 615.08,-339.6 608.26,-328.43"/>
<polygon fill="black" stroke="black" points="611.4,-326.86 603.2,-320.15 605.43,-330.51 611.4,-326.86"/>
</g>
<!-- 15 -->
<g id="node16" class="node">
<title>15</title>
<path fill="#80c0ee" stroke="black" d="M785.75,-318.75C785.75,-318.75 679,-318.75 679,-318.75 673,-318.75 667,-312.75 667,-306.75 667,-306.75 667,-256.75 667,-256.75 667,-250.75 673,-244.75 679,-244.75 679,-244.75 785.75,-244.75 785.75,-244.75 791.75,-244.75 797.75,-250.75 797.75,-256.75 797.75,-256.75 797.75,-306.75 797.75,-306.75 797.75,-312.75 791.75,-318.75 785.75,-318.75"/>
<text text-anchor="start" x="695.25" y="-301.45" font-family="Helvetica,sans-Serif" font-size="14.00">gini = 0.388</text>
<text text-anchor="start" x="681" y="-284.95" font-family="Helvetica,sans-Serif" font-size="14.00">samples = 1006</text>
<text text-anchor="start" x="675.75" y="-268.45" font-family="Helvetica,sans-Serif" font-size="14.00">value = [265, 741]</text>
<text text-anchor="start" x="675" y="-251.95" font-family="Helvetica,sans-Serif" font-size="14.00">class = poisonous</text>
</g>
<!-- 13&#45;&gt;15 -->
<g id="edge15" class="edge">
<title>13&#45;&gt;15</title>
<path fill="none" stroke="black" d="M683.6,-362.65C690.38,-351.54 697.67,-339.6 704.49,-328.43"/>
<polygon fill="black" stroke="black" points="707.32,-330.51 709.55,-320.15 701.35,-326.86 707.32,-330.51"/>
</g>
<!-- 19 -->
<g id="node20" class="node">
<title>19</title>
<path fill="#6ab5eb" stroke="black" d="M749.12,-824.75C749.12,-824.75 635.62,-824.75 635.62,-824.75 629.62,-824.75 623.62,-818.75 623.62,-812.75 623.62,-812.75 623.62,-762.75 623.62,-762.75 623.62,-756.75 629.62,-750.75 635.62,-750.75 635.62,-750.75 749.12,-750.75 749.12,-750.75 755.12,-750.75 761.12,-756.75 761.12,-762.75 761.12,-762.75 761.12,-812.75 761.12,-812.75 761.12,-818.75 755.12,-824.75 749.12,-824.75"/>
<text text-anchor="start" x="655.25" y="-807.45" font-family="Helvetica,sans-Serif" font-size="14.00">gini = 0.318</text>
<text text-anchor="start" x="641" y="-790.95" font-family="Helvetica,sans-Serif" font-size="14.00">samples = 1379</text>
<text text-anchor="start" x="631.62" y="-774.45" font-family="Helvetica,sans-Serif" font-size="14.00">value = [273, 1106]</text>
<text text-anchor="start" x="635" y="-757.95" font-family="Helvetica,sans-Serif" font-size="14.00">class = poisonous</text>
</g>
<!-- 18&#45;&gt;19 -->
<g id="edge19" class="edge">
<title>18&#45;&gt;19</title>
<path fill="none" stroke="black" d="M765.54,-868.65C754.95,-857.09 743.55,-844.64 732.97,-833.08"/>
<polygon fill="black" stroke="black" points="735.79,-830.98 726.46,-825.97 730.63,-835.71 735.79,-830.98"/>
</g>
<!-- 20 -->
<g id="node21" class="node">
<title>20</title>
<path fill="#fbeee4" stroke="black" d="M979.25,-833C979.25,-833 791.5,-833 791.5,-833 785.5,-833 779.5,-827 779.5,-821 779.5,-821 779.5,-754.5 779.5,-754.5 779.5,-748.5 785.5,-742.5 791.5,-742.5 791.5,-742.5 979.25,-742.5 979.25,-742.5 985.25,-742.5 991.25,-748.5 991.25,-754.5 991.25,-754.5 991.25,-821 991.25,-821 991.25,-827 985.25,-833 979.25,-833"/>
<text text-anchor="start" x="787.5" y="-815.7" font-family="Helvetica,sans-Serif" font-size="14.00">categorical__cap&#45;color_n ≤ 0.5</text>
<text text-anchor="start" x="848.25" y="-799.2" font-family="Helvetica,sans-Serif" font-size="14.00">gini = 0.497</text>
<text text-anchor="start" x="834" y="-782.7" font-family="Helvetica,sans-Serif" font-size="14.00">samples = 3408</text>
<text text-anchor="start" x="820.5" y="-766.2" font-family="Helvetica,sans-Serif" font-size="14.00">value = [1827, 1581]</text>
<text text-anchor="start" x="841.5" y="-749.7" font-family="Helvetica,sans-Serif" font-size="14.00">class = edible</text>
</g>
<!-- 18&#45;&gt;20 -->
<g id="edge20" class="edge">
<title>18&#45;&gt;20</title>
<path fill="none" stroke="black" d="M834.67,-868.65C839.95,-860.34 845.51,-851.57 850.95,-843"/>
<polygon fill="black" stroke="black" points="853.8,-845.05 856.2,-834.73 847.89,-841.3 853.8,-845.05"/>
</g>
<!-- 21 -->
<g id="node22" class="node">
<title>21</title>
<path fill="#d2e9f9" stroke="black" d="M867.12,-698.25C867.12,-698.25 753.62,-698.25 753.62,-698.25 747.62,-698.25 741.62,-692.25 741.62,-686.25 741.62,-686.25 741.62,-636.25 741.62,-636.25 741.62,-630.25 747.62,-624.25 753.62,-624.25 753.62,-624.25 867.12,-624.25 867.12,-624.25 873.12,-624.25 879.12,-630.25 879.12,-636.25 879.12,-636.25 879.12,-686.25 879.12,-686.25 879.12,-692.25 873.12,-698.25 867.12,-698.25"/>
<text text-anchor="start" x="773.25" y="-680.95" font-family="Helvetica,sans-Serif" font-size="14.00">gini = 0.492</text>
<text text-anchor="start" x="759" y="-664.45" font-family="Helvetica,sans-Serif" font-size="14.00">samples = 1885</text>
<text text-anchor="start" x="749.62" y="-647.95" font-family="Helvetica,sans-Serif" font-size="14.00">value = [821, 1064]</text>
<text text-anchor="start" x="753" y="-631.45" font-family="Helvetica,sans-Serif" font-size="14.00">class = poisonous</text>
</g>
<!-- 20&#45;&gt;21 -->
<g id="edge21" class="edge">
<title>20&#45;&gt;21</title>
<path fill="none" stroke="black" d="M858.51,-742.15C851.81,-731.04 844.62,-719.1 837.9,-707.93"/>
<polygon fill="black" stroke="black" points="841.06,-706.41 832.91,-699.65 835.07,-710.02 841.06,-706.41"/>
</g>
<!-- 22 -->
<g id="node23" class="node">
<title>22</title>
<path fill="#f2c29f" stroke="black" d="M1047.12,-698.25C1047.12,-698.25 909.62,-698.25 909.62,-698.25 903.62,-698.25 897.62,-692.25 897.62,-686.25 897.62,-686.25 897.62,-636.25 897.62,-636.25 897.62,-630.25 903.62,-624.25 909.62,-624.25 909.62,-624.25 1047.12,-624.25 1047.12,-624.25 1053.12,-624.25 1059.12,-630.25 1059.12,-636.25 1059.12,-636.25 1059.12,-686.25 1059.12,-686.25 1059.12,-692.25 1053.12,-698.25 1047.12,-698.25"/>
<text text-anchor="start" x="941.25" y="-680.95" font-family="Helvetica,sans-Serif" font-size="14.00">gini = 0.448</text>
<text text-anchor="start" x="927" y="-664.45" font-family="Helvetica,sans-Serif" font-size="14.00">samples = 1523</text>
<text text-anchor="start" x="905.62" y="-647.95" font-family="Helvetica,sans-Serif" font-size="14.00">value = [1006.0, 517.0]</text>
<text text-anchor="start" x="934.5" y="-631.45" font-family="Helvetica,sans-Serif" font-size="14.00">class = edible</text>
</g>
<!-- 20&#45;&gt;22 -->
<g id="edge22" class="edge">
<title>20&#45;&gt;22</title>
<path fill="none" stroke="black" d="M918.69,-742.15C927.16,-730.81 936.27,-718.62 944.76,-707.26"/>
<polygon fill="black" stroke="black" points="947.32,-709.67 950.5,-699.57 941.71,-705.49 947.32,-709.67"/>
</g>
<!-- 24 -->
<g id="node25" class="node">
<title>24</title>
<path fill="#78bced" stroke="black" d="M1045.75,-951.25C1045.75,-951.25 939,-951.25 939,-951.25 933,-951.25 927,-945.25 927,-939.25 927,-939.25 927,-889.25 927,-889.25 927,-883.25 933,-877.25 939,-877.25 939,-877.25 1045.75,-877.25 1045.75,-877.25 1051.75,-877.25 1057.75,-883.25 1057.75,-889.25 1057.75,-889.25 1057.75,-939.25 1057.75,-939.25 1057.75,-945.25 1051.75,-951.25 1045.75,-951.25"/>
<text text-anchor="start" x="955.25" y="-933.95" font-family="Helvetica,sans-Serif" font-size="14.00">gini = 0.367</text>
<text text-anchor="start" x="941" y="-917.45" font-family="Helvetica,sans-Serif" font-size="14.00">samples = 1002</text>
<text text-anchor="start" x="935.75" y="-900.95" font-family="Helvetica,sans-Serif" font-size="14.00">value = [243, 759]</text>
<text text-anchor="start" x="935" y="-884.45" font-family="Helvetica,sans-Serif" font-size="14.00">class = poisonous</text>
</g>
<!-- 23&#45;&gt;24 -->
<g id="edge24" class="edge">
<title>23&#45;&gt;24</title>
<path fill="none" stroke="black" d="M1091.21,-995.15C1076.49,-983.25 1060.6,-970.41 1045.97,-958.58"/>
<polygon fill="black" stroke="black" points="1048.19,-955.87 1038.21,-952.31 1043.79,-961.32 1048.19,-955.87"/>
</g>
<!-- 25 -->
<g id="node26" class="node">
<title>25</title>
<path fill="#ea975c" stroke="black" d="M1266.75,-959.5C1266.75,-959.5 1088,-959.5 1088,-959.5 1082,-959.5 1076,-953.5 1076,-947.5 1076,-947.5 1076,-881 1076,-881 1076,-875 1082,-869 1088,-869 1088,-869 1266.75,-869 1266.75,-869 1272.75,-869 1278.75,-875 1278.75,-881 1278.75,-881 1278.75,-947.5 1278.75,-947.5 1278.75,-953.5 1272.75,-959.5 1266.75,-959.5"/>
<text text-anchor="start" x="1084" y="-942.2" font-family="Helvetica,sans-Serif" font-size="14.00">numeric__stem&#45;width ≤ 4.385</text>
<text text-anchor="start" x="1140.25" y="-925.7" font-family="Helvetica,sans-Serif" font-size="14.00">gini = 0.257</text>
<text text-anchor="start" x="1126" y="-909.2" font-family="Helvetica,sans-Serif" font-size="14.00">samples = 2408</text>
<text text-anchor="start" x="1116.62" y="-892.7" font-family="Helvetica,sans-Serif" font-size="14.00">value = [2044, 364]</text>
<text text-anchor="start" x="1133.5" y="-876.2" font-family="Helvetica,sans-Serif" font-size="14.00">class = edible</text>
</g>
<!-- 23&#45;&gt;25 -->
<g id="edge25" class="edge">
<title>23&#45;&gt;25</title>
<path fill="none" stroke="black" d="M1157.48,-995.15C1159.44,-987.29 1161.5,-979.01 1163.52,-970.89"/>
<polygon fill="black" stroke="black" points="1166.86,-971.97 1165.88,-961.42 1160.07,-970.28 1166.86,-971.97"/>
</g>
<!-- 26 -->
<g id="node27" class="node">
<title>26</title>
<path fill="#e78945" stroke="black" d="M1127,-824.75C1127,-824.75 1021.75,-824.75 1021.75,-824.75 1015.75,-824.75 1009.75,-818.75 1009.75,-812.75 1009.75,-812.75 1009.75,-762.75 1009.75,-762.75 1009.75,-756.75 1015.75,-750.75 1021.75,-750.75 1021.75,-750.75 1127,-750.75 1127,-750.75 1133,-750.75 1139,-756.75 1139,-762.75 1139,-762.75 1139,-812.75 1139,-812.75 1139,-818.75 1133,-824.75 1127,-824.75"/>
<text text-anchor="start" x="1041.38" y="-807.45" font-family="Helvetica,sans-Serif" font-size="14.00">gini = 0.11</text>
<text text-anchor="start" x="1023" y="-790.95" font-family="Helvetica,sans-Serif" font-size="14.00">samples = 1335</text>
<text text-anchor="start" x="1017.75" y="-774.45" font-family="Helvetica,sans-Serif" font-size="14.00">value = [1257, 78]</text>
<text text-anchor="start" x="1030.5" y="-757.95" font-family="Helvetica,sans-Serif" font-size="14.00">class = edible</text>
</g>
<!-- 25&#45;&gt;26 -->
<g id="edge26" class="edge">
<title>25&#45;&gt;26</title>
<path fill="none" stroke="black" d="M1140.48,-868.65C1131,-857.2 1120.81,-844.88 1111.33,-833.42"/>
<polygon fill="black" stroke="black" points="1114.28,-831.5 1105.21,-826.02 1108.89,-835.96 1114.28,-831.5"/>
</g>
<!-- 27 -->
<g id="node28" class="node">
<title>27</title>
<path fill="#eeaf81" stroke="black" d="M1274,-824.75C1274,-824.75 1168.75,-824.75 1168.75,-824.75 1162.75,-824.75 1156.75,-818.75 1156.75,-812.75 1156.75,-812.75 1156.75,-762.75 1156.75,-762.75 1156.75,-756.75 1162.75,-750.75 1168.75,-750.75 1168.75,-750.75 1274,-750.75 1274,-750.75 1280,-750.75 1286,-756.75 1286,-762.75 1286,-762.75 1286,-812.75 1286,-812.75 1286,-818.75 1280,-824.75 1274,-824.75"/>
<text text-anchor="start" x="1184.25" y="-807.45" font-family="Helvetica,sans-Serif" font-size="14.00">gini = 0.391</text>
<text text-anchor="start" x="1170" y="-790.95" font-family="Helvetica,sans-Serif" font-size="14.00">samples = 1073</text>
<text text-anchor="start" x="1164.75" y="-774.45" font-family="Helvetica,sans-Serif" font-size="14.00">value = [787, 286]</text>
<text text-anchor="start" x="1177.5" y="-757.95" font-family="Helvetica,sans-Serif" font-size="14.00">class = edible</text>
</g>
<!-- 25&#45;&gt;27 -->
<g id="edge27" class="edge">
<title>25&#45;&gt;27</title>
<path fill="none" stroke="black" d="M1193.14,-868.65C1196.95,-857.87 1201.03,-846.32 1204.87,-835.45"/>
<polygon fill="black" stroke="black" points="1208.08,-836.88 1208.11,-826.28 1201.48,-834.55 1208.08,-836.88"/>
</g>
<!-- 29 -->
<g id="node30" class="node">
<title>29</title>
<path fill="#8ec7f0" stroke="black" d="M1544.38,-1086C1544.38,-1086 1342.38,-1086 1342.38,-1086 1336.38,-1086 1330.38,-1080 1330.38,-1074 1330.38,-1074 1330.38,-1007.5 1330.38,-1007.5 1330.38,-1001.5 1336.38,-995.5 1342.38,-995.5 1342.38,-995.5 1544.38,-995.5 1544.38,-995.5 1550.38,-995.5 1556.38,-1001.5 1556.38,-1007.5 1556.38,-1007.5 1556.38,-1074 1556.38,-1074 1556.38,-1080 1550.38,-1086 1544.38,-1086"/>
<text text-anchor="start" x="1338.38" y="-1068.7" font-family="Helvetica,sans-Serif" font-size="14.00">numeric__cap&#45;diameter ≤ 11.475</text>
<text text-anchor="start" x="1410.38" y="-1052.2" font-family="Helvetica,sans-Serif" font-size="14.00">gini = 0.42</text>
<text text-anchor="start" x="1392" y="-1035.7" font-family="Helvetica,sans-Serif" font-size="14.00">samples = 3712</text>
<text text-anchor="start" x="1378.5" y="-1019.2" font-family="Helvetica,sans-Serif" font-size="14.00">value = [1115, 2597]</text>
<text text-anchor="start" x="1386" y="-1002.7" font-family="Helvetica,sans-Serif" font-size="14.00">class = poisonous</text>
</g>
<!-- 28&#45;&gt;29 -->
<g id="edge29" class="edge">
<title>28&#45;&gt;29</title>
<path fill="none" stroke="black" d="M1443.38,-1121.65C1443.38,-1113.97 1443.38,-1105.89 1443.38,-1097.94"/>
<polygon fill="black" stroke="black" points="1446.88,-1097.97 1443.38,-1087.97 1439.88,-1097.97 1446.88,-1097.97"/>
</g>
<!-- 34 -->
<g id="node35" class="node">
<title>34</title>
<path fill="#f7dac4" stroke="black" d="M1966.38,-1086C1966.38,-1086 1746.38,-1086 1746.38,-1086 1740.38,-1086 1734.38,-1080 1734.38,-1074 1734.38,-1074 1734.38,-1007.5 1734.38,-1007.5 1734.38,-1001.5 1740.38,-995.5 1746.38,-995.5 1746.38,-995.5 1966.38,-995.5 1966.38,-995.5 1972.38,-995.5 1978.38,-1001.5 1978.38,-1007.5 1978.38,-1007.5 1978.38,-1074 1978.38,-1074 1978.38,-1080 1972.38,-1086 1966.38,-1086"/>
<text text-anchor="start" x="1742.38" y="-1068.7" font-family="Helvetica,sans-Serif" font-size="14.00">categorical__gill&#45;attachment_p ≤ 0.5</text>
<text text-anchor="start" x="1819.25" y="-1052.2" font-family="Helvetica,sans-Serif" font-size="14.00">gini = 0.485</text>
<text text-anchor="start" x="1800.88" y="-1035.7" font-family="Helvetica,sans-Serif" font-size="14.00">samples = 23773</text>
<text text-anchor="start" x="1787.38" y="-1019.2" font-family="Helvetica,sans-Serif" font-size="14.00">value = [13959, 9814]</text>
<text text-anchor="start" x="1812.5" y="-1002.7" font-family="Helvetica,sans-Serif" font-size="14.00">class = edible</text>
</g>
<!-- 28&#45;&gt;34 -->
<g id="edge34" class="edge">
<title>28&#45;&gt;34</title>
<path fill="none" stroke="black" d="M1550.81,-1133.86C1603.57,-1117.96 1667.65,-1098.64 1723.47,-1081.82"/>
<polygon fill="black" stroke="black" points="1724.14,-1085.27 1732.7,-1079.03 1722.12,-1078.57 1724.14,-1085.27"/>
</g>
<!-- 30 -->
<g id="node31" class="node">
<title>30</title>
<path fill="#46a3e7" stroke="black" d="M1505.88,-959.5C1505.88,-959.5 1318.88,-959.5 1318.88,-959.5 1312.88,-959.5 1306.88,-953.5 1306.88,-947.5 1306.88,-947.5 1306.88,-881 1306.88,-881 1306.88,-875 1312.88,-869 1318.88,-869 1318.88,-869 1505.88,-869 1505.88,-869 1511.88,-869 1517.88,-875 1517.88,-881 1517.88,-881 1517.88,-947.5 1517.88,-947.5 1517.88,-953.5 1511.88,-959.5 1505.88,-959.5"/>
<text text-anchor="start" x="1314.88" y="-942.2" font-family="Helvetica,sans-Serif" font-size="14.00">numeric__stem&#45;width ≤ 16.205</text>
<text text-anchor="start" x="1375.25" y="-925.7" font-family="Helvetica,sans-Serif" font-size="14.00">gini = 0.113</text>
<text text-anchor="start" x="1361" y="-909.2" font-family="Helvetica,sans-Serif" font-size="14.00">samples = 2094</text>
<text text-anchor="start" x="1351.62" y="-892.7" font-family="Helvetica,sans-Serif" font-size="14.00">value = [126, 1968]</text>
<text text-anchor="start" x="1355" y="-876.2" font-family="Helvetica,sans-Serif" font-size="14.00">class = poisonous</text>
</g>
<!-- 29&#45;&gt;30 -->
<g id="edge30" class="edge">
<title>29&#45;&gt;30</title>
<path fill="none" stroke="black" d="M1432.27,-995.15C1430.31,-987.29 1428.25,-979.01 1426.23,-970.89"/>
<polygon fill="black" stroke="black" points="1429.68,-970.28 1423.87,-961.42 1422.89,-971.97 1429.68,-970.28"/>
</g>
<!-- 33 -->
<g id="node34" class="node">
<title>33</title>
<path fill="#f6d1b7" stroke="black" d="M1653,-951.25C1653,-951.25 1547.75,-951.25 1547.75,-951.25 1541.75,-951.25 1535.75,-945.25 1535.75,-939.25 1535.75,-939.25 1535.75,-889.25 1535.75,-889.25 1535.75,-883.25 1541.75,-877.25 1547.75,-877.25 1547.75,-877.25 1653,-877.25 1653,-877.25 1659,-877.25 1665,-883.25 1665,-889.25 1665,-889.25 1665,-939.25 1665,-939.25 1665,-945.25 1659,-951.25 1653,-951.25"/>
<text text-anchor="start" x="1563.25" y="-933.95" font-family="Helvetica,sans-Serif" font-size="14.00">gini = 0.475</text>
<text text-anchor="start" x="1549" y="-917.45" font-family="Helvetica,sans-Serif" font-size="14.00">samples = 1618</text>
<text text-anchor="start" x="1543.75" y="-900.95" font-family="Helvetica,sans-Serif" font-size="14.00">value = [989, 629]</text>
<text text-anchor="start" x="1556.5" y="-884.45" font-family="Helvetica,sans-Serif" font-size="14.00">class = edible</text>
</g>
<!-- 29&#45;&gt;33 -->
<g id="edge33" class="edge">
<title>29&#45;&gt;33</title>
<path fill="none" stroke="black" d="M1499.61,-995.15C1514.69,-983.2 1530.96,-970.29 1545.94,-958.42"/>
<polygon fill="black" stroke="black" points="1547.75,-961.45 1553.41,-952.5 1543.4,-955.97 1547.75,-961.45"/>
</g>
<!-- 31 -->
<g id="node32" class="node">
<title>31</title>
<path fill="#3b9ee5" stroke="black" d="M1422.75,-824.75C1422.75,-824.75 1316,-824.75 1316,-824.75 1310,-824.75 1304,-818.75 1304,-812.75 1304,-812.75 1304,-762.75 1304,-762.75 1304,-756.75 1310,-750.75 1316,-750.75 1316,-750.75 1422.75,-750.75 1422.75,-750.75 1428.75,-750.75 1434.75,-756.75 1434.75,-762.75 1434.75,-762.75 1434.75,-812.75 1434.75,-812.75 1434.75,-818.75 1428.75,-824.75 1422.75,-824.75"/>
<text text-anchor="start" x="1332.25" y="-807.45" font-family="Helvetica,sans-Serif" font-size="14.00">gini = 0.017</text>
<text text-anchor="start" x="1318" y="-790.95" font-family="Helvetica,sans-Serif" font-size="14.00">samples = 1050</text>
<text text-anchor="start" x="1316.88" y="-774.45" font-family="Helvetica,sans-Serif" font-size="14.00">value = [9, 1041]</text>
<text text-anchor="start" x="1312" y="-757.95" font-family="Helvetica,sans-Serif" font-size="14.00">class = poisonous</text>
</g>
<!-- 30&#45;&gt;31 -->
<g id="edge31" class="edge">
<title>30&#45;&gt;31</title>
<path fill="none" stroke="black" d="M1396.97,-868.65C1393.25,-857.87 1389.26,-846.32 1385.5,-835.45"/>
<polygon fill="black" stroke="black" points="1388.91,-834.6 1382.34,-826.29 1382.3,-836.88 1388.91,-834.6"/>
</g>
<!-- 32 -->
<g id="node33" class="node">
<title>32</title>
<path fill="#52a9e8" stroke="black" d="M1571.75,-824.75C1571.75,-824.75 1465,-824.75 1465,-824.75 1459,-824.75 1453,-818.75 1453,-812.75 1453,-812.75 1453,-762.75 1453,-762.75 1453,-756.75 1459,-750.75 1465,-750.75 1465,-750.75 1571.75,-750.75 1571.75,-750.75 1577.75,-750.75 1583.75,-756.75 1583.75,-762.75 1583.75,-762.75 1583.75,-812.75 1583.75,-812.75 1583.75,-818.75 1577.75,-824.75 1571.75,-824.75"/>
<text text-anchor="start" x="1481.25" y="-807.45" font-family="Helvetica,sans-Serif" font-size="14.00">gini = 0.199</text>
<text text-anchor="start" x="1467" y="-790.95" font-family="Helvetica,sans-Serif" font-size="14.00">samples = 1044</text>
<text text-anchor="start" x="1461.75" y="-774.45" font-family="Helvetica,sans-Serif" font-size="14.00">value = [117, 927]</text>
<text text-anchor="start" x="1461" y="-757.95" font-family="Helvetica,sans-Serif" font-size="14.00">class = poisonous</text>
</g>
<!-- 30&#45;&gt;32 -->
<g id="edge32" class="edge">
<title>30&#45;&gt;32</title>
<path fill="none" stroke="black" d="M1450.34,-868.65C1460.1,-857.2 1470.59,-844.88 1480.34,-833.42"/>
<polygon fill="black" stroke="black" points="1482.84,-835.89 1486.65,-826.01 1477.51,-831.35 1482.84,-835.89"/>
</g>
<!-- 35 -->
<g id="node36" class="node">
<title>35</title>
<path fill="#fbece1" stroke="black" d="M1958.12,-959.5C1958.12,-959.5 1754.62,-959.5 1754.62,-959.5 1748.62,-959.5 1742.62,-953.5 1742.62,-947.5 1742.62,-947.5 1742.62,-881 1742.62,-881 1742.62,-875 1748.62,-869 1754.62,-869 1754.62,-869 1958.12,-869 1958.12,-869 1964.12,-869 1970.12,-875 1970.12,-881 1970.12,-881 1970.12,-947.5 1970.12,-947.5 1970.12,-953.5 1964.12,-959.5 1958.12,-959.5"/>
<text text-anchor="start" x="1750.62" y="-942.2" font-family="Helvetica,sans-Serif" font-size="14.00">categorical__cap&#45;surface_s ≤ 0.5</text>
<text text-anchor="start" x="1819.25" y="-925.7" font-family="Helvetica,sans-Serif" font-size="14.00">gini = 0.497</text>
<text text-anchor="start" x="1800.88" y="-909.2" font-family="Helvetica,sans-Serif" font-size="14.00">samples = 20140</text>
<text text-anchor="start" x="1787.38" y="-892.7" font-family="Helvetica,sans-Serif" font-size="14.00">value = [10884, 9256]</text>
<text text-anchor="start" x="1812.5" y="-876.2" font-family="Helvetica,sans-Serif" font-size="14.00">class = edible</text>
</g>
<!-- 34&#45;&gt;35 -->
<g id="edge35" class="edge">
<title>34&#45;&gt;35</title>
<path fill="none" stroke="black" d="M1856.38,-995.15C1856.38,-987.47 1856.38,-979.39 1856.38,-971.44"/>
<polygon fill="black" stroke="black" points="1859.88,-971.47 1856.38,-961.47 1852.88,-971.47 1859.88,-971.47"/>
</g>
<!-- 66 -->
<g id="node67" class="node">
<title>66</title>
<path fill="#ea985d" stroke="black" d="M2298.88,-959.5C2298.88,-959.5 2111.88,-959.5 2111.88,-959.5 2105.88,-959.5 2099.88,-953.5 2099.88,-947.5 2099.88,-947.5 2099.88,-881 2099.88,-881 2099.88,-875 2105.88,-869 2111.88,-869 2111.88,-869 2298.88,-869 2298.88,-869 2304.88,-869 2310.88,-875 2310.88,-881 2310.88,-881 2310.88,-947.5 2310.88,-947.5 2310.88,-953.5 2304.88,-959.5 2298.88,-959.5"/>
<text text-anchor="start" x="2107.88" y="-942.2" font-family="Helvetica,sans-Serif" font-size="14.00">numeric__stem&#45;width ≤ 24.405</text>
<text text-anchor="start" x="2172.38" y="-925.7" font-family="Helvetica,sans-Serif" font-size="14.00">gini = 0.26</text>
<text text-anchor="start" x="2154" y="-909.2" font-family="Helvetica,sans-Serif" font-size="14.00">samples = 3633</text>
<text text-anchor="start" x="2144.62" y="-892.7" font-family="Helvetica,sans-Serif" font-size="14.00">value = [3075, 558]</text>
<text text-anchor="start" x="2161.5" y="-876.2" font-family="Helvetica,sans-Serif" font-size="14.00">class = edible</text>
</g>
<!-- 34&#45;&gt;66 -->
<g id="edge66" class="edge">
<title>34&#45;&gt;66</title>
<path fill="none" stroke="black" d="M1978.44,-996.21C2014.4,-983.38 2053.63,-969.38 2089.21,-956.69"/>
<polygon fill="black" stroke="black" points="2089.97,-960.14 2098.21,-953.48 2087.61,-953.54 2089.97,-960.14"/>
</g>
<!-- 36 -->
<g id="node37" class="node">
<title>36</title>
<path fill="#f6fbfe" stroke="black" d="M1825.25,-833C1825.25,-833 1613.5,-833 1613.5,-833 1607.5,-833 1601.5,-827 1601.5,-821 1601.5,-821 1601.5,-754.5 1601.5,-754.5 1601.5,-748.5 1607.5,-742.5 1613.5,-742.5 1613.5,-742.5 1825.25,-742.5 1825.25,-742.5 1831.25,-742.5 1837.25,-748.5 1837.25,-754.5 1837.25,-754.5 1837.25,-821 1837.25,-821 1837.25,-827 1831.25,-833 1825.25,-833"/>
<text text-anchor="start" x="1609.5" y="-815.7" font-family="Helvetica,sans-Serif" font-size="14.00">categorical__stem&#45;surface_s ≤ 0.5</text>
<text text-anchor="start" x="1690.5" y="-799.2" font-family="Helvetica,sans-Serif" font-size="14.00">gini = 0.5</text>
<text text-anchor="start" x="1663.88" y="-782.7" font-family="Helvetica,sans-Serif" font-size="14.00">samples = 17214</text>
<text text-anchor="start" x="1654.5" y="-766.2" font-family="Helvetica,sans-Serif" font-size="14.00">value = [8415, 8799]</text>
<text text-anchor="start" x="1662" y="-749.7" font-family="Helvetica,sans-Serif" font-size="14.00">class = poisonous</text>
</g>
<!-- 35&#45;&gt;36 -->
<g id="edge36" class="edge">
<title>35&#45;&gt;36</title>
<path fill="none" stroke="black" d="M1807.3,-868.65C1797.46,-859.71 1787.04,-850.25 1776.95,-841.07"/>
<polygon fill="black" stroke="black" points="1779.44,-838.61 1769.69,-834.47 1774.73,-843.79 1779.44,-838.61"/>
</g>
<!-- 63 -->
<g id="node64" class="node">
<title>63</title>
<path fill="#ea985e" stroke="black" d="M2051.38,-833C2051.38,-833 1867.38,-833 1867.38,-833 1861.38,-833 1855.38,-827 1855.38,-821 1855.38,-821 1855.38,-754.5 1855.38,-754.5 1855.38,-748.5 1861.38,-742.5 1867.38,-742.5 1867.38,-742.5 2051.38,-742.5 2051.38,-742.5 2057.38,-742.5 2063.38,-748.5 2063.38,-754.5 2063.38,-754.5 2063.38,-821 2063.38,-821 2063.38,-827 2057.38,-833 2051.38,-833"/>
<text text-anchor="start" x="1863.38" y="-815.7" font-family="Helvetica,sans-Serif" font-size="14.00">categorical__gill&#45;color_w ≤ 0.5</text>
<text text-anchor="start" x="1922.25" y="-799.2" font-family="Helvetica,sans-Serif" font-size="14.00">gini = 0.264</text>
<text text-anchor="start" x="1908" y="-782.7" font-family="Helvetica,sans-Serif" font-size="14.00">samples = 2926</text>
<text text-anchor="start" x="1886.62" y="-766.2" font-family="Helvetica,sans-Serif" font-size="14.00">value = [2469.0, 457.0]</text>
<text text-anchor="start" x="1915.5" y="-749.7" font-family="Helvetica,sans-Serif" font-size="14.00">class = edible</text>
</g>
<!-- 35&#45;&gt;63 -->
<g id="edge63" class="edge">
<title>35&#45;&gt;63</title>
<path fill="none" stroke="black" d="M1893.27,-868.65C1900.37,-860.07 1907.87,-851 1915.18,-842.17"/>
<polygon fill="black" stroke="black" points="1917.75,-844.56 1921.43,-834.62 1912.36,-840.09 1917.75,-844.56"/>
</g>
<!-- 37 -->
<g id="node38" class="node">
<title>37</title>
<path fill="#6fb8ec" stroke="black" d="M1584.25,-706.5C1584.25,-706.5 1396.5,-706.5 1396.5,-706.5 1390.5,-706.5 1384.5,-700.5 1384.5,-694.5 1384.5,-694.5 1384.5,-628 1384.5,-628 1384.5,-622 1390.5,-616 1396.5,-616 1396.5,-616 1584.25,-616 1584.25,-616 1590.25,-616 1596.25,-622 1596.25,-628 1596.25,-628 1596.25,-694.5 1596.25,-694.5 1596.25,-700.5 1590.25,-706.5 1584.25,-706.5"/>
<text text-anchor="start" x="1392.5" y="-689.2" font-family="Helvetica,sans-Serif" font-size="14.00">categorical__cap&#45;color_n ≤ 0.5</text>
<text text-anchor="start" x="1453.25" y="-672.7" font-family="Helvetica,sans-Serif" font-size="14.00">gini = 0.338</text>
<text text-anchor="start" x="1439" y="-656.2" font-family="Helvetica,sans-Serif" font-size="14.00">samples = 3847</text>
<text text-anchor="start" x="1429.62" y="-639.7" font-family="Helvetica,sans-Serif" font-size="14.00">value = [827, 3020]</text>
<text text-anchor="start" x="1433" y="-623.2" font-family="Helvetica,sans-Serif" font-size="14.00">class = poisonous</text>
</g>
<!-- 36&#45;&gt;37 -->
<g id="edge37" class="edge">
<title>36&#45;&gt;37</title>
<path fill="none" stroke="black" d="M1637.35,-742.15C1619.59,-732.5 1600.69,-722.23 1582.57,-712.38"/>
<polygon fill="black" stroke="black" points="1584.39,-709.38 1573.93,-707.68 1581.04,-715.53 1584.39,-709.38"/>
</g>
<!-- 42 -->
<g id="node43" class="node">
<title>42</title>
<path fill="#f9e1d0" stroke="black" d="M1812.88,-706.5C1812.88,-706.5 1625.88,-706.5 1625.88,-706.5 1619.88,-706.5 1613.88,-700.5 1613.88,-694.5 1613.88,-694.5 1613.88,-628 1613.88,-628 1613.88,-622 1619.88,-616 1625.88,-616 1625.88,-616 1812.88,-616 1812.88,-616 1818.88,-616 1824.88,-622 1824.88,-628 1824.88,-628 1824.88,-694.5 1824.88,-694.5 1824.88,-700.5 1818.88,-706.5 1812.88,-706.5"/>
<text text-anchor="start" x="1621.88" y="-689.2" font-family="Helvetica,sans-Serif" font-size="14.00">numeric__stem&#45;width ≤ 17.375</text>
<text text-anchor="start" x="1682.25" y="-672.7" font-family="Helvetica,sans-Serif" font-size="14.00">gini = 0.491</text>
<text text-anchor="start" x="1663.88" y="-656.2" font-family="Helvetica,sans-Serif" font-size="14.00">samples = 13367</text>
<text text-anchor="start" x="1654.5" y="-639.7" font-family="Helvetica,sans-Serif" font-size="14.00">value = [7588, 5779]</text>
<text text-anchor="start" x="1675.5" y="-623.2" font-family="Helvetica,sans-Serif" font-size="14.00">class = edible</text>
</g>
<!-- 36&#45;&gt;42 -->
<g id="edge42" class="edge">
<title>36&#45;&gt;42</title>
<path fill="none" stroke="black" d="M1719.38,-742.15C1719.38,-734.47 1719.38,-726.39 1719.38,-718.44"/>
<polygon fill="black" stroke="black" points="1722.88,-718.47 1719.38,-708.47 1715.88,-718.47 1722.88,-718.47"/>
</g>
<!-- 38 -->
<g id="node39" class="node">
<title>38</title>
<path fill="#44a2e6" stroke="black" d="M1401.75,-580C1401.75,-580 1217,-580 1217,-580 1211,-580 1205,-574 1205,-568 1205,-568 1205,-501.5 1205,-501.5 1205,-495.5 1211,-489.5 1217,-489.5 1217,-489.5 1401.75,-489.5 1401.75,-489.5 1407.75,-489.5 1413.75,-495.5 1413.75,-501.5 1413.75,-501.5 1413.75,-568 1413.75,-568 1413.75,-574 1407.75,-580 1401.75,-580"/>
<text text-anchor="start" x="1213" y="-562.7" font-family="Helvetica,sans-Serif" font-size="14.00">numeric__stem&#45;height ≤ 6.115</text>
<text text-anchor="start" x="1272.25" y="-546.2" font-family="Helvetica,sans-Serif" font-size="14.00">gini = 0.098</text>
<text text-anchor="start" x="1258" y="-529.7" font-family="Helvetica,sans-Serif" font-size="14.00">samples = 2217</text>
<text text-anchor="start" x="1248.62" y="-513.2" font-family="Helvetica,sans-Serif" font-size="14.00">value = [115, 2102]</text>
<text text-anchor="start" x="1252" y="-496.7" font-family="Helvetica,sans-Serif" font-size="14.00">class = poisonous</text>
</g>
<!-- 37&#45;&gt;38 -->
<g id="edge38" class="edge">
<title>37&#45;&gt;38</title>
<path fill="none" stroke="black" d="M1425.54,-615.65C1412.02,-606.36 1397.68,-596.49 1383.84,-586.97"/>
<polygon fill="black" stroke="black" points="1385.83,-584.09 1375.61,-581.31 1381.87,-589.86 1385.83,-584.09"/>
</g>
<!-- 41 -->
<g id="node42" class="node">
<title>41</title>
<path fill="#d3e9f9" stroke="black" d="M1550.75,-571.75C1550.75,-571.75 1444,-571.75 1444,-571.75 1438,-571.75 1432,-565.75 1432,-559.75 1432,-559.75 1432,-509.75 1432,-509.75 1432,-503.75 1438,-497.75 1444,-497.75 1444,-497.75 1550.75,-497.75 1550.75,-497.75 1556.75,-497.75 1562.75,-503.75 1562.75,-509.75 1562.75,-509.75 1562.75,-559.75 1562.75,-559.75 1562.75,-565.75 1556.75,-571.75 1550.75,-571.75"/>
<text text-anchor="start" x="1460.25" y="-554.45" font-family="Helvetica,sans-Serif" font-size="14.00">gini = 0.492</text>
<text text-anchor="start" x="1446" y="-537.95" font-family="Helvetica,sans-Serif" font-size="14.00">samples = 1630</text>
<text text-anchor="start" x="1440.75" y="-521.45" font-family="Helvetica,sans-Serif" font-size="14.00">value = [712, 918]</text>
<text text-anchor="start" x="1440" y="-504.95" font-family="Helvetica,sans-Serif" font-size="14.00">class = poisonous</text>
</g>
<!-- 37&#45;&gt;41 -->
<g id="edge41" class="edge">
<title>37&#45;&gt;41</title>
<path fill="none" stroke="black" d="M1492.88,-615.65C1493.48,-605.1 1494.11,-593.81 1494.71,-583.13"/>
<polygon fill="black" stroke="black" points="1498.19,-583.55 1495.26,-573.37 1491.2,-583.15 1498.19,-583.55"/>
</g>
<!-- 39 -->
<g id="node40" class="node">
<title>39</title>
<path fill="#399de5" stroke="black" d="M1219.75,-445.25C1219.75,-445.25 1113,-445.25 1113,-445.25 1107,-445.25 1101,-439.25 1101,-433.25 1101,-433.25 1101,-383.25 1101,-383.25 1101,-377.25 1107,-371.25 1113,-371.25 1113,-371.25 1219.75,-371.25 1219.75,-371.25 1225.75,-371.25 1231.75,-377.25 1231.75,-383.25 1231.75,-383.25 1231.75,-433.25 1231.75,-433.25 1231.75,-439.25 1225.75,-445.25 1219.75,-445.25"/>
<text text-anchor="start" x="1137.5" y="-427.95" font-family="Helvetica,sans-Serif" font-size="14.00">gini = 0.0</text>
<text text-anchor="start" x="1115" y="-411.45" font-family="Helvetica,sans-Serif" font-size="14.00">samples = 1217</text>
<text text-anchor="start" x="1113.88" y="-394.95" font-family="Helvetica,sans-Serif" font-size="14.00">value = [0, 1217]</text>
<text text-anchor="start" x="1109" y="-378.45" font-family="Helvetica,sans-Serif" font-size="14.00">class = poisonous</text>
</g>
<!-- 38&#45;&gt;39 -->
<g id="edge39" class="edge">
<title>38&#45;&gt;39</title>
<path fill="none" stroke="black" d="M1258.15,-489.15C1244.61,-477.36 1230.01,-464.65 1216.52,-452.91"/>
<polygon fill="black" stroke="black" points="1218.83,-450.28 1208.99,-446.35 1214.23,-455.56 1218.83,-450.28"/>
</g>
<!-- 40 -->
<g id="node41" class="node">
<title>40</title>
<path fill="#53aae8" stroke="black" d="M1368.75,-445.25C1368.75,-445.25 1262,-445.25 1262,-445.25 1256,-445.25 1250,-439.25 1250,-433.25 1250,-433.25 1250,-383.25 1250,-383.25 1250,-377.25 1256,-371.25 1262,-371.25 1262,-371.25 1368.75,-371.25 1368.75,-371.25 1374.75,-371.25 1380.75,-377.25 1380.75,-383.25 1380.75,-383.25 1380.75,-433.25 1380.75,-433.25 1380.75,-439.25 1374.75,-445.25 1368.75,-445.25"/>
<text text-anchor="start" x="1278.25" y="-427.95" font-family="Helvetica,sans-Serif" font-size="14.00">gini = 0.204</text>
<text text-anchor="start" x="1264" y="-411.45" font-family="Helvetica,sans-Serif" font-size="14.00">samples = 1000</text>
<text text-anchor="start" x="1258.75" y="-394.95" font-family="Helvetica,sans-Serif" font-size="14.00">value = [115, 885]</text>
<text text-anchor="start" x="1258" y="-378.45" font-family="Helvetica,sans-Serif" font-size="14.00">class = poisonous</text>
</g>
<!-- 38&#45;&gt;40 -->
<g id="edge40" class="edge">
<title>38&#45;&gt;40</title>
<path fill="none" stroke="black" d="M1311.52,-489.15C1312.03,-478.6 1312.58,-467.31 1313.09,-456.63"/>
<polygon fill="black" stroke="black" points="1316.58,-457.02 1313.56,-446.87 1309.58,-456.69 1316.58,-457.02"/>
</g>
<!-- 43 -->
<g id="node44" class="node">
<title>43</title>
<path fill="#f2f8fd" stroke="black" d="M1821.38,-580C1821.38,-580 1601.38,-580 1601.38,-580 1595.38,-580 1589.38,-574 1589.38,-568 1589.38,-568 1589.38,-501.5 1589.38,-501.5 1589.38,-495.5 1595.38,-489.5 1601.38,-489.5 1601.38,-489.5 1821.38,-489.5 1821.38,-489.5 1827.38,-489.5 1833.38,-495.5 1833.38,-501.5 1833.38,-501.5 1833.38,-568 1833.38,-568 1833.38,-574 1827.38,-580 1821.38,-580"/>
<text text-anchor="start" x="1597.38" y="-562.7" font-family="Helvetica,sans-Serif" font-size="14.00">categorical__gill&#45;attachment_e ≤ 0.5</text>
<text text-anchor="start" x="1674.25" y="-546.2" font-family="Helvetica,sans-Serif" font-size="14.00">gini = 0.499</text>
<text text-anchor="start" x="1660" y="-529.7" font-family="Helvetica,sans-Serif" font-size="14.00">samples = 8732</text>
<text text-anchor="start" x="1634.5" y="-513.2" font-family="Helvetica,sans-Serif" font-size="14.00">value = [4215.0, 4517.0]</text>
<text text-anchor="start" x="1654" y="-496.7" font-family="Helvetica,sans-Serif" font-size="14.00">class = poisonous</text>
</g>
<!-- 42&#45;&gt;43 -->
<g id="edge43" class="edge">
<title>42&#45;&gt;43</title>
<path fill="none" stroke="black" d="M1716.51,-615.65C1716.02,-607.97 1715.5,-599.89 1714.99,-591.94"/>
<polygon fill="black" stroke="black" points="1718.48,-591.72 1714.34,-581.96 1711.49,-592.17 1718.48,-591.72"/>
</g>
<!-- 56 -->
<g id="node57" class="node">
<title>56</title>
<path fill="#efb083" stroke="black" d="M2083.38,-580C2083.38,-580 1863.38,-580 1863.38,-580 1857.38,-580 1851.38,-574 1851.38,-568 1851.38,-568 1851.38,-501.5 1851.38,-501.5 1851.38,-495.5 1857.38,-489.5 1863.38,-489.5 1863.38,-489.5 2083.38,-489.5 2083.38,-489.5 2089.38,-489.5 2095.38,-495.5 2095.38,-501.5 2095.38,-501.5 2095.38,-568 2095.38,-568 2095.38,-574 2089.38,-580 2083.38,-580"/>
<text text-anchor="start" x="1859.38" y="-562.7" font-family="Helvetica,sans-Serif" font-size="14.00">categorical__gill&#45;attachment_d ≤ 0.5</text>
<text text-anchor="start" x="1936.25" y="-546.2" font-family="Helvetica,sans-Serif" font-size="14.00">gini = 0.396</text>
<text text-anchor="start" x="1922" y="-529.7" font-family="Helvetica,sans-Serif" font-size="14.00">samples = 4635</text>
<text text-anchor="start" x="1908.5" y="-513.2" font-family="Helvetica,sans-Serif" font-size="14.00">value = [3373, 1262]</text>
<text text-anchor="start" x="1929.5" y="-496.7" font-family="Helvetica,sans-Serif" font-size="14.00">class = edible</text>
</g>
<!-- 42&#45;&gt;56 -->
<g id="edge56" class="edge">
<title>42&#45;&gt;56</title>
<path fill="none" stroke="black" d="M1810.36,-615.65C1830.33,-605.87 1851.59,-595.44 1871.95,-585.47"/>
<polygon fill="black" stroke="black" points="1873.38,-588.66 1880.82,-581.12 1870.3,-582.38 1873.38,-588.66"/>
</g>
<!-- 44 -->
<g id="node45" class="node">
<title>44</title>
<path fill="#c5e2f7" stroke="black" d="M1621.5,-453.5C1621.5,-453.5 1423.25,-453.5 1423.25,-453.5 1417.25,-453.5 1411.25,-447.5 1411.25,-441.5 1411.25,-441.5 1411.25,-375 1411.25,-375 1411.25,-369 1417.25,-363 1423.25,-363 1423.25,-363 1621.5,-363 1621.5,-363 1627.5,-363 1633.5,-369 1633.5,-375 1633.5,-375 1633.5,-441.5 1633.5,-441.5 1633.5,-447.5 1627.5,-453.5 1621.5,-453.5"/>
<text text-anchor="start" x="1419.25" y="-436.2" font-family="Helvetica,sans-Serif" font-size="14.00">categorical__stem&#45;color_w ≤ 0.5</text>
<text text-anchor="start" x="1485.25" y="-419.7" font-family="Helvetica,sans-Serif" font-size="14.00">gini = 0.485</text>
<text text-anchor="start" x="1471" y="-403.2" font-family="Helvetica,sans-Serif" font-size="14.00">samples = 7208</text>
<text text-anchor="start" x="1457.5" y="-386.7" font-family="Helvetica,sans-Serif" font-size="14.00">value = [2980, 4228]</text>
<text text-anchor="start" x="1465" y="-370.2" font-family="Helvetica,sans-Serif" font-size="14.00">class = poisonous</text>
</g>
<!-- 43&#45;&gt;44 -->
<g id="edge44" class="edge">
<title>43&#45;&gt;44</title>
<path fill="none" stroke="black" d="M1643.68,-489.15C1629.43,-479.77 1614.29,-469.8 1599.72,-460.2"/>
<polygon fill="black" stroke="black" points="1601.78,-457.36 1591.5,-454.79 1597.93,-463.21 1601.78,-457.36"/>
</g>
<!-- 55 -->
<g id="node56" class="node">
<title>55</title>
<path fill="#eb9e67" stroke="black" d="M1777.12,-445.25C1777.12,-445.25 1663.62,-445.25 1663.62,-445.25 1657.62,-445.25 1651.62,-439.25 1651.62,-433.25 1651.62,-433.25 1651.62,-383.25 1651.62,-383.25 1651.62,-377.25 1657.62,-371.25 1663.62,-371.25 1663.62,-371.25 1777.12,-371.25 1777.12,-371.25 1783.12,-371.25 1789.12,-377.25 1789.12,-383.25 1789.12,-383.25 1789.12,-433.25 1789.12,-433.25 1789.12,-439.25 1783.12,-445.25 1777.12,-445.25"/>
<text text-anchor="start" x="1683.25" y="-427.95" font-family="Helvetica,sans-Serif" font-size="14.00">gini = 0.307</text>
<text text-anchor="start" x="1669" y="-411.45" font-family="Helvetica,sans-Serif" font-size="14.00">samples = 1524</text>
<text text-anchor="start" x="1659.62" y="-394.95" font-family="Helvetica,sans-Serif" font-size="14.00">value = [1235, 289]</text>
<text text-anchor="start" x="1676.5" y="-378.45" font-family="Helvetica,sans-Serif" font-size="14.00">class = edible</text>
</g>
<!-- 43&#45;&gt;55 -->
<g id="edge55" class="edge">
<title>43&#45;&gt;55</title>
<path fill="none" stroke="black" d="M1714.6,-489.15C1715.36,-478.6 1716.18,-467.31 1716.95,-456.63"/>
<polygon fill="black" stroke="black" points="1720.43,-457.09 1717.66,-446.87 1713.44,-456.59 1720.43,-457.09"/>
</g>
<!-- 45 -->
<g id="node46" class="node">
<title>45</title>
<path fill="#86c3ef" stroke="black" d="M1401.38,-327C1401.38,-327 1181.38,-327 1181.38,-327 1175.38,-327 1169.38,-321 1169.38,-315 1169.38,-315 1169.38,-248.5 1169.38,-248.5 1169.38,-242.5 1175.38,-236.5 1181.38,-236.5 1181.38,-236.5 1401.38,-236.5 1401.38,-236.5 1407.38,-236.5 1413.38,-242.5 1413.38,-248.5 1413.38,-248.5 1413.38,-315 1413.38,-315 1413.38,-321 1407.38,-327 1401.38,-327"/>
<text text-anchor="start" x="1177.38" y="-309.7" font-family="Helvetica,sans-Serif" font-size="14.00">categorical__gill&#45;attachment_d ≤ 0.5</text>
<text text-anchor="start" x="1254.25" y="-293.2" font-family="Helvetica,sans-Serif" font-size="14.00">gini = 0.404</text>
<text text-anchor="start" x="1240" y="-276.7" font-family="Helvetica,sans-Serif" font-size="14.00">samples = 3547</text>
<text text-anchor="start" x="1218.62" y="-260.2" font-family="Helvetica,sans-Serif" font-size="14.00">value = [997.0, 2550.0]</text>
<text text-anchor="start" x="1234" y="-243.7" font-family="Helvetica,sans-Serif" font-size="14.00">class = poisonous</text>
</g>
<!-- 44&#45;&gt;45 -->
<g id="edge45" class="edge">
<title>44&#45;&gt;45</title>
<path fill="none" stroke="black" d="M1439.63,-362.65C1421.72,-353 1402.66,-342.73 1384.38,-332.88"/>
<polygon fill="black" stroke="black" points="1386.11,-329.83 1375.65,-328.17 1382.79,-336 1386.11,-329.83"/>
</g>
<!-- 50 -->
<g id="node51" class="node">
<title>50</title>
<path fill="#fbece1" stroke="black" d="M1618.88,-327C1618.88,-327 1443.88,-327 1443.88,-327 1437.88,-327 1431.88,-321 1431.88,-315 1431.88,-315 1431.88,-248.5 1431.88,-248.5 1431.88,-242.5 1437.88,-236.5 1443.88,-236.5 1443.88,-236.5 1618.88,-236.5 1618.88,-236.5 1624.88,-236.5 1630.88,-242.5 1630.88,-248.5 1630.88,-248.5 1630.88,-315 1630.88,-315 1630.88,-321 1624.88,-327 1618.88,-327"/>
<text text-anchor="start" x="1439.88" y="-309.7" font-family="Helvetica,sans-Serif" font-size="14.00">categorical__has&#45;ring_t ≤ 0.5</text>
<text text-anchor="start" x="1494.25" y="-293.2" font-family="Helvetica,sans-Serif" font-size="14.00">gini = 0.497</text>
<text text-anchor="start" x="1480" y="-276.7" font-family="Helvetica,sans-Serif" font-size="14.00">samples = 3661</text>
<text text-anchor="start" x="1466.5" y="-260.2" font-family="Helvetica,sans-Serif" font-size="14.00">value = [1983, 1678]</text>
<text text-anchor="start" x="1487.5" y="-243.7" font-family="Helvetica,sans-Serif" font-size="14.00">class = edible</text>
</g>
<!-- 44&#45;&gt;50 -->
<g id="edge50" class="edge">
<title>44&#45;&gt;50</title>
<path fill="none" stroke="black" d="M1525.6,-362.65C1526.16,-354.88 1526.75,-346.7 1527.33,-338.66"/>
<polygon fill="black" stroke="black" points="1530.8,-339.19 1528.03,-328.96 1523.82,-338.68 1530.8,-339.19"/>
</g>
<!-- 46 -->
<g id="node47" class="node">
<title>46</title>
<path fill="#cae5f8" stroke="black" d="M1204.75,-200.5C1204.75,-200.5 1020,-200.5 1020,-200.5 1014,-200.5 1008,-194.5 1008,-188.5 1008,-188.5 1008,-122 1008,-122 1008,-116 1014,-110 1020,-110 1020,-110 1204.75,-110 1204.75,-110 1210.75,-110 1216.75,-116 1216.75,-122 1216.75,-122 1216.75,-188.5 1216.75,-188.5 1216.75,-194.5 1210.75,-200.5 1204.75,-200.5"/>
<text text-anchor="start" x="1016" y="-183.2" font-family="Helvetica,sans-Serif" font-size="14.00">numeric__stem&#45;height ≤ 4.705</text>
<text text-anchor="start" x="1075.25" y="-166.7" font-family="Helvetica,sans-Serif" font-size="14.00">gini = 0.488</text>
<text text-anchor="start" x="1061" y="-150.2" font-family="Helvetica,sans-Serif" font-size="14.00">samples = 2337</text>
<text text-anchor="start" x="1039.62" y="-133.7" font-family="Helvetica,sans-Serif" font-size="14.00">value = [986.0, 1351.0]</text>
<text text-anchor="start" x="1055" y="-117.2" font-family="Helvetica,sans-Serif" font-size="14.00">class = poisonous</text>
</g>
<!-- 45&#45;&gt;46 -->
<g id="edge46" class="edge">
<title>45&#45;&gt;46</title>
<path fill="none" stroke="black" d="M1227.26,-236.15C1213.89,-226.86 1199.7,-216.99 1186.02,-207.47"/>
<polygon fill="black" stroke="black" points="1188.1,-204.65 1177.89,-201.82 1184.1,-210.4 1188.1,-204.65"/>
</g>
<!-- 49 -->
<g id="node50" class="node">
<title>49</title>
<path fill="#3b9ee5" stroke="black" d="M1353.75,-192.25C1353.75,-192.25 1247,-192.25 1247,-192.25 1241,-192.25 1235,-186.25 1235,-180.25 1235,-180.25 1235,-130.25 1235,-130.25 1235,-124.25 1241,-118.25 1247,-118.25 1247,-118.25 1353.75,-118.25 1353.75,-118.25 1359.75,-118.25 1365.75,-124.25 1365.75,-130.25 1365.75,-130.25 1365.75,-180.25 1365.75,-180.25 1365.75,-186.25 1359.75,-192.25 1353.75,-192.25"/>
<text text-anchor="start" x="1263.25" y="-174.95" font-family="Helvetica,sans-Serif" font-size="14.00">gini = 0.018</text>
<text text-anchor="start" x="1249" y="-158.45" font-family="Helvetica,sans-Serif" font-size="14.00">samples = 1210</text>
<text text-anchor="start" x="1243.75" y="-141.95" font-family="Helvetica,sans-Serif" font-size="14.00">value = [11, 1199]</text>
<text text-anchor="start" x="1243" y="-125.45" font-family="Helvetica,sans-Serif" font-size="14.00">class = poisonous</text>
</g>
<!-- 45&#45;&gt;49 -->
<g id="edge49" class="edge">
<title>45&#45;&gt;49</title>
<path fill="none" stroke="black" d="M1294.6,-236.15C1295.36,-225.6 1296.18,-214.31 1296.95,-203.63"/>
<polygon fill="black" stroke="black" points="1300.43,-204.09 1297.66,-193.87 1293.44,-203.59 1300.43,-204.09"/>
</g>
<!-- 47 -->
<g id="node48" class="node">
<title>47</title>
<path fill="#71b9ec" stroke="black" d="M1136.75,-74C1136.75,-74 1030,-74 1030,-74 1024,-74 1018,-68 1018,-62 1018,-62 1018,-12 1018,-12 1018,-6 1024,0 1030,0 1030,0 1136.75,0 1136.75,0 1142.75,0 1148.75,-6 1148.75,-12 1148.75,-12 1148.75,-62 1148.75,-62 1148.75,-68 1142.75,-74 1136.75,-74"/>
<text text-anchor="start" x="1046.25" y="-56.7" font-family="Helvetica,sans-Serif" font-size="14.00">gini = 0.344</text>
<text text-anchor="start" x="1032" y="-40.2" font-family="Helvetica,sans-Serif" font-size="14.00">samples = 1001</text>
<text text-anchor="start" x="1026.75" y="-23.7" font-family="Helvetica,sans-Serif" font-size="14.00">value = [221, 780]</text>
<text text-anchor="start" x="1026" y="-7.2" font-family="Helvetica,sans-Serif" font-size="14.00">class = poisonous</text>
</g>
<!-- 46&#45;&gt;47 -->
<g id="edge47" class="edge">
<title>46&#45;&gt;47</title>
<path fill="none" stroke="black" d="M1101.25,-109.64C1099.27,-101.72 1097.21,-93.44 1095.21,-85.45"/>
<polygon fill="black" stroke="black" points="1098.64,-84.72 1092.82,-75.86 1091.84,-86.41 1098.64,-84.72"/>
</g>
<!-- 48 -->
<g id="node49" class="node">
<title>48</title>
<path fill="#f8dfcd" stroke="black" d="M1284,-74C1284,-74 1178.75,-74 1178.75,-74 1172.75,-74 1166.75,-68 1166.75,-62 1166.75,-62 1166.75,-12 1166.75,-12 1166.75,-6 1172.75,0 1178.75,0 1178.75,0 1284,0 1284,0 1290,0 1296,-6 1296,-12 1296,-12 1296,-62 1296,-62 1296,-68 1290,-74 1284,-74"/>
<text text-anchor="start" x="1194.25" y="-56.7" font-family="Helvetica,sans-Serif" font-size="14.00">gini = 0.489</text>
<text text-anchor="start" x="1180" y="-40.2" font-family="Helvetica,sans-Serif" font-size="14.00">samples = 1336</text>
<text text-anchor="start" x="1174.75" y="-23.7" font-family="Helvetica,sans-Serif" font-size="14.00">value = [765, 571]</text>
<text text-anchor="start" x="1187.5" y="-7.2" font-family="Helvetica,sans-Serif" font-size="14.00">class = edible</text>
</g>
<!-- 46&#45;&gt;48 -->
<g id="edge48" class="edge">
<title>46&#45;&gt;48</title>
<path fill="none" stroke="black" d="M1158.04,-109.64C1167.18,-100.72 1176.77,-91.34 1185.9,-82.43"/>
<polygon fill="black" stroke="black" points="1188.33,-84.94 1193.04,-75.45 1183.44,-79.94 1188.33,-84.94"/>
</g>
<!-- 51 -->
<g id="node52" class="node">
<title>51</title>
<path fill="#f2bf9b" stroke="black" d="M1631.62,-200.5C1631.62,-200.5 1413.12,-200.5 1413.12,-200.5 1407.12,-200.5 1401.12,-194.5 1401.12,-188.5 1401.12,-188.5 1401.12,-122 1401.12,-122 1401.12,-116 1407.12,-110 1413.12,-110 1413.12,-110 1631.62,-110 1631.62,-110 1637.62,-110 1643.62,-116 1643.62,-122 1643.62,-122 1643.62,-188.5 1643.62,-188.5 1643.62,-194.5 1637.62,-200.5 1631.62,-200.5"/>
<text text-anchor="start" x="1409.12" y="-183.2" font-family="Helvetica,sans-Serif" font-size="14.00">categorical__gill&#45;attachment_x ≤ 0.5</text>
<text text-anchor="start" x="1485.25" y="-166.7" font-family="Helvetica,sans-Serif" font-size="14.00">gini = 0.442</text>
<text text-anchor="start" x="1471" y="-150.2" font-family="Helvetica,sans-Serif" font-size="14.00">samples = 2573</text>
<text text-anchor="start" x="1449.62" y="-133.7" font-family="Helvetica,sans-Serif" font-size="14.00">value = [1724.0, 849.0]</text>
<text text-anchor="start" x="1478.5" y="-117.2" font-family="Helvetica,sans-Serif" font-size="14.00">class = edible</text>
</g>
<!-- 50&#45;&gt;51 -->
<g id="edge51" class="edge">
<title>50&#45;&gt;51</title>
<path fill="none" stroke="black" d="M1528.15,-236.15C1527.59,-228.38 1527,-220.2 1526.42,-212.16"/>
<polygon fill="black" stroke="black" points="1529.93,-212.18 1525.72,-202.46 1522.95,-212.69 1529.93,-212.18"/>
</g>
<!-- 54 -->
<g id="node55" class="node">
<title>54</title>
<path fill="#77bced" stroke="black" d="M1780.75,-192.25C1780.75,-192.25 1674,-192.25 1674,-192.25 1668,-192.25 1662,-186.25 1662,-180.25 1662,-180.25 1662,-130.25 1662,-130.25 1662,-124.25 1668,-118.25 1674,-118.25 1674,-118.25 1780.75,-118.25 1780.75,-118.25 1786.75,-118.25 1792.75,-124.25 1792.75,-130.25 1792.75,-130.25 1792.75,-180.25 1792.75,-180.25 1792.75,-186.25 1786.75,-192.25 1780.75,-192.25"/>
<text text-anchor="start" x="1690.25" y="-174.95" font-family="Helvetica,sans-Serif" font-size="14.00">gini = 0.363</text>
<text text-anchor="start" x="1676" y="-158.45" font-family="Helvetica,sans-Serif" font-size="14.00">samples = 1088</text>
<text text-anchor="start" x="1670.75" y="-141.95" font-family="Helvetica,sans-Serif" font-size="14.00">value = [259, 829]</text>
<text text-anchor="start" x="1670" y="-125.45" font-family="Helvetica,sans-Serif" font-size="14.00">class = poisonous</text>
</g>
<!-- 50&#45;&gt;54 -->
<g id="edge54" class="edge">
<title>50&#45;&gt;54</title>
<path fill="none" stroke="black" d="M1601.58,-236.15C1620.85,-223.92 1641.67,-210.69 1660.73,-198.58"/>
<polygon fill="black" stroke="black" points="1662.38,-201.68 1668.94,-193.37 1658.62,-195.77 1662.38,-201.68"/>
</g>
<!-- 52 -->
<g id="node53" class="node">
<title>52</title>
<path fill="#e89051" stroke="black" d="M1500.12,-74C1500.12,-74 1386.62,-74 1386.62,-74 1380.62,-74 1374.62,-68 1374.62,-62 1374.62,-62 1374.62,-12 1374.62,-12 1374.62,-6 1380.62,0 1386.62,0 1386.62,0 1500.12,0 1500.12,0 1506.12,0 1512.12,-6 1512.12,-12 1512.12,-12 1512.12,-62 1512.12,-62 1512.12,-68 1506.12,-74 1500.12,-74"/>
<text text-anchor="start" x="1406.25" y="-56.7" font-family="Helvetica,sans-Serif" font-size="14.00">gini = 0.195</text>
<text text-anchor="start" x="1392" y="-40.2" font-family="Helvetica,sans-Serif" font-size="14.00">samples = 1427</text>
<text text-anchor="start" x="1382.62" y="-23.7" font-family="Helvetica,sans-Serif" font-size="14.00">value = [1271, 156]</text>
<text text-anchor="start" x="1399.5" y="-7.2" font-family="Helvetica,sans-Serif" font-size="14.00">class = edible</text>
</g>
<!-- 51&#45;&gt;52 -->
<g id="edge52" class="edge">
<title>51&#45;&gt;52</title>
<path fill="none" stroke="black" d="M1492.06,-109.64C1486.3,-101.17 1480.27,-92.3 1474.5,-83.8"/>
<polygon fill="black" stroke="black" points="1477.47,-81.95 1468.96,-75.65 1471.68,-85.88 1477.47,-81.95"/>
</g>
<!-- 53 -->
<g id="node54" class="node">
<title>53</title>
<path fill="#baddf6" stroke="black" d="M1648.75,-74C1648.75,-74 1542,-74 1542,-74 1536,-74 1530,-68 1530,-62 1530,-62 1530,-12 1530,-12 1530,-6 1536,0 1542,0 1542,0 1648.75,0 1648.75,0 1654.75,0 1660.75,-6 1660.75,-12 1660.75,-12 1660.75,-62 1660.75,-62 1660.75,-68 1654.75,-74 1648.75,-74"/>
<text text-anchor="start" x="1558.25" y="-56.7" font-family="Helvetica,sans-Serif" font-size="14.00">gini = 0.478</text>
<text text-anchor="start" x="1544" y="-40.2" font-family="Helvetica,sans-Serif" font-size="14.00">samples = 1146</text>
<text text-anchor="start" x="1538.75" y="-23.7" font-family="Helvetica,sans-Serif" font-size="14.00">value = [453, 693]</text>
<text text-anchor="start" x="1538" y="-7.2" font-family="Helvetica,sans-Serif" font-size="14.00">class = poisonous</text>
</g>
<!-- 51&#45;&gt;53 -->
<g id="edge53" class="edge">
<title>51&#45;&gt;53</title>
<path fill="none" stroke="black" d="M1550.39,-109.64C1555.65,-101.26 1561.16,-92.49 1566.45,-84.07"/>
<polygon fill="black" stroke="black" points="1569.36,-86.01 1571.72,-75.68 1563.43,-82.28 1569.36,-86.01"/>
</g>
<!-- 57 -->
<g id="node58" class="node">
<title>57</title>
<path fill="#eb9e66" stroke="black" d="M2038.75,-453.5C2038.75,-453.5 1854,-453.5 1854,-453.5 1848,-453.5 1842,-447.5 1842,-441.5 1842,-441.5 1842,-375 1842,-375 1842,-369 1848,-363 1854,-363 1854,-363 2038.75,-363 2038.75,-363 2044.75,-363 2050.75,-369 2050.75,-375 2050.75,-375 2050.75,-441.5 2050.75,-441.5 2050.75,-447.5 2044.75,-453.5 2038.75,-453.5"/>
<text text-anchor="start" x="1850" y="-436.2" font-family="Helvetica,sans-Serif" font-size="14.00">numeric__stem&#45;height ≤ 8.245</text>
<text text-anchor="start" x="1909.25" y="-419.7" font-family="Helvetica,sans-Serif" font-size="14.00">gini = 0.302</text>
<text text-anchor="start" x="1895" y="-403.2" font-family="Helvetica,sans-Serif" font-size="14.00">samples = 3565</text>
<text text-anchor="start" x="1885.62" y="-386.7" font-family="Helvetica,sans-Serif" font-size="14.00">value = [2904, 661]</text>
<text text-anchor="start" x="1902.5" y="-370.2" font-family="Helvetica,sans-Serif" font-size="14.00">class = edible</text>
</g>
<!-- 56&#45;&gt;57 -->
<g id="edge57" class="edge">
<title>56&#45;&gt;57</title>
<path fill="none" stroke="black" d="M1963.7,-489.15C1962.02,-481.38 1960.24,-473.2 1958.5,-465.16"/>
<polygon fill="black" stroke="black" points="1961.93,-464.46 1956.39,-455.43 1955.09,-465.95 1961.93,-464.46"/>
</g>
<!-- 62 -->
<g id="node63" class="node">
<title>62</title>
<path fill="#d4e9f9" stroke="black" d="M2187.75,-445.25C2187.75,-445.25 2081,-445.25 2081,-445.25 2075,-445.25 2069,-439.25 2069,-433.25 2069,-433.25 2069,-383.25 2069,-383.25 2069,-377.25 2075,-371.25 2081,-371.25 2081,-371.25 2187.75,-371.25 2187.75,-371.25 2193.75,-371.25 2199.75,-377.25 2199.75,-383.25 2199.75,-383.25 2199.75,-433.25 2199.75,-433.25 2199.75,-439.25 2193.75,-445.25 2187.75,-445.25"/>
<text text-anchor="start" x="2097.25" y="-427.95" font-family="Helvetica,sans-Serif" font-size="14.00">gini = 0.492</text>
<text text-anchor="start" x="2083" y="-411.45" font-family="Helvetica,sans-Serif" font-size="14.00">samples = 1070</text>
<text text-anchor="start" x="2077.75" y="-394.95" font-family="Helvetica,sans-Serif" font-size="14.00">value = [469, 601]</text>
<text text-anchor="start" x="2077" y="-378.45" font-family="Helvetica,sans-Serif" font-size="14.00">class = poisonous</text>
</g>
<!-- 56&#45;&gt;62 -->
<g id="edge62" class="edge">
<title>56&#45;&gt;62</title>
<path fill="none" stroke="black" d="M2031.04,-489.15C2046.51,-477.2 2063.19,-464.29 2078.55,-452.42"/>
<polygon fill="black" stroke="black" points="2080.46,-455.37 2086.23,-446.48 2076.18,-449.83 2080.46,-455.37"/>
</g>
<!-- 58 -->
<g id="node59" class="node">
<title>58</title>
<path fill="#e78c4b" stroke="black" d="M2034.88,-327C2034.88,-327 1847.88,-327 1847.88,-327 1841.88,-327 1835.88,-321 1835.88,-315 1835.88,-315 1835.88,-248.5 1835.88,-248.5 1835.88,-242.5 1841.88,-236.5 1847.88,-236.5 1847.88,-236.5 2034.88,-236.5 2034.88,-236.5 2040.88,-236.5 2046.88,-242.5 2046.88,-248.5 2046.88,-248.5 2046.88,-315 2046.88,-315 2046.88,-321 2040.88,-327 2034.88,-327"/>
<text text-anchor="start" x="1843.88" y="-309.7" font-family="Helvetica,sans-Serif" font-size="14.00">numeric__stem&#45;width ≤ 20.145</text>
<text text-anchor="start" x="1904.25" y="-293.2" font-family="Helvetica,sans-Serif" font-size="14.00">gini = 0.151</text>
<text text-anchor="start" x="1890" y="-276.7" font-family="Helvetica,sans-Serif" font-size="14.00">samples = 2561</text>
<text text-anchor="start" x="1880.62" y="-260.2" font-family="Helvetica,sans-Serif" font-size="14.00">value = [2350, 211]</text>
<text text-anchor="start" x="1897.5" y="-243.7" font-family="Helvetica,sans-Serif" font-size="14.00">class = edible</text>
</g>
<!-- 57&#45;&gt;58 -->
<g id="edge58" class="edge">
<title>57&#45;&gt;58</title>
<path fill="none" stroke="black" d="M1944.58,-362.65C1944.28,-354.97 1943.95,-346.89 1943.63,-338.94"/>
<polygon fill="black" stroke="black" points="1947.13,-338.82 1943.23,-328.97 1940.14,-339.1 1947.13,-338.82"/>
</g>
<!-- 61 -->
<g id="node62" class="node">
<title>61</title>
<path fill="#fae7da" stroke="black" d="M2182,-318.75C2182,-318.75 2076.75,-318.75 2076.75,-318.75 2070.75,-318.75 2064.75,-312.75 2064.75,-306.75 2064.75,-306.75 2064.75,-256.75 2064.75,-256.75 2064.75,-250.75 2070.75,-244.75 2076.75,-244.75 2076.75,-244.75 2182,-244.75 2182,-244.75 2188,-244.75 2194,-250.75 2194,-256.75 2194,-256.75 2194,-306.75 2194,-306.75 2194,-312.75 2188,-318.75 2182,-318.75"/>
<text text-anchor="start" x="2092.25" y="-301.45" font-family="Helvetica,sans-Serif" font-size="14.00">gini = 0.495</text>
<text text-anchor="start" x="2078" y="-284.95" font-family="Helvetica,sans-Serif" font-size="14.00">samples = 1004</text>
<text text-anchor="start" x="2072.75" y="-268.45" font-family="Helvetica,sans-Serif" font-size="14.00">value = [554, 450]</text>
<text text-anchor="start" x="2085.5" y="-251.95" font-family="Helvetica,sans-Serif" font-size="14.00">class = edible</text>
</g>
<!-- 57&#45;&gt;61 -->
<g id="edge61" class="edge">
<title>57&#45;&gt;61</title>
<path fill="none" stroke="black" d="M2011.93,-362.65C2029.83,-350.47 2049.18,-337.31 2066.9,-325.25"/>
<polygon fill="black" stroke="black" points="2068.46,-328.43 2074.76,-319.91 2064.52,-322.64 2068.46,-328.43"/>
</g>
<!-- 59 -->
<g id="node60" class="node">
<title>59</title>
<path fill="#eb9e67" stroke="black" d="M1990,-192.25C1990,-192.25 1884.75,-192.25 1884.75,-192.25 1878.75,-192.25 1872.75,-186.25 1872.75,-180.25 1872.75,-180.25 1872.75,-130.25 1872.75,-130.25 1872.75,-124.25 1878.75,-118.25 1884.75,-118.25 1884.75,-118.25 1990,-118.25 1990,-118.25 1996,-118.25 2002,-124.25 2002,-130.25 2002,-130.25 2002,-180.25 2002,-180.25 2002,-186.25 1996,-192.25 1990,-192.25"/>
<text text-anchor="start" x="1900.25" y="-174.95" font-family="Helvetica,sans-Serif" font-size="14.00">gini = 0.305</text>
<text text-anchor="start" x="1886" y="-158.45" font-family="Helvetica,sans-Serif" font-size="14.00">samples = 1001</text>
<text text-anchor="start" x="1880.75" y="-141.95" font-family="Helvetica,sans-Serif" font-size="14.00">value = [813, 188]</text>
<text text-anchor="start" x="1893.5" y="-125.45" font-family="Helvetica,sans-Serif" font-size="14.00">class = edible</text>
</g>
<!-- 58&#45;&gt;59 -->
<g id="edge59" class="edge">
<title>58&#45;&gt;59</title>
<path fill="none" stroke="black" d="M1939.94,-236.15C1939.6,-225.6 1939.24,-214.31 1938.9,-203.63"/>
<polygon fill="black" stroke="black" points="1942.4,-203.75 1938.58,-193.87 1935.41,-203.98 1942.4,-203.75"/>
</g>
<!-- 60 -->
<g id="node61" class="node">
<title>60</title>
<path fill="#e5833c" stroke="black" d="M2137,-192.25C2137,-192.25 2031.75,-192.25 2031.75,-192.25 2025.75,-192.25 2019.75,-186.25 2019.75,-180.25 2019.75,-180.25 2019.75,-130.25 2019.75,-130.25 2019.75,-124.25 2025.75,-118.25 2031.75,-118.25 2031.75,-118.25 2137,-118.25 2137,-118.25 2143,-118.25 2149,-124.25 2149,-130.25 2149,-130.25 2149,-180.25 2149,-180.25 2149,-186.25 2143,-192.25 2137,-192.25"/>
<text text-anchor="start" x="2047.25" y="-174.95" font-family="Helvetica,sans-Serif" font-size="14.00">gini = 0.029</text>
<text text-anchor="start" x="2033" y="-158.45" font-family="Helvetica,sans-Serif" font-size="14.00">samples = 1560</text>
<text text-anchor="start" x="2027.75" y="-141.95" font-family="Helvetica,sans-Serif" font-size="14.00">value = [1537, 23]</text>
<text text-anchor="start" x="2040.5" y="-125.45" font-family="Helvetica,sans-Serif" font-size="14.00">class = edible</text>
</g>
<!-- 58&#45;&gt;60 -->
<g id="edge60" class="edge">
<title>58&#45;&gt;60</title>
<path fill="none" stroke="black" d="M1992.6,-236.15C2006.14,-224.36 2020.74,-211.65 2034.23,-199.91"/>
<polygon fill="black" stroke="black" points="2036.52,-202.56 2041.76,-193.35 2031.92,-197.28 2036.52,-202.56"/>
</g>
<!-- 64 -->
<g id="node65" class="node">
<title>64</title>
<path fill="#efb082" stroke="black" d="M1968.12,-698.25C1968.12,-698.25 1854.62,-698.25 1854.62,-698.25 1848.62,-698.25 1842.62,-692.25 1842.62,-686.25 1842.62,-686.25 1842.62,-636.25 1842.62,-636.25 1842.62,-630.25 1848.62,-624.25 1854.62,-624.25 1854.62,-624.25 1968.12,-624.25 1968.12,-624.25 1974.12,-624.25 1980.12,-630.25 1980.12,-636.25 1980.12,-636.25 1980.12,-686.25 1980.12,-686.25 1980.12,-692.25 1974.12,-698.25 1968.12,-698.25"/>
<text text-anchor="start" x="1874.25" y="-680.95" font-family="Helvetica,sans-Serif" font-size="14.00">gini = 0.395</text>
<text text-anchor="start" x="1860" y="-664.45" font-family="Helvetica,sans-Serif" font-size="14.00">samples = 1415</text>
<text text-anchor="start" x="1850.62" y="-647.95" font-family="Helvetica,sans-Serif" font-size="14.00">value = [1032, 383]</text>
<text text-anchor="start" x="1867.5" y="-631.45" font-family="Helvetica,sans-Serif" font-size="14.00">class = edible</text>
</g>
<!-- 63&#45;&gt;64 -->
<g id="edge64" class="edge">
<title>63&#45;&gt;64</title>
<path fill="none" stroke="black" d="M1942.18,-742.15C1938.03,-731.37 1933.57,-719.82 1929.38,-708.95"/>
<polygon fill="black" stroke="black" points="1932.7,-707.84 1925.84,-699.77 1926.17,-710.36 1932.7,-707.84"/>
</g>
<!-- 65 -->
<g id="node66" class="node">
<title>65</title>
<path fill="#e68743" stroke="black" d="M2115,-698.25C2115,-698.25 2009.75,-698.25 2009.75,-698.25 2003.75,-698.25 1997.75,-692.25 1997.75,-686.25 1997.75,-686.25 1997.75,-636.25 1997.75,-636.25 1997.75,-630.25 2003.75,-624.25 2009.75,-624.25 2009.75,-624.25 2115,-624.25 2115,-624.25 2121,-624.25 2127,-630.25 2127,-636.25 2127,-636.25 2127,-686.25 2127,-686.25 2127,-692.25 2121,-698.25 2115,-698.25"/>
<text text-anchor="start" x="2025.25" y="-680.95" font-family="Helvetica,sans-Serif" font-size="14.00">gini = 0.093</text>
<text text-anchor="start" x="2011" y="-664.45" font-family="Helvetica,sans-Serif" font-size="14.00">samples = 1511</text>
<text text-anchor="start" x="2005.75" y="-647.95" font-family="Helvetica,sans-Serif" font-size="14.00">value = [1437, 74]</text>
<text text-anchor="start" x="2018.5" y="-631.45" font-family="Helvetica,sans-Serif" font-size="14.00">class = edible</text>
</g>
<!-- 63&#45;&gt;65 -->
<g id="edge65" class="edge">
<title>63&#45;&gt;65</title>
<path fill="none" stroke="black" d="M1996.27,-742.15C2005.75,-730.7 2015.94,-718.38 2025.42,-706.92"/>
<polygon fill="black" stroke="black" points="2027.86,-709.46 2031.54,-699.52 2022.47,-705 2027.86,-709.46"/>
</g>
<!-- 67 -->
<g id="node68" class="node">
<title>67</title>
<path fill="#e6843e" stroke="black" d="M2302.25,-833C2302.25,-833 2108.5,-833 2108.5,-833 2102.5,-833 2096.5,-827 2096.5,-821 2096.5,-821 2096.5,-754.5 2096.5,-754.5 2096.5,-748.5 2102.5,-742.5 2108.5,-742.5 2108.5,-742.5 2302.25,-742.5 2302.25,-742.5 2308.25,-742.5 2314.25,-748.5 2314.25,-754.5 2314.25,-754.5 2314.25,-821 2314.25,-821 2314.25,-827 2308.25,-833 2302.25,-833"/>
<text text-anchor="start" x="2104.5" y="-815.7" font-family="Helvetica,sans-Serif" font-size="14.00">numeric__cap&#45;diameter ≤ 8.005</text>
<text text-anchor="start" x="2168.25" y="-799.2" font-family="Helvetica,sans-Serif" font-size="14.00">gini = 0.051</text>
<text text-anchor="start" x="2154" y="-782.7" font-family="Helvetica,sans-Serif" font-size="14.00">samples = 2436</text>
<text text-anchor="start" x="2148.75" y="-766.2" font-family="Helvetica,sans-Serif" font-size="14.00">value = [2372, 64]</text>
<text text-anchor="start" x="2161.5" y="-749.7" font-family="Helvetica,sans-Serif" font-size="14.00">class = edible</text>
</g>
<!-- 66&#45;&gt;67 -->
<g id="edge67" class="edge">
<title>66&#45;&gt;67</title>
<path fill="none" stroke="black" d="M2205.38,-868.65C2205.38,-860.97 2205.38,-852.89 2205.38,-844.94"/>
<polygon fill="black" stroke="black" points="2208.88,-844.97 2205.38,-834.97 2201.88,-844.97 2208.88,-844.97"/>
</g>
<!-- 70 -->
<g id="node71" class="node">
<title>70</title>
<path fill="#f7dac4" stroke="black" d="M2450,-824.75C2450,-824.75 2344.75,-824.75 2344.75,-824.75 2338.75,-824.75 2332.75,-818.75 2332.75,-812.75 2332.75,-812.75 2332.75,-762.75 2332.75,-762.75 2332.75,-756.75 2338.75,-750.75 2344.75,-750.75 2344.75,-750.75 2450,-750.75 2450,-750.75 2456,-750.75 2462,-756.75 2462,-762.75 2462,-762.75 2462,-812.75 2462,-812.75 2462,-818.75 2456,-824.75 2450,-824.75"/>
<text text-anchor="start" x="2360.25" y="-807.45" font-family="Helvetica,sans-Serif" font-size="14.00">gini = 0.485</text>
<text text-anchor="start" x="2346" y="-790.95" font-family="Helvetica,sans-Serif" font-size="14.00">samples = 1197</text>
<text text-anchor="start" x="2340.75" y="-774.45" font-family="Helvetica,sans-Serif" font-size="14.00">value = [703, 494]</text>
<text text-anchor="start" x="2353.5" y="-757.95" font-family="Helvetica,sans-Serif" font-size="14.00">class = edible</text>
</g>
<!-- 66&#45;&gt;70 -->
<g id="edge70" class="edge">
<title>66&#45;&gt;70</title>
<path fill="none" stroke="black" d="M2274.15,-868.65C2292.93,-856.47 2313.23,-843.31 2331.83,-831.25"/>
<polygon fill="black" stroke="black" points="2333.63,-834.26 2340.12,-825.88 2329.82,-828.38 2333.63,-834.26"/>
</g>
<!-- 68 -->
<g id="node69" class="node">
<title>68</title>
<path fill="#e58139" stroke="black" d="M2253.88,-698.25C2253.88,-698.25 2156.88,-698.25 2156.88,-698.25 2150.88,-698.25 2144.88,-692.25 2144.88,-686.25 2144.88,-686.25 2144.88,-636.25 2144.88,-636.25 2144.88,-630.25 2150.88,-624.25 2156.88,-624.25 2156.88,-624.25 2253.88,-624.25 2253.88,-624.25 2259.88,-624.25 2265.88,-630.25 2265.88,-636.25 2265.88,-636.25 2265.88,-686.25 2265.88,-686.25 2265.88,-692.25 2259.88,-698.25 2253.88,-698.25"/>
<text text-anchor="start" x="2176.5" y="-680.95" font-family="Helvetica,sans-Serif" font-size="14.00">gini = 0.0</text>
<text text-anchor="start" x="2154" y="-664.45" font-family="Helvetica,sans-Serif" font-size="14.00">samples = 1436</text>
<text text-anchor="start" x="2152.88" y="-647.95" font-family="Helvetica,sans-Serif" font-size="14.00">value = [1436, 0]</text>
<text text-anchor="start" x="2161.5" y="-631.45" font-family="Helvetica,sans-Serif" font-size="14.00">class = edible</text>
</g>
<!-- 67&#45;&gt;68 -->
<g id="edge68" class="edge">
<title>67&#45;&gt;68</title>
<path fill="none" stroke="black" d="M2205.38,-742.15C2205.38,-731.6 2205.38,-720.31 2205.38,-709.63"/>
<polygon fill="black" stroke="black" points="2208.88,-709.87 2205.38,-699.87 2201.88,-709.87 2208.88,-709.87"/>
</g>
<!-- 69 -->
<g id="node70" class="node">
<title>69</title>
<path fill="#e78a47" stroke="black" d="M2392.88,-698.25C2392.88,-698.25 2295.88,-698.25 2295.88,-698.25 2289.88,-698.25 2283.88,-692.25 2283.88,-686.25 2283.88,-686.25 2283.88,-636.25 2283.88,-636.25 2283.88,-630.25 2289.88,-624.25 2295.88,-624.25 2295.88,-624.25 2392.88,-624.25 2392.88,-624.25 2398.88,-624.25 2404.88,-630.25 2404.88,-636.25 2404.88,-636.25 2404.88,-686.25 2404.88,-686.25 2404.88,-692.25 2398.88,-698.25 2392.88,-698.25"/>
<text text-anchor="start" x="2311.38" y="-680.95" font-family="Helvetica,sans-Serif" font-size="14.00">gini = 0.12</text>
<text text-anchor="start" x="2293" y="-664.45" font-family="Helvetica,sans-Serif" font-size="14.00">samples = 1000</text>
<text text-anchor="start" x="2291.88" y="-647.95" font-family="Helvetica,sans-Serif" font-size="14.00">value = [936, 64]</text>
<text text-anchor="start" x="2300.5" y="-631.45" font-family="Helvetica,sans-Serif" font-size="14.00">class = edible</text>
</g>
<!-- 67&#45;&gt;69 -->
<g id="edge69" class="edge">
<title>67&#45;&gt;69</title>
<path fill="none" stroke="black" d="M2255.16,-742.15C2268.33,-730.36 2282.52,-717.65 2295.63,-705.91"/>
<polygon fill="black" stroke="black" points="2297.82,-708.64 2302.94,-699.37 2293.15,-703.43 2297.82,-708.64"/>
</g>
</g>
</svg>
