<?xml version="1.0" encoding="UTF-8" standalone="no"?>
<!DOCTYPE svg PUBLIC "-//W3C//DTD SVG 1.1//EN"
 "http://www.w3.org/Graphics/SVG/1.1/DTD/svg11.dtd">
<!-- Generated by graphviz version 10.0.1 (20240210.2158)
 -->
<!-- Title: Tree Pages: 1 -->
<svg width="995pt" height="715pt"
 viewBox="0.00 0.00 995.38 714.50" xmlns="http://www.w3.org/2000/svg" xmlns:xlink="http://www.w3.org/1999/xlink">
<g id="graph0" class="graph" transform="scale(1 1) rotate(0) translate(4 710.5)">
<title>Tree</title>
<polygon fill="white" stroke="none" points="-4,4 -4,-710.5 991.38,-710.5 991.38,4 -4,4"/>
<!-- 0 -->
<g id="node1" class="node">
<title>0</title>
<path fill="#d8ecfa" stroke="black" d="M479.38,-706.5C479.38,-706.5 300.62,-706.5 300.62,-706.5 294.62,-706.5 288.62,-700.5 288.62,-694.5 288.62,-694.5 288.62,-628 288.62,-628 288.62,-622 294.62,-616 300.62,-616 300.62,-616 479.38,-616 479.38,-616 485.38,-616 491.38,-622 491.38,-628 491.38,-628 491.38,-694.5 491.38,-694.5 491.38,-700.5 485.38,-706.5 479.38,-706.5"/>
<text text-anchor="start" x="296.62" y="-689.2" font-family="Helvetica,sans-Serif" font-size="14.00">numeric__stem&#45;width ≤ 0.082</text>
<text text-anchor="start" x="352.88" y="-672.7" font-family="Helvetica,sans-Serif" font-size="14.00">gini = 0.494</text>
<text text-anchor="start" x="334.5" y="-656.2" font-family="Helvetica,sans-Serif" font-size="14.00">samples = 48855</text>
<text text-anchor="start" x="316.88" y="-639.7" font-family="Helvetica,sans-Serif" font-size="14.00">value = [21745, 27110]</text>
<text text-anchor="start" x="332.62" y="-623.2" font-family="Helvetica,sans-Serif" font-size="14.00">class = poisonous</text>
</g>
<!-- 1 -->
<g id="node2" class="node">
<title>1</title>
<path fill="#92c9f1" stroke="black" d="M366.25,-580C366.25,-580 165.75,-580 165.75,-580 159.75,-580 153.75,-574 153.75,-568 153.75,-568 153.75,-501.5 153.75,-501.5 153.75,-495.5 159.75,-489.5 165.75,-489.5 165.75,-489.5 366.25,-489.5 366.25,-489.5 372.25,-489.5 378.25,-495.5 378.25,-501.5 378.25,-501.5 378.25,-568 378.25,-568 378.25,-574 372.25,-580 366.25,-580"/>
<text text-anchor="start" x="161.75" y="-562.7" font-family="Helvetica,sans-Serif" font-size="14.00">categorical__gill&#45;spacing_d ≤ 0.5</text>
<text text-anchor="start" x="228.88" y="-546.2" font-family="Helvetica,sans-Serif" font-size="14.00">gini = 0.428</text>
<text text-anchor="start" x="210.5" y="-529.7" font-family="Helvetica,sans-Serif" font-size="14.00">samples = 21418</text>
<text text-anchor="start" x="185" y="-513.2" font-family="Helvetica,sans-Serif" font-size="14.00">value = [6638.0, 14780.0]</text>
<text text-anchor="start" x="208.62" y="-496.7" font-family="Helvetica,sans-Serif" font-size="14.00">class = poisonous</text>
</g>
<!-- 0&#45;&gt;1 -->
<g id="edge1" class="edge">
<title>0&#45;&gt;1</title>
<path fill="none" stroke="black" d="M345.58,-615.65C336.77,-606.8 327.44,-597.43 318.39,-588.35"/>
<polygon fill="black" stroke="black" points="321.13,-586.14 311.59,-581.53 316.17,-591.08 321.13,-586.14"/>
<text text-anchor="middle" x="310.47" y="-600.4" font-family="Helvetica,sans-Serif" font-size="14.00">True</text>
</g>
<!-- 6 -->
<g id="node7" class="node">
<title>6</title>
<path fill="#fae8db" stroke="black" d="M621.25,-580C621.25,-580 408.75,-580 408.75,-580 402.75,-580 396.75,-574 396.75,-568 396.75,-568 396.75,-501.5 396.75,-501.5 396.75,-495.5 402.75,-489.5 408.75,-489.5 408.75,-489.5 621.25,-489.5 621.25,-489.5 627.25,-489.5 633.25,-495.5 633.25,-501.5 633.25,-501.5 633.25,-568 633.25,-568 633.25,-574 627.25,-580 621.25,-580"/>
<text text-anchor="start" x="404.75" y="-562.7" font-family="Helvetica,sans-Serif" font-size="14.00">categorical__stem&#45;surface_g ≤ 0.5</text>
<text text-anchor="start" x="477.88" y="-546.2" font-family="Helvetica,sans-Serif" font-size="14.00">gini = 0.495</text>
<text text-anchor="start" x="459.5" y="-529.7" font-family="Helvetica,sans-Serif" font-size="14.00">samples = 27437</text>
<text text-anchor="start" x="429.88" y="-513.2" font-family="Helvetica,sans-Serif" font-size="14.00">value = [15107.0, 12330.0]</text>
<text text-anchor="start" x="471.12" y="-496.7" font-family="Helvetica,sans-Serif" font-size="14.00">class = edible</text>
</g>
<!-- 0&#45;&gt;6 -->
<g id="edge6" class="edge">
<title>0&#45;&gt;6</title>
<path fill="none" stroke="black" d="M434.77,-615.65C443.66,-606.8 453.07,-597.43 462.19,-588.35"/>
<polygon fill="black" stroke="black" points="464.43,-591.06 469.05,-581.52 459.49,-586.1 464.43,-591.06"/>
<text text-anchor="middle" x="470.07" y="-600.4" font-family="Helvetica,sans-Serif" font-size="14.00">False</text>
</g>
<!-- 2 -->
<g id="node3" class="node">
<title>2</title>
<path fill="#79bded" stroke="black" d="M142,-445.25C142,-445.25 12,-445.25 12,-445.25 6,-445.25 0,-439.25 0,-433.25 0,-433.25 0,-383.25 0,-383.25 0,-377.25 6,-371.25 12,-371.25 12,-371.25 142,-371.25 142,-371.25 148,-371.25 154,-377.25 154,-383.25 154,-383.25 154,-433.25 154,-433.25 154,-439.25 148,-445.25 142,-445.25"/>
<text text-anchor="start" x="39.88" y="-427.95" font-family="Helvetica,sans-Serif" font-size="14.00">gini = 0.369</text>
<text text-anchor="start" x="21.5" y="-411.45" font-family="Helvetica,sans-Serif" font-size="14.00">samples = 18042</text>
<text text-anchor="start" x="8" y="-394.95" font-family="Helvetica,sans-Serif" font-size="14.00">value = [4395, 13647]</text>
<text text-anchor="start" x="19.62" y="-378.45" font-family="Helvetica,sans-Serif" font-size="14.00">class = poisonous</text>
</g>
<!-- 1&#45;&gt;2 -->
<g id="edge2" class="edge">
<title>1&#45;&gt;2</title>
<path fill="none" stroke="black" d="M198.3,-489.15C179.81,-476.97 159.83,-463.81 141.52,-451.75"/>
<polygon fill="black" stroke="black" points="143.65,-448.97 133.38,-446.39 139.8,-454.81 143.65,-448.97"/>
</g>
<!-- 3 -->
<g id="node4" class="node">
<title>3</title>
<path fill="#f2c19d" stroke="black" d="M360.25,-453.5C360.25,-453.5 183.75,-453.5 183.75,-453.5 177.75,-453.5 171.75,-447.5 171.75,-441.5 171.75,-441.5 171.75,-375 171.75,-375 171.75,-369 177.75,-363 183.75,-363 183.75,-363 360.25,-363 360.25,-363 366.25,-363 372.25,-369 372.25,-375 372.25,-375 372.25,-441.5 372.25,-441.5 372.25,-447.5 366.25,-453.5 360.25,-453.5"/>
<text text-anchor="start" x="179.75" y="-436.2" font-family="Helvetica,sans-Serif" font-size="14.00">numeric__stem&#45;height ≤ 0.11</text>
<text text-anchor="start" x="234.88" y="-419.7" font-family="Helvetica,sans-Serif" font-size="14.00">gini = 0.446</text>
<text text-anchor="start" x="220.62" y="-403.2" font-family="Helvetica,sans-Serif" font-size="14.00">samples = 3376</text>
<text text-anchor="start" x="207.12" y="-386.7" font-family="Helvetica,sans-Serif" font-size="14.00">value = [2243, 1133]</text>
<text text-anchor="start" x="228.12" y="-370.2" font-family="Helvetica,sans-Serif" font-size="14.00">class = edible</text>
</g>
<!-- 1&#45;&gt;3 -->
<g id="edge3" class="edge">
<title>1&#45;&gt;3</title>
<path fill="none" stroke="black" d="M268.15,-489.15C268.52,-481.47 268.91,-473.39 269.29,-465.44"/>
<polygon fill="black" stroke="black" points="272.79,-465.62 269.77,-455.46 265.8,-465.28 272.79,-465.62"/>
</g>
<!-- 4 -->
<g id="node5" class="node">
<title>4</title>
<path fill="#68b4eb" stroke="black" d="M187.38,-318.75C187.38,-318.75 80.62,-318.75 80.62,-318.75 74.62,-318.75 68.62,-312.75 68.62,-306.75 68.62,-306.75 68.62,-256.75 68.62,-256.75 68.62,-250.75 74.62,-244.75 80.62,-244.75 80.62,-244.75 187.38,-244.75 187.38,-244.75 193.38,-244.75 199.38,-250.75 199.38,-256.75 199.38,-256.75 199.38,-306.75 199.38,-306.75 199.38,-312.75 193.38,-318.75 187.38,-318.75"/>
<text text-anchor="start" x="96.88" y="-301.45" font-family="Helvetica,sans-Serif" font-size="14.00">gini = 0.311</text>
<text text-anchor="start" x="86.75" y="-284.95" font-family="Helvetica,sans-Serif" font-size="14.00">samples = 931</text>
<text text-anchor="start" x="77.38" y="-268.45" font-family="Helvetica,sans-Serif" font-size="14.00">value = [179, 752]</text>
<text text-anchor="start" x="76.62" y="-251.95" font-family="Helvetica,sans-Serif" font-size="14.00">class = poisonous</text>
</g>
<!-- 3&#45;&gt;4 -->
<g id="edge4" class="edge">
<title>3&#45;&gt;4</title>
<path fill="none" stroke="black" d="M222.57,-362.65C209.5,-350.86 195.41,-338.15 182.4,-326.41"/>
<polygon fill="black" stroke="black" points="184.91,-323.97 175.14,-319.87 180.23,-329.17 184.91,-323.97"/>
</g>
<!-- 5 -->
<g id="node6" class="node">
<title>5</title>
<path fill="#ea985e" stroke="black" d="M342.75,-318.75C342.75,-318.75 229.25,-318.75 229.25,-318.75 223.25,-318.75 217.25,-312.75 217.25,-306.75 217.25,-306.75 217.25,-256.75 217.25,-256.75 217.25,-250.75 223.25,-244.75 229.25,-244.75 229.25,-244.75 342.75,-244.75 342.75,-244.75 348.75,-244.75 354.75,-250.75 354.75,-256.75 354.75,-256.75 354.75,-306.75 354.75,-306.75 354.75,-312.75 348.75,-318.75 342.75,-318.75"/>
<text text-anchor="start" x="248.88" y="-301.45" font-family="Helvetica,sans-Serif" font-size="14.00">gini = 0.263</text>
<text text-anchor="start" x="234.62" y="-284.95" font-family="Helvetica,sans-Serif" font-size="14.00">samples = 2445</text>
<text text-anchor="start" x="225.25" y="-268.45" font-family="Helvetica,sans-Serif" font-size="14.00">value = [2064, 381]</text>
<text text-anchor="start" x="242.12" y="-251.95" font-family="Helvetica,sans-Serif" font-size="14.00">class = edible</text>
</g>
<!-- 3&#45;&gt;5 -->
<g id="edge5" class="edge">
<title>3&#45;&gt;5</title>
<path fill="none" stroke="black" d="M277.01,-362.65C278.2,-352.1 279.47,-340.81 280.67,-330.13"/>
<polygon fill="black" stroke="black" points="284.13,-330.69 281.77,-320.36 277.18,-329.91 284.13,-330.69"/>
</g>
<!-- 7 -->
<g id="node8" class="node">
<title>7</title>
<path fill="#f9e0cf" stroke="black" d="M604,-453.5C604,-453.5 414,-453.5 414,-453.5 408,-453.5 402,-447.5 402,-441.5 402,-441.5 402,-375 402,-375 402,-369 408,-363 414,-363 414,-363 604,-363 604,-363 610,-363 616,-369 616,-375 616,-375 616,-441.5 616,-441.5 616,-447.5 610,-453.5 604,-453.5"/>
<text text-anchor="start" x="410" y="-436.2" font-family="Helvetica,sans-Serif" font-size="14.00">categorical__stem&#45;root_b ≤ 0.5</text>
<text text-anchor="start" x="476" y="-419.7" font-family="Helvetica,sans-Serif" font-size="14.00">gini = 0.49</text>
<text text-anchor="start" x="453.5" y="-403.2" font-family="Helvetica,sans-Serif" font-size="14.00">samples = 26533</text>
<text text-anchor="start" x="435.88" y="-386.7" font-family="Helvetica,sans-Serif" font-size="14.00">value = [15107, 11426]</text>
<text text-anchor="start" x="465.12" y="-370.2" font-family="Helvetica,sans-Serif" font-size="14.00">class = edible</text>
</g>
<!-- 6&#45;&gt;7 -->
<g id="edge7" class="edge">
<title>6&#45;&gt;7</title>
<path fill="none" stroke="black" d="M512.85,-489.15C512.48,-481.47 512.09,-473.39 511.71,-465.44"/>
<polygon fill="black" stroke="black" points="515.2,-465.28 511.23,-455.46 508.21,-465.62 515.2,-465.28"/>
</g>
<!-- 16 -->
<g id="node17" class="node">
<title>16</title>
<path fill="#399de5" stroke="black" d="M752.38,-445.25C752.38,-445.25 645.62,-445.25 645.62,-445.25 639.62,-445.25 633.62,-439.25 633.62,-433.25 633.62,-433.25 633.62,-383.25 633.62,-383.25 633.62,-377.25 639.62,-371.25 645.62,-371.25 645.62,-371.25 752.38,-371.25 752.38,-371.25 758.38,-371.25 764.38,-377.25 764.38,-383.25 764.38,-383.25 764.38,-433.25 764.38,-433.25 764.38,-439.25 758.38,-445.25 752.38,-445.25"/>
<text text-anchor="start" x="670.12" y="-427.95" font-family="Helvetica,sans-Serif" font-size="14.00">gini = 0.0</text>
<text text-anchor="start" x="651.75" y="-411.45" font-family="Helvetica,sans-Serif" font-size="14.00">samples = 904</text>
<text text-anchor="start" x="650.62" y="-394.95" font-family="Helvetica,sans-Serif" font-size="14.00">value = [0, 904]</text>
<text text-anchor="start" x="641.62" y="-378.45" font-family="Helvetica,sans-Serif" font-size="14.00">class = poisonous</text>
</g>
<!-- 6&#45;&gt;16 -->
<g id="edge16" class="edge">
<title>6&#45;&gt;16</title>
<path fill="none" stroke="black" d="M580.91,-489.15C598.91,-476.97 618.36,-463.81 636.19,-451.75"/>
<polygon fill="black" stroke="black" points="637.77,-454.91 644.09,-446.4 633.85,-449.11 637.77,-454.91"/>
</g>
<!-- 8 -->
<g id="node9" class="node">
<title>8</title>
<path fill="#92c9f1" stroke="black" d="M586.75,-327C586.75,-327 401.25,-327 401.25,-327 395.25,-327 389.25,-321 389.25,-315 389.25,-315 389.25,-248.5 389.25,-248.5 389.25,-242.5 395.25,-236.5 401.25,-236.5 401.25,-236.5 586.75,-236.5 586.75,-236.5 592.75,-236.5 598.75,-242.5 598.75,-248.5 598.75,-248.5 598.75,-315 598.75,-315 598.75,-321 592.75,-327 586.75,-327"/>
<text text-anchor="start" x="397.25" y="-309.7" font-family="Helvetica,sans-Serif" font-size="14.00">numeric__cap&#45;diameter ≤ 0.18</text>
<text text-anchor="start" x="456.88" y="-293.2" font-family="Helvetica,sans-Serif" font-size="14.00">gini = 0.428</text>
<text text-anchor="start" x="442.62" y="-276.7" font-family="Helvetica,sans-Serif" font-size="14.00">samples = 3660</text>
<text text-anchor="start" x="429.12" y="-260.2" font-family="Helvetica,sans-Serif" font-size="14.00">value = [1136, 2524]</text>
<text text-anchor="start" x="436.62" y="-243.7" font-family="Helvetica,sans-Serif" font-size="14.00">class = poisonous</text>
</g>
<!-- 7&#45;&gt;8 -->
<g id="edge8" class="edge">
<title>7&#45;&gt;8</title>
<path fill="none" stroke="black" d="M503.63,-362.65C502.69,-354.88 501.7,-346.7 500.74,-338.66"/>
<polygon fill="black" stroke="black" points="504.24,-338.46 499.57,-328.96 497.29,-339.3 504.24,-338.46"/>
</g>
<!-- 11 -->
<g id="node12" class="node">
<title>11</title>
<path fill="#f6d1b7" stroke="black" d="M811.25,-327C811.25,-327 628.75,-327 628.75,-327 622.75,-327 616.75,-321 616.75,-315 616.75,-315 616.75,-248.5 616.75,-248.5 616.75,-242.5 622.75,-236.5 628.75,-236.5 628.75,-236.5 811.25,-236.5 811.25,-236.5 817.25,-236.5 823.25,-242.5 823.25,-248.5 823.25,-248.5 823.25,-315 823.25,-315 823.25,-321 817.25,-327 811.25,-327"/>
<text text-anchor="start" x="624.75" y="-309.7" font-family="Helvetica,sans-Serif" font-size="14.00">categorical__ring&#45;type_z ≤ 0.5</text>
<text text-anchor="start" x="682.88" y="-293.2" font-family="Helvetica,sans-Serif" font-size="14.00">gini = 0.475</text>
<text text-anchor="start" x="664.5" y="-276.7" font-family="Helvetica,sans-Serif" font-size="14.00">samples = 22873</text>
<text text-anchor="start" x="639" y="-260.2" font-family="Helvetica,sans-Serif" font-size="14.00">value = [13971.0, 8902.0]</text>
<text text-anchor="start" x="676.12" y="-243.7" font-family="Helvetica,sans-Serif" font-size="14.00">class = edible</text>
</g>
<!-- 7&#45;&gt;11 -->
<g id="edge11" class="edge">
<title>7&#45;&gt;11</title>
<path fill="none" stroke="black" d="M584.58,-362.65C600.79,-353.09 618.03,-342.92 634.58,-333.15"/>
<polygon fill="black" stroke="black" points="636.1,-336.32 642.94,-328.22 632.54,-330.29 636.1,-336.32"/>
</g>
<!-- 9 -->
<g id="node10" class="node">
<title>9</title>
<path fill="#47a4e7" stroke="black" d="M389.75,-192.25C389.75,-192.25 276.25,-192.25 276.25,-192.25 270.25,-192.25 264.25,-186.25 264.25,-180.25 264.25,-180.25 264.25,-130.25 264.25,-130.25 264.25,-124.25 270.25,-118.25 276.25,-118.25 276.25,-118.25 389.75,-118.25 389.75,-118.25 395.75,-118.25 401.75,-124.25 401.75,-130.25 401.75,-130.25 401.75,-180.25 401.75,-180.25 401.75,-186.25 395.75,-192.25 389.75,-192.25"/>
<text text-anchor="start" x="295.88" y="-174.95" font-family="Helvetica,sans-Serif" font-size="14.00">gini = 0.125</text>
<text text-anchor="start" x="281.62" y="-158.45" font-family="Helvetica,sans-Serif" font-size="14.00">samples = 2044</text>
<text text-anchor="start" x="272.25" y="-141.95" font-family="Helvetica,sans-Serif" font-size="14.00">value = [137, 1907]</text>
<text text-anchor="start" x="275.62" y="-125.45" font-family="Helvetica,sans-Serif" font-size="14.00">class = poisonous</text>
</g>
<!-- 8&#45;&gt;9 -->
<g id="edge9" class="edge">
<title>8&#45;&gt;9</title>
<path fill="none" stroke="black" d="M436.33,-236.15C420.87,-224.2 404.18,-211.29 388.82,-199.42"/>
<polygon fill="black" stroke="black" points="391.2,-196.83 381.15,-193.48 386.92,-202.37 391.2,-196.83"/>
</g>
<!-- 10 -->
<g id="node11" class="node">
<title>10</title>
<path fill="#f5cfb3" stroke="black" d="M560.62,-192.25C560.62,-192.25 431.38,-192.25 431.38,-192.25 425.38,-192.25 419.38,-186.25 419.38,-180.25 419.38,-180.25 419.38,-130.25 419.38,-130.25 419.38,-124.25 425.38,-118.25 431.38,-118.25 431.38,-118.25 560.62,-118.25 560.62,-118.25 566.62,-118.25 572.62,-124.25 572.62,-130.25 572.62,-130.25 572.62,-180.25 572.62,-180.25 572.62,-186.25 566.62,-192.25 560.62,-192.25"/>
<text text-anchor="start" x="458.88" y="-174.95" font-family="Helvetica,sans-Serif" font-size="14.00">gini = 0.472</text>
<text text-anchor="start" x="444.62" y="-158.45" font-family="Helvetica,sans-Serif" font-size="14.00">samples = 1616</text>
<text text-anchor="start" x="427.38" y="-141.95" font-family="Helvetica,sans-Serif" font-size="14.00">value = [999.0, 617.0]</text>
<text text-anchor="start" x="452.12" y="-125.45" font-family="Helvetica,sans-Serif" font-size="14.00">class = edible</text>
</g>
<!-- 8&#45;&gt;10 -->
<g id="edge10" class="edge">
<title>8&#45;&gt;10</title>
<path fill="none" stroke="black" d="M494.72,-236.15C494.89,-225.6 495.07,-214.31 495.24,-203.63"/>
<polygon fill="black" stroke="black" points="498.73,-203.92 495.4,-193.87 491.74,-203.81 498.73,-203.92"/>
</g>
<!-- 12 -->
<g id="node13" class="node">
<title>12</title>
<path fill="#f4caac" stroke="black" d="M827,-200.5C827,-200.5 607,-200.5 607,-200.5 601,-200.5 595,-194.5 595,-188.5 595,-188.5 595,-122 595,-122 595,-116 601,-110 607,-110 607,-110 827,-110 827,-110 833,-110 839,-116 839,-122 839,-122 839,-188.5 839,-188.5 839,-194.5 833,-200.5 827,-200.5"/>
<text text-anchor="start" x="603" y="-183.2" font-family="Helvetica,sans-Serif" font-size="14.00">categorical__gill&#45;attachment_d ≤ 0.5</text>
<text text-anchor="start" x="679.88" y="-166.7" font-family="Helvetica,sans-Serif" font-size="14.00">gini = 0.465</text>
<text text-anchor="start" x="661.5" y="-150.2" font-family="Helvetica,sans-Serif" font-size="14.00">samples = 22088</text>
<text text-anchor="start" x="648" y="-133.7" font-family="Helvetica,sans-Serif" font-size="14.00">value = [13971, 8117]</text>
<text text-anchor="start" x="673.12" y="-117.2" font-family="Helvetica,sans-Serif" font-size="14.00">class = edible</text>
</g>
<!-- 11&#45;&gt;12 -->
<g id="edge12" class="edge">
<title>11&#45;&gt;12</title>
<path fill="none" stroke="black" d="M718.93,-236.15C718.74,-228.47 718.55,-220.39 718.35,-212.44"/>
<polygon fill="black" stroke="black" points="721.85,-212.38 718.11,-202.47 714.86,-212.55 721.85,-212.38"/>
</g>
<!-- 15 -->
<g id="node16" class="node">
<title>15</title>
<path fill="#399de5" stroke="black" d="M975.38,-192.25C975.38,-192.25 868.62,-192.25 868.62,-192.25 862.62,-192.25 856.62,-186.25 856.62,-180.25 856.62,-180.25 856.62,-130.25 856.62,-130.25 856.62,-124.25 862.62,-118.25 868.62,-118.25 868.62,-118.25 975.38,-118.25 975.38,-118.25 981.38,-118.25 987.38,-124.25 987.38,-130.25 987.38,-130.25 987.38,-180.25 987.38,-180.25 987.38,-186.25 981.38,-192.25 975.38,-192.25"/>
<text text-anchor="start" x="893.12" y="-174.95" font-family="Helvetica,sans-Serif" font-size="14.00">gini = 0.0</text>
<text text-anchor="start" x="874.75" y="-158.45" font-family="Helvetica,sans-Serif" font-size="14.00">samples = 785</text>
<text text-anchor="start" x="873.62" y="-141.95" font-family="Helvetica,sans-Serif" font-size="14.00">value = [0, 785]</text>
<text text-anchor="start" x="864.62" y="-125.45" font-family="Helvetica,sans-Serif" font-size="14.00">class = poisonous</text>
</g>
<!-- 11&#45;&gt;15 -->
<g id="edge15" class="edge">
<title>11&#45;&gt;15</title>
<path fill="none" stroke="black" d="M792.36,-236.15C812.21,-223.92 833.67,-210.69 853.31,-198.58"/>
<polygon fill="black" stroke="black" points="855.13,-201.58 861.81,-193.35 851.46,-195.62 855.13,-201.58"/>
</g>
<!-- 13 -->
<g id="node14" class="node">
<title>13</title>
<path fill="#f1b991" stroke="black" d="M698,-74C698,-74 568,-74 568,-74 562,-74 556,-68 556,-62 556,-62 556,-12 556,-12 556,-6 562,0 568,0 568,0 698,0 698,0 704,0 710,-6 710,-12 710,-12 710,-62 710,-62 710,-68 704,-74 698,-74"/>
<text text-anchor="start" x="595.88" y="-56.7" font-family="Helvetica,sans-Serif" font-size="14.00">gini = 0.425</text>
<text text-anchor="start" x="577.5" y="-40.2" font-family="Helvetica,sans-Serif" font-size="14.00">samples = 17857</text>
<text text-anchor="start" x="564" y="-23.7" font-family="Helvetica,sans-Serif" font-size="14.00">value = [12377, 5480]</text>
<text text-anchor="start" x="589.12" y="-7.2" font-family="Helvetica,sans-Serif" font-size="14.00">class = edible</text>
</g>
<!-- 12&#45;&gt;13 -->
<g id="edge13" class="edge">
<title>12&#45;&gt;13</title>
<path fill="none" stroke="black" d="M684.76,-109.64C678.58,-101.08 672.1,-92.11 665.89,-83.52"/>
<polygon fill="black" stroke="black" points="668.88,-81.68 660.18,-75.62 663.2,-85.78 668.88,-81.68"/>
</g>
<!-- 14 -->
<g id="node15" class="node">
<title>14</title>
<path fill="#b1d8f5" stroke="black" d="M861.88,-74C861.88,-74 740.12,-74 740.12,-74 734.12,-74 728.12,-68 728.12,-62 728.12,-62 728.12,-12 728.12,-12 728.12,-6 734.12,0 740.12,0 740.12,0 861.88,0 861.88,0 867.88,0 873.88,-6 873.88,-12 873.88,-12 873.88,-62 873.88,-62 873.88,-68 867.88,-74 861.88,-74"/>
<text text-anchor="start" x="768" y="-56.7" font-family="Helvetica,sans-Serif" font-size="14.00">gini = 0.47</text>
<text text-anchor="start" x="749.62" y="-40.2" font-family="Helvetica,sans-Serif" font-size="14.00">samples = 4231</text>
<text text-anchor="start" x="736.12" y="-23.7" font-family="Helvetica,sans-Serif" font-size="14.00">value = [1594, 2637]</text>
<text text-anchor="start" x="743.62" y="-7.2" font-family="Helvetica,sans-Serif" font-size="14.00">class = poisonous</text>
</g>
<!-- 12&#45;&gt;14 -->
<g id="edge14" class="edge">
<title>12&#45;&gt;14</title>
<path fill="none" stroke="black" d="M749.24,-109.64C755.42,-101.08 761.9,-92.11 768.11,-83.52"/>
<polygon fill="black" stroke="black" points="770.8,-85.78 773.82,-75.62 765.12,-81.68 770.8,-85.78"/>
</g>
</g>
</svg>
